<svg xmlns="http://www.w3.org/2000/svg" xmlns:xlink="http://www.w3.org/1999/xlink" preserveAspectRatio="xMidYMid meet" width="390" height="850" viewBox="0 0 390 850" style="width:100%;height:100%"><defs><animate repeatCount="indefinite" dur="3.375s" begin="0s" xlink:href="#_R_G_L_0_G_L_2_G" fill="freeze" attributeName="opacity" from="0" to="1" keyTimes="0;0.382716;0.4322917;1" values="0;0;1;1" keySplines="0.167 0.167 0.833 0.833;0.167 0.167 0.833 0.833;0 0 0 0" calcMode="spline"/><animateTransform repeatCount="indefinite" dur="3.375s" begin="0s" xlink:href="#_R_G_L_0_G_L_2_G" fill="freeze" attributeName="transform" from="1 0" to="1 0" type="scale" additive="sum" keyTimes="0;0.382716;0.4444444;0.5061852;0.5925926;0.691358;1" values="1 0;1 0;1 1.27089;1 1;1 1;1 0;1 0" keySplines="0.167 0 0.667 1;0.167 0 0.667 1;0.333 0 0.667 1;0.333 0 0.667 1;0.333 0 0.667 1;0 0 0 0" calcMode="spline"/><animateTransform repeatCount="indefinite" dur="3.375s" begin="0s" xlink:href="#_R_G_L_0_G_L_2_G" fill="freeze" attributeName="transform" from="-960 -607" to="-960 -607" type="translate" additive="sum" keyTimes="0;1" values="-960 -607;-960 -607" keySplines="0 0 1 1" calcMode="spline"/><animate repeatCount="indefinite" dur="3.375s" begin="0s" xlink:href="#_R_G_L_0_G_L_1_G" fill="freeze" attributeName="opacity" from="0" to="1" keyTimes="0;0.1851852;0.2465278;1" values="0;0;1;1" keySplines="0.167 0.167 0.833 0.833;0.167 0.167 0.833 0.833;0 0 0 0" calcMode="spline"/><animateTransform repeatCount="indefinite" dur="3.375s" begin="0s" xlink:href="#_R_G_L_0_G_L_1_G" fill="freeze" attributeName="transform" from="1 0.00012" to="1 0" type="scale" additive="sum" keyTimes="0;0.1851852;0.2469136;0.308642;0.691358;0.7777778;1" values="1 0.00012;1 0.00012;1 1.27089;1 1;1 1;1 0;1 0" keySplines="0.167 0 0.667 1;0.167 0 0.667 1;0.333 0 0.667 1;0.333 0 0.667 1;0.333 0 0.667 1;0 0 0 0" calcMode="spline"/><animateTransform repeatCount="indefinite" dur="3.375s" begin="0s" xlink:href="#_R_G_L_0_G_L_1_G" fill="freeze" attributeName="transform" from="-960 -607" to="-960 -607" type="translate" additive="sum" keyTimes="0;1" values="-960 -607;-960 -607" keySplines="0 0 1 1" calcMode="spline"/><animate repeatCount="indefinite" dur="3.375s" begin="0s" xlink:href="#_R_G_L_0_G_L_0_G" fill="freeze" attributeName="opacity" from="0" to="1" keyTimes="0;0.0613426;1" values="0;1;1" keySplines="0.167 0.167 0.833 0.833;0 0 0 0" calcMode="spline"/><animateTransform repeatCount="indefinite" dur="3.375s" begin="0s" xlink:href="#_R_G_L_0_G_L_0_G" fill="freeze" attributeName="transform" from="1 0.00012" to="1 0" type="scale" additive="sum" keyTimes="0;0.0617284;0.1234568;0.7777778;0.8641975;1" values="1 0.00012;1 1.27089;1 1;1 1;1 0;1 0" keySplines="0.167 0 0.667 1;0.333 0 0.667 1;0.333 0 0.667 1;0.333 0 0.667 1;0 0 0 0" calcMode="spline"/><animateTransform repeatCount="indefinite" dur="3.375s" begin="0s" xlink:href="#_R_G_L_0_G_L_0_G" fill="freeze" attributeName="transform" from="-960 -607" to="-960 -607" type="translate" additive="sum" keyTimes="0;1" values="-960 -607;-960 -607" keySplines="0 0 1 1" calcMode="spline"/><animate attributeType="XML" attributeName="opacity" dur="3s" from="0" to="1" xlink:href="#time_group"/></defs><g id="_R_G"><g id="_R_G_L_0_G" transform=" translate(195, 425) translate(-960, -540)"><g id="_R_G_L_0_G_L_2_G" transform=" translate(960, 329)"><path id="_R_G_L_0_G_L_2_G_D_0_P_0" fill="#eb0035" fill-opacity="1" fill-rule="nonzero" d=" M1021.06 614.83 C1021.06,614.83 1007.37,606.92 1007.37,606.92 C1007.37,606.92 1007.37,602.06 1007.37,602.06 C1007.37,602.06 1005.21,603.31 1005.21,603.31 C1005.21,603.31 991.52,595.4 991.52,595.4 C991.52,595.4 991.52,589.37 991.52,589.37 C991.52,589.37 990.06,590.21 990.06,590.21 C990.06,590.21 976.37,582.31 976.37,582.31 C976.37,582.31 976.37,572.89 976.37,572.89 C976.37,572.89 976.22,572.79 976.22,572.79 C976.22,572.79 966.09,566.95 966.09,566.95 C966.09,566.95 966.09,553.94 966.09,553.94 C966.09,553.94 959.94,550.39 959.94,550.39 C959.94,550.39 953.91,553.87 953.91,553.87 C953.91,553.87 953.91,566.88 953.91,566.88 C953.91,566.88 943.63,572.82 943.63,572.82 C943.63,572.82 943.63,582.24 943.63,582.24 C943.63,582.24 929.94,590.15 929.94,590.15 C929.94,590.15 928.48,589.31 928.48,589.31 C928.48,589.31 928.48,595.34 928.48,595.34 C928.48,595.34 914.79,603.24 914.79,603.24 C914.79,603.24 912.63,602 912.63,602 C912.63,602 912.63,606.86 912.63,606.86 C912.63,606.86 898.94,614.77 898.94,614.77 C898.94,614.77 885.25,606.86 885.25,606.86 C885.25,606.86 885.25,591.05 885.25,591.05 C885.25,591.05 898.95,583.15 898.95,583.15 C898.95,583.15 901.1,584.44 901.1,584.44 C901.1,584.44 901.1,579.53 901.1,579.53 C901.1,579.53 914.79,571.63 914.79,571.63 C914.79,571.63 916.25,572.47 916.25,572.47 C916.25,572.47 916.25,566.44 916.25,566.44 C916.25,566.44 926.53,560.5 926.53,560.5 C926.53,560.5 926.53,551.08 926.53,551.08 C926.53,551.08 933.18,547.24 933.18,547.24 C933.18,547.24 933.18,534.23 933.18,534.23 C933.18,534.23 946.34,526.63 946.34,526.63 C946.34,526.63 946.23,472.89 946.23,472.89 C946.23,472.89 959.91,465.17 959.91,465.17 C959.91,465.17 973.53,472.93 973.53,472.93 C973.53,472.93 973.53,472.93 973.53,472.93 C973.53,472.93 987.16,480.8 987.16,480.8 C987.16,480.8 987.17,485.93 987.17,485.93 C987.17,485.93 973.77,493.7 973.77,493.7 C973.77,493.7 973.74,526.74 973.74,526.74 C973.74,526.74 986.82,534.29 986.82,534.29 C986.82,534.29 986.82,547.3 986.82,547.3 C986.82,547.3 993.47,551.14 993.47,551.14 C993.47,551.14 993.47,560.56 993.47,560.56 C993.47,560.56 1003.75,566.5 1003.75,566.5 C1003.75,566.5 1003.75,572.53 1003.75,572.53 C1003.75,572.53 1005.21,571.69 1005.21,571.69 C1005.21,571.69 1018.9,579.6 1018.9,579.6 C1018.9,579.6 1018.9,584.51 1018.9,584.51 C1018.9,584.51 1021.05,583.21 1021.05,583.21 C1021.05,583.21 1034.75,591.12 1034.75,591.12 C1034.75,591.12 1034.75,606.92 1034.75,606.92 C1034.75,606.92 1021.06,614.83 1021.06,614.83z  M1021.45 599.24 C1021.45,599.24 1021.45,613.71 1021.45,613.71 C1021.45,613.71 1033.97,606.48 1033.97,606.48 C1033.97,606.48 1033.97,592.01 1033.97,592.01 C1033.97,592.01 1021.45,599.24 1021.45,599.24z  M1008.14 606.48 C1008.14,606.48 1020.67,613.71 1020.67,613.71 C1020.67,613.71 1020.67,599.24 1020.67,599.24 C1020.67,599.24 1016.46,596.81 1016.46,596.81 C1016.46,596.81 1008.14,601.61 1008.14,601.61 C1008.14,601.61 1008.14,606.48 1008.14,606.48z  M899.33 599.18 C899.33,599.18 899.33,613.65 899.33,613.65 C899.33,613.65 911.86,606.41 911.86,606.41 C911.86,606.41 911.86,601.55 911.86,601.55 C911.86,601.55 903.54,596.75 903.54,596.75 C903.54,596.75 899.33,599.18 899.33,599.18z  M886.03 606.41 C886.03,606.41 898.55,613.65 898.55,613.65 C898.55,613.65 898.55,599.18 898.55,599.18 C898.55,599.18 886.03,591.95 886.03,591.95 C886.03,591.95 886.03,606.41 886.03,606.41z  M1005.6 587.72 C1005.6,587.72 1005.6,602.19 1005.6,602.19 C1005.6,602.19 1018.12,594.96 1018.12,594.96 C1018.12,594.96 1018.12,580.49 1018.12,580.49 C1018.12,580.49 1005.6,587.72 1005.6,587.72z  M992.29 594.96 C992.29,594.96 1004.82,602.19 1004.82,602.19 C1004.82,602.19 1004.82,587.74 1004.82,587.74 C1004.82,587.74 999.21,584.93 999.21,584.93 C999.21,584.93 992.29,588.92 992.29,588.92 C992.29,588.92 992.29,594.96 992.29,594.96z  M915.18 587.67 C915.18,587.67 915.18,602.13 915.18,602.13 C915.18,602.13 927.71,594.89 927.71,594.89 C927.71,594.89 927.71,588.86 927.71,588.86 C927.71,588.86 920.79,584.87 920.79,584.87 C920.79,584.87 915.18,587.67 915.18,587.67z  M901.88 594.89 C901.88,594.89 914.4,602.13 914.4,602.13 C914.4,602.13 914.4,587.66 914.4,587.66 C914.4,587.66 901.88,580.43 901.88,580.43 C901.88,580.43 901.88,594.89 901.88,594.89z  M1017.23 596.37 C1017.23,596.37 1021.06,598.57 1021.06,598.57 C1021.06,598.57 1033.59,591.34 1033.59,591.34 C1033.59,591.34 1021.06,584.11 1021.06,584.11 C1021.06,584.11 1018.9,585.41 1018.9,585.41 C1018.9,585.41 1018.9,595.4 1018.9,595.4 C1018.9,595.4 1017.23,596.37 1017.23,596.37z  M886.42 591.28 C886.42,591.28 898.94,598.51 898.94,598.51 C898.94,598.51 902.77,596.3 902.77,596.3 C902.77,596.3 901.1,595.34 901.1,595.34 C901.1,595.34 901.1,585.35 901.1,585.35 C901.1,585.35 898.94,584.04 898.94,584.04 C898.94,584.04 886.42,591.28 886.42,591.28z  M977.15 581.86 C977.15,581.86 989.68,589.09 989.68,589.09 C989.68,589.09 989.68,574.63 989.68,574.63 C989.68,574.63 984.92,571.88 984.92,571.88 C984.92,571.88 979.78,574.85 979.78,574.85 C979.78,574.85 977.15,573.33 977.15,573.33 C977.15,573.33 977.15,581.86 977.15,581.86z  M990.45 574.63 C990.45,574.63 990.45,589.09 990.45,589.09 C990.45,589.09 1002.98,581.86 1002.98,581.86 C1002.98,581.86 1002.98,567.4 1002.98,567.4 C1002.98,567.4 990.45,574.63 990.45,574.63z  M917.02 581.8 C917.02,581.8 929.55,589.03 929.55,589.03 C929.55,589.03 929.55,574.56 929.55,574.56 C929.55,574.56 917.02,567.33 917.02,567.33 C917.02,567.33 917.02,581.8 917.02,581.8z  M930.32 574.56 C930.32,574.56 930.32,589.03 930.32,589.03 C930.32,589.03 942.85,581.8 942.85,581.8 C942.85,581.8 942.85,573.27 942.85,573.27 C942.85,573.27 940.22,574.79 940.22,574.79 C940.22,574.79 935.08,571.82 935.08,571.82 C935.08,571.82 930.32,574.56 930.32,574.56z  M1000.02 584.47 C1000.02,584.47 1005.2,587.06 1005.2,587.06 C1005.2,587.06 1017.74,579.82 1017.74,579.82 C1017.74,579.82 1005.21,572.59 1005.21,572.59 C1005.21,572.59 1003.75,573.43 1003.75,573.43 C1003.75,573.43 1003.75,582.31 1003.75,582.31 C1003.75,582.31 1000.02,584.47 1000.02,584.47z  M902.26 579.76 C902.26,579.76 914.8,587 914.8,587 C914.8,587 919.98,584.4 919.98,584.4 C919.98,584.4 916.25,582.24 916.25,582.24 C916.25,582.24 916.25,573.36 916.25,573.36 C916.25,573.36 914.79,572.52 914.79,572.52 C914.79,572.52 902.26,579.76 902.26,579.76z  M985.7 571.43 C985.7,571.43 990.07,573.96 990.07,573.96 C990.07,573.96 1002.59,566.72 1002.59,566.72 C1002.59,566.72 993.47,561.46 993.47,561.46 C993.47,561.46 993.47,566.95 993.47,566.95 C993.47,566.95 985.7,571.43 985.7,571.43z  M917.41 566.66 C917.41,566.66 929.93,573.89 929.93,573.89 C929.93,573.89 934.3,571.37 934.3,571.37 C934.3,571.37 926.53,566.88 926.53,566.88 C926.53,566.88 926.53,561.39 926.53,561.39 C926.53,561.39 917.41,566.66 917.41,566.66z  M980.17 559.27 C980.17,559.27 980.17,573.73 980.17,573.73 C980.17,573.73 992.69,566.5 992.69,566.5 C992.69,566.5 992.69,552.03 992.69,552.03 C992.69,552.03 980.17,559.27 980.17,559.27z  M966.86 566.5 C966.86,566.5 979.39,573.73 979.39,573.73 C979.39,573.73 979.39,559.27 979.39,559.27 C979.39,559.27 975.16,556.83 975.16,556.83 C975.16,556.83 973.13,558 973.13,558 C973.13,558 966.86,554.39 966.86,554.39 C966.86,554.39 966.86,566.5 966.86,566.5z  M940.61 559.2 C940.61,559.2 940.61,573.67 940.61,573.67 C940.61,573.67 953.14,566.44 953.14,566.44 C953.14,566.44 953.14,554.32 953.14,554.32 C953.14,554.32 946.87,557.94 946.87,557.94 C946.87,557.94 944.84,556.76 944.84,556.76 C944.84,556.76 940.61,559.2 940.61,559.2z  M927.31 566.44 C927.31,566.44 939.83,573.67 939.83,573.67 C939.83,573.67 939.83,559.2 939.83,559.2 C939.83,559.2 927.31,551.97 927.31,551.97 C927.31,551.97 927.31,566.44 927.31,566.44z  M975.94 556.38 C975.94,556.38 979.78,558.6 979.78,558.6 C979.78,558.6 992.31,551.36 992.31,551.36 C992.31,551.36 986.82,548.19 986.82,548.19 C986.82,548.19 986.82,550.1 986.82,550.1 C986.82,550.1 975.94,556.38 975.94,556.38z  M927.69 551.3 C927.69,551.3 940.22,558.53 940.22,558.53 C940.22,558.53 944.06,556.31 944.06,556.31 C944.06,556.31 933.18,550.03 933.18,550.03 C933.18,550.03 933.18,548.13 933.18,548.13 C933.18,548.13 927.69,551.3 927.69,551.3z  M960.39 549.75 C960.39,549.75 972.74,556.88 972.74,556.88 C972.74,556.88 972.74,542.42 972.74,542.42 C972.74,542.42 966.44,538.78 966.44,538.78 C966.44,538.78 960.37,542.35 960.37,542.35 C960.37,542.35 960.39,549.75 960.39,549.75z  M973.51 542.42 C973.51,542.42 973.51,556.88 973.51,556.88 C973.51,556.88 986.04,549.65 986.04,549.65 C986.04,549.65 986.04,535.18 986.04,535.18 C986.04,535.18 973.51,542.42 973.51,542.42z  M933.96 549.59 C933.96,549.59 946.49,556.82 946.49,556.82 C946.49,556.82 946.49,542.35 946.49,542.35 C946.49,542.35 933.96,535.12 933.96,535.12 C933.96,535.12 933.96,549.59 933.96,549.59z  M947.26 542.35 C947.26,542.35 947.26,556.82 947.26,556.82 C947.26,556.82 959.61,549.69 959.61,549.69 C959.61,549.69 959.6,542.27 959.6,542.27 C959.6,542.27 953.47,538.77 953.47,538.77 C953.47,538.77 947.26,542.35 947.26,542.35z  M967.2 538.33 C967.2,538.33 973.13,541.75 973.13,541.75 C973.13,541.75 985.65,534.51 985.65,534.51 C985.65,534.51 973.74,527.63 973.74,527.63 C973.74,527.63 973.74,534.48 973.74,534.48 C973.74,534.48 967.2,538.33 967.2,538.33z  M934.35 534.45 C934.35,534.45 946.87,541.68 946.87,541.68 C946.87,541.68 952.69,538.32 952.69,538.32 C952.69,538.32 946.36,534.71 946.36,534.71 C946.36,534.71 946.34,527.52 946.34,527.52 C946.34,527.52 934.35,534.45 934.35,534.45z  M947.13 534.26 C947.13,534.26 959.67,541.42 959.67,541.42 C959.67,541.42 959.64,527.05 959.64,527.05 C959.64,527.05 947.1,519.58 947.1,519.58 C947.1,519.58 947.13,534.26 947.13,534.26z  M960.42 527.05 C960.42,527.05 960.45,541.41 960.45,541.41 C960.45,541.41 972.96,534.04 972.96,534.04 C972.96,534.04 972.97,527.19 972.97,527.19 C972.97,527.19 972.93,527.17 972.93,527.17 C972.93,527.17 972.97,527.11 972.97,527.11 C972.97,527.11 972.97,519.77 972.97,519.77 C972.97,519.77 960.42,527.05 960.42,527.05z  M960.39 511.76 C960.39,511.76 960.42,526.16 960.42,526.16 C960.42,526.16 972.97,518.88 972.97,518.88 C972.97,518.88 972.98,504.46 972.98,504.46 C972.98,504.46 960.39,511.76 960.39,511.76z  M947.1 518.68 C947.1,518.68 959.64,526.15 959.64,526.15 C959.64,526.15 959.61,511.76 959.61,511.76 C959.61,511.76 947.07,504.29 947.07,504.29 C947.07,504.29 947.1,518.68 947.1,518.68z  M960.36 496.56 C960.36,496.56 960.39,510.86 960.39,510.86 C960.39,510.86 972.98,503.56 972.98,503.56 C972.98,503.56 972.98,493.69 972.98,493.69 C972.98,493.69 969.12,491.47 969.12,491.47 C969.12,491.47 960.36,496.56 960.36,496.56z  M947.07 503.39 C947.07,503.39 959.61,510.85 959.61,510.85 C959.61,510.85 959.58,496.56 959.58,496.56 C959.58,496.56 947.04,489.09 947.04,489.09 C947.04,489.09 947.07,503.39 947.07,503.39z  M960.34 486.43 C960.34,486.43 960.35,495.66 960.35,495.66 C960.35,495.66 968.35,491.03 968.35,491.03 C968.35,491.03 960.34,486.43 960.34,486.43z  M947.04 488.19 C947.04,488.19 959.58,495.65 959.58,495.65 C959.58,495.65 959.55,481.26 959.55,481.26 C959.55,481.26 947.01,473.8 947.01,473.8 C947.01,473.8 947.04,488.19 947.04,488.19z  M973.76 489.02 C973.76,489.02 973.77,492.81 973.77,492.81 C973.77,492.81 986.4,485.48 986.4,485.48 C986.4,485.48 986.39,481.7 986.39,481.7 C986.39,481.7 973.76,489.02 973.76,489.02z  M960.33 485.53 C960.33,485.53 972.98,492.8 972.98,492.8 C972.98,492.8 972.99,489.02 972.99,489.02 C972.99,489.02 960.33,481.75 960.33,481.75 C960.33,481.75 960.33,485.53 960.33,485.53z  M960.68 481.06 C960.68,481.06 973.36,488.35 973.36,488.35 C973.36,488.35 986,481.02 986,481.02 C986,481.02 973.34,473.71 973.34,473.71 C973.34,473.71 960.68,481.06 960.68,481.06z  M947.39 473.12 C947.39,473.12 959.94,480.59 959.94,480.59 C959.94,480.59 972.56,473.27 972.56,473.27 C972.56,473.27 959.9,466.06 959.9,466.06 C959.9,466.06 947.39,473.12 947.39,473.12z "/></g><g id="_R_G_L_0_G_L_1_G" transform=" translate(960, 620)"><path id="_R_G_L_0_G_L_1_G_D_0_P_0" fill="#eb0035" fill-opacity="1" fill-rule="nonzero" d=" M1021.06 614.83 C1021.06,614.83 1007.37,606.92 1007.37,606.92 C1007.37,606.92 1007.37,602.06 1007.37,602.06 C1007.37,602.06 1005.21,603.31 1005.21,603.31 C1005.21,603.31 991.52,595.4 991.52,595.4 C991.52,595.4 991.52,589.37 991.52,589.37 C991.52,589.37 990.06,590.21 990.06,590.21 C990.06,590.21 976.37,582.31 976.37,582.31 C976.37,582.31 976.37,572.89 976.37,572.89 C976.37,572.89 976.22,572.79 976.22,572.79 C976.22,572.79 966.09,566.95 966.09,566.95 C966.09,566.95 966.09,553.94 966.09,553.94 C966.09,553.94 959.94,550.39 959.94,550.39 C959.94,550.39 953.91,553.87 953.91,553.87 C953.91,553.87 953.91,566.88 953.91,566.88 C953.91,566.88 943.63,572.82 943.63,572.82 C943.63,572.82 943.63,582.24 943.63,582.24 C943.63,582.24 929.94,590.15 929.94,590.15 C929.94,590.15 928.48,589.31 928.48,589.31 C928.48,589.31 928.48,595.34 928.48,595.34 C928.48,595.34 914.79,603.24 914.79,603.24 C914.79,603.24 912.63,602 912.63,602 C912.63,602 912.63,606.86 912.63,606.86 C912.63,606.86 898.94,614.77 898.94,614.77 C898.94,614.77 885.25,606.86 885.25,606.86 C885.25,606.86 885.25,591.05 885.25,591.05 C885.25,591.05 898.95,583.15 898.95,583.15 C898.95,583.15 901.1,584.44 901.1,584.44 C901.1,584.44 901.1,579.53 901.1,579.53 C901.1,579.53 914.79,571.63 914.79,571.63 C914.79,571.63 916.25,572.47 916.25,572.47 C916.25,572.47 916.25,566.44 916.25,566.44 C916.25,566.44 926.53,560.5 926.53,560.5 C926.53,560.5 926.53,551.08 926.53,551.08 C926.53,551.08 933.18,547.24 933.18,547.24 C933.18,547.24 933.18,534.23 933.18,534.23 C933.18,534.23 946.34,526.63 946.34,526.63 C946.34,526.63 946.23,472.89 946.23,472.89 C946.23,472.89 959.91,465.17 959.91,465.17 C959.91,465.17 973.53,472.93 973.53,472.93 C973.53,472.93 973.53,472.93 973.53,472.93 C973.53,472.93 987.16,480.8 987.16,480.8 C987.16,480.8 987.17,485.93 987.17,485.93 C987.17,485.93 973.77,493.7 973.77,493.7 C973.77,493.7 973.74,526.74 973.74,526.74 C973.74,526.74 986.82,534.29 986.82,534.29 C986.82,534.29 986.82,547.3 986.82,547.3 C986.82,547.3 993.47,551.14 993.47,551.14 C993.47,551.14 993.47,560.56 993.47,560.56 C993.47,560.56 1003.75,566.5 1003.75,566.5 C1003.75,566.5 1003.75,572.53 1003.75,572.53 C1003.75,572.53 1005.21,571.69 1005.21,571.69 C1005.21,571.69 1018.9,579.6 1018.9,579.6 C1018.9,579.6 1018.9,584.51 1018.9,584.51 C1018.9,584.51 1021.05,583.21 1021.05,583.21 C1021.05,583.21 1034.75,591.12 1034.75,591.12 C1034.75,591.12 1034.75,606.92 1034.75,606.92 C1034.75,606.92 1021.06,614.83 1021.06,614.83z  M1021.45 599.24 C1021.45,599.24 1021.45,613.71 1021.45,613.71 C1021.45,613.71 1033.97,606.48 1033.97,606.48 C1033.97,606.48 1033.97,592.01 1033.97,592.01 C1033.97,592.01 1021.45,599.24 1021.45,599.24z  M1008.14 606.48 C1008.14,606.48 1020.67,613.71 1020.67,613.71 C1020.67,613.71 1020.67,599.24 1020.67,599.24 C1020.67,599.24 1016.46,596.81 1016.46,596.81 C1016.46,596.81 1008.14,601.61 1008.14,601.61 C1008.14,601.61 1008.14,606.48 1008.14,606.48z  M899.33 599.18 C899.33,599.18 899.33,613.65 899.33,613.65 C899.33,613.65 911.86,606.41 911.86,606.41 C911.86,606.41 911.86,601.55 911.86,601.55 C911.86,601.55 903.54,596.75 903.54,596.75 C903.54,596.75 899.33,599.18 899.33,599.18z  M886.03 606.41 C886.03,606.41 898.55,613.65 898.55,613.65 C898.55,613.65 898.55,599.18 898.55,599.18 C898.55,599.18 886.03,591.95 886.03,591.95 C886.03,591.95 886.03,606.41 886.03,606.41z  M1005.6 587.72 C1005.6,587.72 1005.6,602.19 1005.6,602.19 C1005.6,602.19 1018.12,594.96 1018.12,594.96 C1018.12,594.96 1018.12,580.49 1018.12,580.49 C1018.12,580.49 1005.6,587.72 1005.6,587.72z  M992.29 594.96 C992.29,594.96 1004.82,602.19 1004.82,602.19 C1004.82,602.19 1004.82,587.74 1004.82,587.74 C1004.82,587.74 999.21,584.93 999.21,584.93 C999.21,584.93 992.29,588.92 992.29,588.92 C992.29,588.92 992.29,594.96 992.29,594.96z  M915.18 587.67 C915.18,587.67 915.18,602.13 915.18,602.13 C915.18,602.13 927.71,594.89 927.71,594.89 C927.71,594.89 927.71,588.86 927.71,588.86 C927.71,588.86 920.79,584.87 920.79,584.87 C920.79,584.87 915.18,587.67 915.18,587.67z  M901.88 594.89 C901.88,594.89 914.4,602.13 914.4,602.13 C914.4,602.13 914.4,587.66 914.4,587.66 C914.4,587.66 901.88,580.43 901.88,580.43 C901.88,580.43 901.88,594.89 901.88,594.89z  M1017.23 596.37 C1017.23,596.37 1021.06,598.57 1021.06,598.57 C1021.06,598.57 1033.59,591.34 1033.59,591.34 C1033.59,591.34 1021.06,584.11 1021.06,584.11 C1021.06,584.11 1018.9,585.41 1018.9,585.41 C1018.9,585.41 1018.9,595.4 1018.9,595.4 C1018.9,595.4 1017.23,596.37 1017.23,596.37z  M886.42 591.28 C886.42,591.28 898.94,598.51 898.94,598.51 C898.94,598.51 902.77,596.3 902.77,596.3 C902.77,596.3 901.1,595.34 901.1,595.34 C901.1,595.34 901.1,585.35 901.1,585.35 C901.1,585.35 898.94,584.04 898.94,584.04 C898.94,584.04 886.42,591.28 886.42,591.28z  M977.15 581.86 C977.15,581.86 989.68,589.09 989.68,589.09 C989.68,589.09 989.68,574.63 989.68,574.63 C989.68,574.63 984.92,571.88 984.92,571.88 C984.92,571.88 979.78,574.85 979.78,574.85 C979.78,574.85 977.15,573.33 977.15,573.33 C977.15,573.33 977.15,581.86 977.15,581.86z  M990.45 574.63 C990.45,574.63 990.45,589.09 990.45,589.09 C990.45,589.09 1002.98,581.86 1002.98,581.86 C1002.98,581.86 1002.98,567.4 1002.98,567.4 C1002.98,567.4 990.45,574.63 990.45,574.63z  M917.02 581.8 C917.02,581.8 929.55,589.03 929.55,589.03 C929.55,589.03 929.55,574.56 929.55,574.56 C929.55,574.56 917.02,567.33 917.02,567.33 C917.02,567.33 917.02,581.8 917.02,581.8z  M930.32 574.56 C930.32,574.56 930.32,589.03 930.32,589.03 C930.32,589.03 942.85,581.8 942.85,581.8 C942.85,581.8 942.85,573.27 942.85,573.27 C942.85,573.27 940.22,574.79 940.22,574.79 C940.22,574.79 935.08,571.82 935.08,571.82 C935.08,571.82 930.32,574.56 930.32,574.56z  M1000.02 584.47 C1000.02,584.47 1005.2,587.06 1005.2,587.06 C1005.2,587.06 1017.74,579.82 1017.74,579.82 C1017.74,579.82 1005.21,572.59 1005.21,572.59 C1005.21,572.59 1003.75,573.43 1003.75,573.43 C1003.75,573.43 1003.75,582.31 1003.75,582.31 C1003.75,582.31 1000.02,584.47 1000.02,584.47z  M902.26 579.76 C902.26,579.76 914.8,587 914.8,587 C914.8,587 919.98,584.4 919.98,584.4 C919.98,584.4 916.25,582.24 916.25,582.24 C916.25,582.24 916.25,573.36 916.25,573.36 C916.25,573.36 914.79,572.52 914.79,572.52 C914.79,572.52 902.26,579.76 902.26,579.76z  M985.7 571.43 C985.7,571.43 990.07,573.96 990.07,573.96 C990.07,573.96 1002.59,566.72 1002.59,566.72 C1002.59,566.72 993.47,561.46 993.47,561.46 C993.47,561.46 993.47,566.95 993.47,566.95 C993.47,566.95 985.7,571.43 985.7,571.43z  M917.41 566.66 C917.41,566.66 929.93,573.89 929.93,573.89 C929.93,573.89 934.3,571.37 934.3,571.37 C934.3,571.37 926.53,566.88 926.53,566.88 C926.53,566.88 926.53,561.39 926.53,561.39 C926.53,561.39 917.41,566.66 917.41,566.66z  M980.17 559.27 C980.17,559.27 980.17,573.73 980.17,573.73 C980.17,573.73 992.69,566.5 992.69,566.5 C992.69,566.5 992.69,552.03 992.69,552.03 C992.69,552.03 980.17,559.27 980.17,559.27z  M966.86 566.5 C966.86,566.5 979.39,573.73 979.39,573.73 C979.39,573.73 979.39,559.27 979.39,559.27 C979.39,559.27 975.16,556.83 975.16,556.83 C975.16,556.83 973.13,558 973.13,558 C973.13,558 966.86,554.39 966.86,554.39 C966.86,554.39 966.86,566.5 966.86,566.5z  M940.61 559.2 C940.61,559.2 940.61,573.67 940.61,573.67 C940.61,573.67 953.14,566.44 953.14,566.44 C953.14,566.44 953.14,554.32 953.14,554.32 C953.14,554.32 946.87,557.94 946.87,557.94 C946.87,557.94 944.84,556.76 944.84,556.76 C944.84,556.76 940.61,559.2 940.61,559.2z  M927.31 566.44 C927.31,566.44 939.83,573.67 939.83,573.67 C939.83,573.67 939.83,559.2 939.83,559.2 C939.83,559.2 927.31,551.97 927.31,551.97 C927.31,551.97 927.31,566.44 927.31,566.44z  M975.94 556.38 C975.94,556.38 979.78,558.6 979.78,558.6 C979.78,558.6 992.31,551.36 992.31,551.36 C992.31,551.36 986.82,548.19 986.82,548.19 C986.82,548.19 986.82,550.1 986.82,550.1 C986.82,550.1 975.94,556.38 975.94,556.38z  M927.69 551.3 C927.69,551.3 940.22,558.53 940.22,558.53 C940.22,558.53 944.06,556.31 944.06,556.31 C944.06,556.31 933.18,550.03 933.18,550.03 C933.18,550.03 933.18,548.13 933.18,548.13 C933.18,548.13 927.69,551.3 927.69,551.3z  M960.39 549.75 C960.39,549.75 972.74,556.88 972.74,556.88 C972.74,556.88 972.74,542.42 972.74,542.42 C972.74,542.42 966.44,538.78 966.44,538.78 C966.44,538.78 960.37,542.35 960.37,542.35 C960.37,542.35 960.39,549.75 960.39,549.75z  M973.51 542.42 C973.51,542.42 973.51,556.88 973.51,556.88 C973.51,556.88 986.04,549.65 986.04,549.65 C986.04,549.65 986.04,535.18 986.04,535.18 C986.04,535.18 973.51,542.42 973.51,542.42z  M933.96 549.59 C933.96,549.59 946.49,556.82 946.49,556.82 C946.49,556.82 946.49,542.35 946.49,542.35 C946.49,542.35 933.96,535.12 933.96,535.12 C933.96,535.12 933.96,549.59 933.96,549.59z  M947.26 542.35 C947.26,542.35 947.26,556.82 947.26,556.82 C947.26,556.82 959.61,549.69 959.61,549.69 C959.61,549.69 959.6,542.27 959.6,542.27 C959.6,542.27 953.47,538.77 953.47,538.77 C953.47,538.77 947.26,542.35 947.26,542.35z  M967.2 538.33 C967.2,538.33 973.13,541.75 973.13,541.75 C973.13,541.75 985.65,534.51 985.65,534.51 C985.65,534.51 973.74,527.63 973.74,527.63 C973.74,527.63 973.74,534.48 973.74,534.48 C973.74,534.48 967.2,538.33 967.2,538.33z  M934.35 534.45 C934.35,534.45 946.87,541.68 946.87,541.68 C946.87,541.68 952.69,538.32 952.69,538.32 C952.69,538.32 946.36,534.71 946.36,534.71 C946.36,534.71 946.34,527.52 946.34,527.52 C946.34,527.52 934.35,534.45 934.35,534.45z  M947.13 534.26 C947.13,534.26 959.67,541.42 959.67,541.42 C959.67,541.42 959.64,527.05 959.64,527.05 C959.64,527.05 947.1,519.58 947.1,519.58 C947.1,519.58 947.13,534.26 947.13,534.26z  M960.42 527.05 C960.42,527.05 960.45,541.41 960.45,541.41 C960.45,541.41 972.96,534.04 972.96,534.04 C972.96,534.04 972.97,527.19 972.97,527.19 C972.97,527.19 972.93,527.17 972.93,527.17 C972.93,527.17 972.97,527.11 972.97,527.11 C972.97,527.11 972.97,519.77 972.97,519.77 C972.97,519.77 960.42,527.05 960.42,527.05z  M960.39 511.76 C960.39,511.76 960.42,526.16 960.42,526.16 C960.42,526.16 972.97,518.88 972.97,518.88 C972.97,518.88 972.98,504.46 972.98,504.46 C972.98,504.46 960.39,511.76 960.39,511.76z  M947.1 518.68 C947.1,518.68 959.64,526.15 959.64,526.15 C959.64,526.15 959.61,511.76 959.61,511.76 C959.61,511.76 947.07,504.29 947.07,504.29 C947.07,504.29 947.1,518.68 947.1,518.68z  M960.36 496.56 C960.36,496.56 960.39,510.86 960.39,510.86 C960.39,510.86 972.98,503.56 972.98,503.56 C972.98,503.56 972.98,493.69 972.98,493.69 C972.98,493.69 969.12,491.47 969.12,491.47 C969.12,491.47 960.36,496.56 960.36,496.56z  M947.07 503.39 C947.07,503.39 959.61,510.85 959.61,510.85 C959.61,510.85 959.58,496.56 959.58,496.56 C959.58,496.56 947.04,489.09 947.04,489.09 C947.04,489.09 947.07,503.39 947.07,503.39z  M960.34 486.43 C960.34,486.43 960.35,495.66 960.35,495.66 C960.35,495.66 968.35,491.03 968.35,491.03 C968.35,491.03 960.34,486.43 960.34,486.43z  M947.04 488.19 C947.04,488.19 959.58,495.65 959.58,495.65 C959.58,495.65 959.55,481.26 959.55,481.26 C959.55,481.26 947.01,473.8 947.01,473.8 C947.01,473.8 947.04,488.19 947.04,488.19z  M973.76 489.02 C973.76,489.02 973.77,492.81 973.77,492.81 C973.77,492.81 986.4,485.48 986.4,485.48 C986.4,485.48 986.39,481.7 986.39,481.7 C986.39,481.7 973.76,489.02 973.76,489.02z  M960.33 485.53 C960.33,485.53 972.98,492.8 972.98,492.8 C972.98,492.8 972.99,489.02 972.99,489.02 C972.99,489.02 960.33,481.75 960.33,481.75 C960.33,481.75 960.33,485.53 960.33,485.53z  M960.68 481.06 C960.68,481.06 973.36,488.35 973.36,488.35 C973.36,488.35 986,481.02 986,481.02 C986,481.02 973.34,473.71 973.34,473.71 C973.34,473.71 960.68,481.06 960.68,481.06z  M947.39 473.12 C947.39,473.12 959.94,480.59 959.94,480.59 C959.94,480.59 972.56,473.27 972.56,473.27 C972.56,473.27 959.9,466.06 959.9,466.06 C959.9,466.06 947.39,473.12 947.39,473.12z "/></g><g id="_R_G_L_0_G_L_0_G" transform=" translate(960, 917)"><path id="_R_G_L_0_G_L_0_G_D_0_P_0" fill="#eb0035" fill-opacity="1" fill-rule="nonzero" d=" M1021.06 614.83 C1021.06,614.83 1007.37,606.92 1007.37,606.92 C1007.37,606.92 1007.37,602.06 1007.37,602.06 C1007.37,602.06 1005.21,603.31 1005.21,603.31 C1005.21,603.31 991.52,595.4 991.52,595.4 C991.52,595.4 991.52,589.37 991.52,589.37 C991.52,589.37 990.06,590.21 990.06,590.21 C990.06,590.21 976.37,582.31 976.37,582.31 C976.37,582.31 976.37,572.89 976.37,572.89 C976.37,572.89 976.22,572.79 976.22,572.79 C976.22,572.79 966.09,566.95 966.09,566.95 C966.09,566.95 966.09,553.94 966.09,553.94 C966.09,553.94 959.94,550.39 959.94,550.39 C959.94,550.39 953.91,553.87 953.91,553.87 C953.91,553.87 953.91,566.88 953.91,566.88 C953.91,566.88 943.63,572.82 943.63,572.82 C943.63,572.82 943.63,582.24 943.63,582.24 C943.63,582.24 929.94,590.15 929.94,590.15 C929.94,590.15 928.48,589.31 928.48,589.31 C928.48,589.31 928.48,595.34 928.48,595.34 C928.48,595.34 914.79,603.24 914.79,603.24 C914.79,603.24 912.63,602 912.63,602 C912.63,602 912.63,606.86 912.63,606.86 C912.63,606.86 898.94,614.77 898.94,614.77 C898.94,614.77 885.25,606.86 885.25,606.86 C885.25,606.86 885.25,591.05 885.25,591.05 C885.25,591.05 898.95,583.15 898.95,583.15 C898.95,583.15 901.1,584.44 901.1,584.44 C901.1,584.44 901.1,579.53 901.1,579.53 C901.1,579.53 914.79,571.63 914.79,571.63 C914.79,571.63 916.25,572.47 916.25,572.47 C916.25,572.47 916.25,566.44 916.25,566.44 C916.25,566.44 926.53,560.5 926.53,560.5 C926.53,560.5 926.53,551.08 926.53,551.08 C926.53,551.08 933.18,547.24 933.18,547.24 C933.18,547.24 933.18,534.23 933.18,534.23 C933.18,534.23 946.34,526.63 946.34,526.63 C946.34,526.63 946.23,472.89 946.23,472.89 C946.23,472.89 959.91,465.17 959.91,465.17 C959.91,465.17 973.53,472.93 973.53,472.93 C973.53,472.93 973.53,472.93 973.53,472.93 C973.53,472.93 987.16,480.8 987.16,480.8 C987.16,480.8 987.17,485.93 987.17,485.93 C987.17,485.93 973.77,493.7 973.77,493.7 C973.77,493.7 973.74,526.74 973.74,526.74 C973.74,526.74 986.82,534.29 986.82,534.29 C986.82,534.29 986.82,547.3 986.82,547.3 C986.82,547.3 993.47,551.14 993.47,551.14 C993.47,551.14 993.47,560.56 993.47,560.56 C993.47,560.56 1003.75,566.5 1003.75,566.5 C1003.75,566.5 1003.75,572.53 1003.75,572.53 C1003.75,572.53 1005.21,571.69 1005.21,571.69 C1005.21,571.69 1018.9,579.6 1018.9,579.6 C1018.9,579.6 1018.9,584.51 1018.9,584.51 C1018.9,584.51 1021.05,583.21 1021.05,583.21 C1021.05,583.21 1034.75,591.12 1034.75,591.12 C1034.75,591.12 1034.75,606.92 1034.75,606.92 C1034.75,606.92 1021.06,614.83 1021.06,614.83z  M1021.45 599.24 C1021.45,599.24 1021.45,613.71 1021.45,613.71 C1021.45,613.71 1033.97,606.48 1033.97,606.48 C1033.97,606.48 1033.97,592.01 1033.97,592.01 C1033.97,592.01 1021.45,599.24 1021.45,599.24z  M1008.14 606.48 C1008.14,606.48 1020.67,613.71 1020.67,613.71 C1020.67,613.71 1020.67,599.24 1020.67,599.24 C1020.67,599.24 1016.46,596.81 1016.46,596.81 C1016.46,596.81 1008.14,601.61 1008.14,601.61 C1008.14,601.61 1008.14,606.48 1008.14,606.48z  M899.33 599.18 C899.33,599.18 899.33,613.65 899.33,613.65 C899.33,613.65 911.86,606.41 911.86,606.41 C911.86,606.41 911.86,601.55 911.86,601.55 C911.86,601.55 903.54,596.75 903.54,596.75 C903.54,596.75 899.33,599.18 899.33,599.18z  M886.03 606.41 C886.03,606.41 898.55,613.65 898.55,613.65 C898.55,613.65 898.55,599.18 898.55,599.18 C898.55,599.18 886.03,591.95 886.03,591.95 C886.03,591.95 886.03,606.41 886.03,606.41z  M1005.6 587.72 C1005.6,587.72 1005.6,602.19 1005.6,602.19 C1005.6,602.19 1018.12,594.96 1018.12,594.96 C1018.12,594.96 1018.12,580.49 1018.12,580.49 C1018.12,580.49 1005.6,587.72 1005.6,587.72z  M992.29 594.96 C992.29,594.96 1004.82,602.19 1004.82,602.19 C1004.82,602.19 1004.82,587.74 1004.82,587.74 C1004.82,587.74 999.21,584.93 999.21,584.93 C999.21,584.93 992.29,588.92 992.29,588.92 C992.29,588.92 992.29,594.96 992.29,594.96z  M915.18 587.67 C915.18,587.67 915.18,602.13 915.18,602.13 C915.18,602.13 927.71,594.89 927.71,594.89 C927.71,594.89 927.71,588.86 927.71,588.86 C927.71,588.86 920.79,584.87 920.79,584.87 C920.79,584.87 915.18,587.67 915.18,587.67z  M901.88 594.89 C901.88,594.89 914.4,602.13 914.4,602.13 C914.4,602.13 914.4,587.66 914.4,587.66 C914.4,587.66 901.88,580.43 901.88,580.43 C901.88,580.43 901.88,594.89 901.88,594.89z  M1017.23 596.37 C1017.23,596.37 1021.06,598.57 1021.06,598.57 C1021.06,598.57 1033.59,591.34 1033.59,591.34 C1033.59,591.34 1021.06,584.11 1021.06,584.11 C1021.06,584.11 1018.9,585.41 1018.9,585.41 C1018.9,585.41 1018.9,595.4 1018.9,595.4 C1018.9,595.4 1017.23,596.37 1017.23,596.37z  M886.42 591.28 C886.42,591.28 898.94,598.51 898.94,598.51 C898.94,598.51 902.77,596.3 902.77,596.3 C902.77,596.3 901.1,595.34 901.1,595.34 C901.1,595.34 901.1,585.35 901.1,585.35 C901.1,585.35 898.94,584.04 898.94,584.04 C898.94,584.04 886.42,591.28 886.42,591.28z  M977.15 581.86 C977.15,581.86 989.68,589.09 989.68,589.09 C989.68,589.09 989.68,574.63 989.68,574.63 C989.68,574.63 984.92,571.88 984.92,571.88 C984.92,571.88 979.78,574.85 979.78,574.85 C979.78,574.85 977.15,573.33 977.15,573.33 C977.15,573.33 977.15,581.86 977.15,581.86z  M990.45 574.63 C990.45,574.63 990.45,589.09 990.45,589.09 C990.45,589.09 1002.98,581.86 1002.98,581.86 C1002.98,581.86 1002.98,567.4 1002.98,567.4 C1002.98,567.4 990.45,574.63 990.45,574.63z  M917.02 581.8 C917.02,581.8 929.55,589.03 929.55,589.03 C929.55,589.03 929.55,574.56 929.55,574.56 C929.55,574.56 917.02,567.33 917.02,567.33 C917.02,567.33 917.02,581.8 917.02,581.8z  M930.32 574.56 C930.32,574.56 930.32,589.03 930.32,589.03 C930.32,589.03 942.85,581.8 942.85,581.8 C942.85,581.8 942.85,573.27 942.85,573.27 C942.85,573.27 940.22,574.79 940.22,574.79 C940.22,574.79 935.08,571.82 935.08,571.82 C935.08,571.82 930.32,574.56 930.32,574.56z  M1000.02 584.47 C1000.02,584.47 1005.2,587.06 1005.2,587.06 C1005.2,587.06 1017.74,579.82 1017.74,579.82 C1017.74,579.82 1005.21,572.59 1005.21,572.59 C1005.21,572.59 1003.75,573.43 1003.75,573.43 C1003.75,573.43 1003.75,582.31 1003.75,582.31 C1003.75,582.31 1000.02,584.47 1000.02,584.47z  M902.26 579.76 C902.26,579.76 914.8,587 914.8,587 C914.8,587 919.98,584.4 919.98,584.4 C919.98,584.4 916.25,582.24 916.25,582.24 C916.25,582.24 916.25,573.36 916.25,573.36 C916.25,573.36 914.79,572.52 914.79,572.52 C914.79,572.52 902.26,579.76 902.26,579.76z  M985.7 571.43 C985.7,571.43 990.07,573.96 990.07,573.96 C990.07,573.96 1002.59,566.72 1002.59,566.72 C1002.59,566.72 993.47,561.46 993.47,561.46 C993.47,561.46 993.47,566.95 993.47,566.95 C993.47,566.95 985.7,571.43 985.7,571.43z  M917.41 566.66 C917.41,566.66 929.93,573.89 929.93,573.89 C929.93,573.89 934.3,571.37 934.3,571.37 C934.3,571.37 926.53,566.88 926.53,566.88 C926.53,566.88 926.53,561.39 926.53,561.39 C926.53,561.39 917.41,566.66 917.41,566.66z  M980.17 559.27 C980.17,559.27 980.17,573.73 980.17,573.73 C980.17,573.73 992.69,566.5 992.69,566.5 C992.69,566.5 992.69,552.03 992.69,552.03 C992.69,552.03 980.17,559.27 980.17,559.27z  M966.86 566.5 C966.86,566.5 979.39,573.73 979.39,573.73 C979.39,573.73 979.39,559.27 979.39,559.27 C979.39,559.27 975.16,556.83 975.16,556.83 C975.16,556.83 973.13,558 973.13,558 C973.13,558 966.86,554.39 966.86,554.39 C966.86,554.39 966.86,566.5 966.86,566.5z  M940.61 559.2 C940.61,559.2 940.61,573.67 940.61,573.67 C940.61,573.67 953.14,566.44 953.14,566.44 C953.14,566.44 953.14,554.32 953.14,554.32 C953.14,554.32 946.87,557.94 946.87,557.94 C946.87,557.94 944.84,556.76 944.84,556.76 C944.84,556.76 940.61,559.2 940.61,559.2z  M927.31 566.44 C927.31,566.44 939.83,573.67 939.83,573.67 C939.83,573.67 939.83,559.2 939.83,559.2 C939.83,559.2 927.31,551.97 927.31,551.97 C927.31,551.97 927.31,566.44 927.31,566.44z  M975.94 556.38 C975.94,556.38 979.78,558.6 979.78,558.6 C979.78,558.6 992.31,551.36 992.31,551.36 C992.31,551.36 986.82,548.19 986.82,548.19 C986.82,548.19 986.82,550.1 986.82,550.1 C986.82,550.1 975.94,556.38 975.94,556.38z  M927.69 551.3 C927.69,551.3 940.22,558.53 940.22,558.53 C940.22,558.53 944.06,556.31 944.06,556.31 C944.06,556.31 933.18,550.03 933.18,550.03 C933.18,550.03 933.18,548.13 933.18,548.13 C933.18,548.13 927.69,551.3 927.69,551.3z  M960.39 549.75 C960.39,549.75 972.74,556.88 972.74,556.88 C972.74,556.88 972.74,542.42 972.74,542.42 C972.74,542.42 966.44,538.78 966.44,538.78 C966.44,538.78 960.37,542.35 960.37,542.35 C960.37,542.35 960.39,549.75 960.39,549.75z  M973.51 542.42 C973.51,542.42 973.51,556.88 973.51,556.88 C973.51,556.88 986.04,549.65 986.04,549.65 C986.04,549.65 986.04,535.18 986.04,535.18 C986.04,535.18 973.51,542.42 973.51,542.42z  M933.96 549.59 C933.96,549.59 946.49,556.82 946.49,556.82 C946.49,556.82 946.49,542.35 946.49,542.35 C946.49,542.35 933.96,535.12 933.96,535.12 C933.96,535.12 933.96,549.59 933.96,549.59z  M947.26 542.35 C947.26,542.35 947.26,556.82 947.26,556.82 C947.26,556.82 959.61,549.69 959.61,549.69 C959.61,549.69 959.6,542.27 959.6,542.27 C959.6,542.27 953.47,538.77 953.47,538.77 C953.47,538.77 947.26,542.35 947.26,542.35z  M967.2 538.33 C967.2,538.33 973.13,541.75 973.13,541.75 C973.13,541.75 985.65,534.51 985.65,534.51 C985.65,534.51 973.74,527.63 973.74,527.63 C973.74,527.63 973.74,534.48 973.74,534.48 C973.74,534.48 967.2,538.33 967.2,538.33z  M934.35 534.45 C934.35,534.45 946.87,541.68 946.87,541.68 C946.87,541.68 952.69,538.32 952.69,538.32 C952.69,538.32 946.36,534.71 946.36,534.71 C946.36,534.71 946.34,527.52 946.34,527.52 C946.34,527.52 934.35,534.45 934.35,534.45z  M947.13 534.26 C947.13,534.26 959.67,541.42 959.67,541.42 C959.67,541.42 959.64,527.05 959.64,527.05 C959.64,527.05 947.1,519.58 947.1,519.58 C947.1,519.58 947.13,534.26 947.13,534.26z  M960.42 527.05 C960.42,527.05 960.45,541.41 960.45,541.41 C960.45,541.41 972.96,534.04 972.96,534.04 C972.96,534.04 972.97,527.19 972.97,527.19 C972.97,527.19 972.93,527.17 972.93,527.17 C972.93,527.17 972.97,527.11 972.97,527.11 C972.97,527.11 972.97,519.77 972.97,519.77 C972.97,519.77 960.42,527.05 960.42,527.05z  M960.39 511.76 C960.39,511.76 960.42,526.16 960.42,526.16 C960.42,526.16 972.97,518.88 972.97,518.88 C972.97,518.88 972.98,504.46 972.98,504.46 C972.98,504.46 960.39,511.76 960.39,511.76z  M947.1 518.68 C947.1,518.68 959.64,526.15 959.64,526.15 C959.64,526.15 959.61,511.76 959.61,511.76 C959.61,511.76 947.07,504.29 947.07,504.29 C947.07,504.29 947.1,518.68 947.1,518.68z  M960.36 496.56 C960.36,496.56 960.39,510.86 960.39,510.86 C960.39,510.86 972.98,503.56 972.98,503.56 C972.98,503.56 972.98,493.69 972.98,493.69 C972.98,493.69 969.12,491.47 969.12,491.47 C969.12,491.47 960.36,496.56 960.36,496.56z  M947.07 503.39 C947.07,503.39 959.61,510.85 959.61,510.85 C959.61,510.85 959.58,496.56 959.58,496.56 C959.58,496.56 947.04,489.09 947.04,489.09 C947.04,489.09 947.07,503.39 947.07,503.39z  M960.34 486.43 C960.34,486.43 960.35,495.66 960.35,495.66 C960.35,495.66 968.35,491.03 968.35,491.03 C968.35,491.03 960.34,486.43 960.34,486.43z  M947.04 488.19 C947.04,488.19 959.58,495.65 959.58,495.65 C959.58,495.65 959.55,481.26 959.55,481.26 C959.55,481.26 947.01,473.8 947.01,473.8 C947.01,473.8 947.04,488.19 947.04,488.19z  M973.76 489.02 C973.76,489.02 973.77,492.81 973.77,492.81 C973.77,492.81 986.4,485.48 986.4,485.48 C986.4,485.48 986.39,481.7 986.39,481.7 C986.39,481.7 973.76,489.02 973.76,489.02z  M960.33 485.53 C960.33,485.53 972.98,492.8 972.98,492.8 C972.98,492.8 972.99,489.02 972.99,489.02 C972.99,489.02 960.33,481.75 960.33,481.75 C960.33,481.75 960.33,485.53 960.33,485.53z  M960.68 481.06 C960.68,481.06 973.36,488.35 973.36,488.35 C973.36,488.35 986,481.02 986,481.02 C986,481.02 973.34,473.71 973.34,473.71 C973.34,473.71 960.68,481.06 960.68,481.06z  M947.39 473.12 C947.39,473.12 959.94,480.59 959.94,480.59 C959.94,480.59 972.56,473.27 972.56,473.27 C972.56,473.27 959.9,466.06 959.9,466.06 C959.9,466.06 947.39,473.12 947.39,473.12z "/></g></g></g><g id="time_group"/></svg>