<svg xmlns="http://www.w3.org/2000/svg" xmlns:xlink="http://www.w3.org/1999/xlink" preserveAspectRatio="xMidYMid meet" width="390" height="850" viewBox="0 0 390 850" style="width:100%;height:100%"><defs><animate repeatCount="indefinite" dur="3.375s" begin="0s" xlink:href="#_R_G_L_0_G_L_2_G" fill="freeze" attributeName="opacity" from="0" to="1" keyTimes="0;0.382716;0.4322917;1" values="0;0;1;1" keySplines="0.167 0.167 0.833 0.833;0.167 0.167 0.833 0.833;0 0 0 0" calcMode="spline"/><animateTransform repeatCount="indefinite" dur="3.375s" begin="0s" xlink:href="#_R_G_L_0_G_L_2_G" fill="freeze" attributeName="transform" from="1 0" to="1 0" type="scale" additive="sum" keyTimes="0;0.382716;0.4444444;0.5061852;0.5925926;0.691358;1" values="1 0;1 0;1 1.27089;1 1;1 1;1 0;1 0" keySplines="0.167 0 0.667 1;0.167 0 0.667 1;0.333 0 0.667 1;0.333 0 0.667 1;0.333 0 0.667 1;0 0 0 0" calcMode="spline"/><animateTransform repeatCount="indefinite" dur="3.375s" begin="0s" xlink:href="#_R_G_L_0_G_L_2_G" fill="freeze" attributeName="transform" from="-960 -607" to="-960 -607" type="translate" additive="sum" keyTimes="0;1" values="-960 -607;-960 -607" keySplines="0 0 1 1" calcMode="spline"/><animate repeatCount="indefinite" dur="3.375s" begin="0s" xlink:href="#_R_G_L_0_G_L_1_G" fill="freeze" attributeName="opacity" from="0" to="1" keyTimes="0;0.1851852;0.2465278;1" values="0;0;1;1" keySplines="0.167 0.167 0.833 0.833;0.167 0.167 0.833 0.833;0 0 0 0" calcMode="spline"/><animateTransform repeatCount="indefinite" dur="3.375s" begin="0s" xlink:href="#_R_G_L_0_G_L_1_G" fill="freeze" attributeName="transform" from="1 0.00012" to="1 0" type="scale" additive="sum" keyTimes="0;0.1851852;0.2469136;0.308642;0.691358;0.7777778;1" values="1 0.00012;1 0.00012;1 1.27089;1 1;1 1;1 0;1 0" keySplines="0.167 0 0.667 1;0.167 0 0.667 1;0.333 0 0.667 1;0.333 0 0.667 1;0.333 0 0.667 1;0 0 0 0" calcMode="spline"/><animateTransform repeatCount="indefinite" dur="3.375s" begin="0s" xlink:href="#_R_G_L_0_G_L_1_G" fill="freeze" attributeName="transform" from="-960 -607" to="-960 -607" type="translate" additive="sum" keyTimes="0;1" values="-960 -607;-960 -607" keySplines="0 0 1 1" calcMode="spline"/><animate repeatCount="indefinite" dur="3.375s" begin="0s" xlink:href="#_R_G_L_0_G_L_0_G" fill="freeze" attributeName="opacity" from="0" to="1" keyTimes="0;0.0613426;1" values="0;1;1" keySplines="0.167 0.167 0.833 0.833;0 0 0 0" calcMode="spline"/><animateTransform repeatCount="indefinite" dur="3.375s" begin="0s" xlink:href="#_R_G_L_0_G_L_0_G" fill="freeze" attributeName="transform" from="1 0.00012" to="1 0" type="scale" additive="sum" keyTimes="0;0.0617284;0.1234568;0.7777778;0.8641975;1" values="1 0.00012;1 1.27089;1 1;1 1;1 0;1 0" keySplines="0.167 0 0.667 1;0.333 0 0.667 1;0.333 0 0.667 1;0.333 0 0.667 1;0 0 0 0" calcMode="spline"/><animateTransform repeatCount="indefinite" dur="3.375s" begin="0s" xlink:href="#_R_G_L_0_G_L_0_G" fill="freeze" attributeName="transform" from="-960 -607" to="-960 -607" type="translate" additive="sum" keyTimes="0;1" values="-960 -607;-960 -607" keySplines="0 0 1 1" calcMode="spline"/><animate attributeType="XML" attributeName="opacity" dur="3s" from="0" to="1" xlink:href="#time_group"/></defs><g id="_R_G"><g id="_R_G_L_0_G" transform=" translate(195, 425) translate(-960, -540)"><g id="_R_G_L_0_G_L_2_G" transform=" translate(960, 329)"><path id="_R_G_L_0_G_L_2_G_D_0_P_0" fill="#eb0035" fill-opacity="1" fill-rule="nonzero" d=" M1043.21 583.47 C1043.21,579.08 1039.32,574.97 1032.48,571.4 C1027.39,568.41 1020.74,563.03 1013.55,556.58 C1007.65,551.27 1004.06,546.72 1002.51,544.78 C1002.31,544.51 1002.16,544.32 1002.03,544.16 C999.43,541 987.23,523 979.45,499.33 C977.78,494.28 977.13,488.62 976.71,484.88 C976.63,484.05 976.54,483.3 976.45,482.67 C975.71,477.18 975.27,472.31 975.03,467.35 C975.16,467.06 975.25,466.76 975.25,466.43 C975.25,463.15 967.29,461.36 959.81,461.36 C952.34,461.36 944.38,463.15 944.38,466.43 C944.38,466.78 944.47,467.13 944.64,467.43 C944.51,470.43 944.29,473.4 943.99,476.48 C943.97,476.61 943.94,476.72 943.94,476.86 C943.75,478.84 943.51,480.88 943.22,483.02 C943.13,483.63 943.05,484.38 942.96,485.23 C942.52,488.97 941.89,494.63 940.23,499.66 C933.71,519.46 924.12,535.27 919.63,541.78 C919.15,542.28 918.78,542.81 918.52,543.36 C918.15,543.84 917.84,544.23 917.62,544.51 C917.51,544.65 917.34,544.86 917.14,545.1 C915.61,547.05 912.03,551.6 906.1,556.91 C898.91,563.36 892.22,568.65 887.13,571.62 C880.55,575.14 876.79,579.16 876.79,583.47 C876.79,586.75 879,589.9 882.97,592.76 C882.43,593.83 882.14,594.95 882.14,596.08 C882.14,602.45 891.15,608.2 905.6,612.3 C905.6,612.3 906.08,612.74 906.08,612.74 C906.15,612.68 906.23,612.59 906.32,612.5 C910.02,613.53 914.06,614.45 918.39,615.23 C918.39,615.23 918.98,615.69 918.98,615.69 C919.07,615.58 919.13,615.5 919.22,615.39 C930.83,617.46 944.45,618.64 959.01,618.64 C979.97,618.64 999.01,616.17 1012.89,612.17 C1012.89,612.17 1012.98,612.26 1012.98,612.26 C1012.98,612.26 1013.18,612.09 1013.18,612.09 C1027.19,608 1035.89,602.34 1035.89,596.08 C1035.89,595.32 1035.76,594.55 1035.5,593.79 C1040.46,590.64 1043.21,587.14 1043.21,583.47z  M1001.33 544.76 C1001.44,544.91 1001.59,545.1 1001.79,545.35 C1003.34,547.31 1006.97,551.9 1012.94,557.26 C1018.29,562.09 1023.45,566.2 1027.85,569.24 C1018.58,565.41 1005.66,562.37 990.59,560.63 C989.2,558.68 987.86,556.73 986.57,554.81 C995.56,552.54 1001.18,549.13 1001.18,545.26 C1001.18,545 1001.15,544.76 1001.11,544.49 C1001.18,544.6 1001.26,544.69 1001.33,544.76z  M959.51 497.82 C959.62,500.44 959.73,503.04 959.84,505.56 C959.62,505.58 959.4,505.58 959.18,505.56 C959.31,503.02 959.42,500.42 959.51,497.82z  M959.14 506.5 C959.14,506.5 959.88,506.5 959.88,506.5 C960.1,510.7 960.34,514.76 960.6,518.57 C959.86,518.59 959.11,518.59 958.35,518.57 C958.66,514.65 958.92,510.63 959.14,506.5z  M1009.2 583.21 C1005.31,584.52 1000.15,585.72 993.87,586.68 C991.62,583.23 989.46,579.67 987.4,576.02 C993.63,576.74 999.45,577.68 1004.72,578.81 C1006.18,580.3 1007.67,581.77 1009.2,583.21z  M1006.4 579.18 C1009.09,579.8 1011.6,580.45 1013.99,581.17 C1012.94,581.74 1011.67,582.31 1010.18,582.86 C1008.89,581.66 1007.65,580.43 1006.4,579.18z  M992.87 586.84 C990.14,587.23 987.23,587.58 984.12,587.89 C982.31,584.39 980.6,580.83 979.03,577.22 C978.72,576.54 978.42,575.84 978.11,575.14 C980.91,575.34 983.62,575.6 986.27,575.88 C988.36,579.64 990.57,583.29 992.87,586.84z  M913.78 578.73 C919.33,577.55 925.45,576.58 932.01,575.86 C929.93,579.62 927.72,583.27 925.43,586.79 C918.76,585.81 913.27,584.56 909.23,583.16 C910.78,581.72 912.29,580.24 913.78,578.73z  M908.24 582.81 C906.71,582.25 905.42,581.68 904.38,581.07 C906.8,580.37 909.38,579.69 912.11,579.08 C910.85,580.34 909.56,581.59 908.24,582.81z  M933.14 575.73 C935.83,575.47 938.61,575.23 941.43,575.03 C940.97,576.19 940.47,577.33 939.96,578.49 C938.54,581.72 937.06,584.87 935.46,587.97 C932.27,587.69 929.25,587.34 926.43,586.95 C928.77,583.32 931.02,579.58 933.14,575.73z  M957.63 506.56 C957.63,506.56 957.63,506.52 957.63,506.52 C957.83,506.52 958,506.52 958.2,506.5 C957.98,510.63 957.72,514.65 957.43,518.57 C957.08,518.54 956.73,518.54 956.38,518.52 C956.89,514.19 957.28,510.17 957.63,506.56z  M956.71 505.62 C956.75,505.36 956.8,505.12 956.84,504.86 C956.82,505.12 956.8,505.36 956.78,505.62 C956.78,505.62 956.71,505.62 956.71,505.62z  M964.73 559.86 C964.95,561.52 965.21,563.27 965.48,565.09 C963.42,565.04 961.34,565.02 959.27,565.02 C957.3,565.02 955.33,565.04 953.37,565.09 C953.63,563.27 953.87,561.54 954.09,559.88 C957.61,559.82 961.21,559.82 964.73,559.86z  M954.22 558.96 C954.28,558.51 954.35,558.07 954.39,557.63 C957.67,557.74 961.15,557.74 964.43,557.63 C964.49,558.07 964.54,558.51 964.6,558.94 C961.17,558.88 957.65,558.9 954.22,558.96z  M965.37 557.61 C967.18,557.52 968.95,557.41 970.68,557.28 C970.85,557.89 971.05,558.51 971.25,559.12 C969.37,559.05 967.47,558.99 965.54,558.96 C965.48,558.51 965.43,558.05 965.37,557.61z  M965.24 556.67 C964.71,552.52 964.32,548.93 963.97,545.89 C963.66,543.09 963.22,538.94 962.77,533.76 C963.53,533.78 964.3,533.8 965.04,533.82 C966.33,540.89 968.03,548.45 970.4,556.36 C968.71,556.49 966.98,556.6 965.24,556.67z  M962.68 532.82 C962.31,528.86 961.96,524.38 961.61,519.48 C962.02,519.48 962.46,519.46 962.87,519.44 C963.4,523.66 964.03,528.16 964.89,532.88 C964.14,532.86 963.42,532.84 962.68,532.82z  M963.05 546 C963.38,549.02 963.77,552.58 964.32,556.71 C961.08,556.82 957.74,556.8 954.52,556.69 C955.03,552.73 955.4,549.37 955.7,546.64 C956.14,542.66 956.6,538.33 957.04,533.74 C958.63,533.72 960.23,533.72 961.83,533.74 C962.28,538.96 962.74,543.18 963.05,546z  M956.21 532.84 C955.57,532.84 954.94,532.86 954.33,532.88 C955.14,528.14 955.75,523.64 956.27,519.44 C956.62,519.46 956.99,519.46 957.37,519.48 C956.99,524.12 956.6,528.58 956.21,532.84z  M956.12 533.76 C955.66,538.31 955.2,542.59 954.76,546.53 C954.48,549.28 954.09,552.67 953.58,556.65 C952.01,556.58 950.48,556.49 948.97,556.36 C951.27,548.43 952.93,540.86 954.15,533.82 C954.81,533.8 955.46,533.78 956.12,533.76z  M953.47 557.59 C953.41,558.05 953.34,558.51 953.28,558.99 C951.55,559.03 949.82,559.07 948.14,559.16 C948.32,558.53 948.51,557.92 948.69,557.3 C950.24,557.41 951.84,557.52 953.47,557.59z  M953.15 559.9 C952.93,561.57 952.69,563.29 952.43,565.11 C950.31,565.15 948.21,565.24 946.11,565.33 C946.72,563.58 947.29,561.83 947.83,560.08 C949.58,560.01 951.38,559.95 953.15,559.9z  M952.27 566.03 C951.92,568.32 951.53,570.75 951.09,573.28 C951.09,573.41 951.07,573.52 951.05,573.63 C948.27,573.72 945.54,573.85 942.85,574.03 C943.92,571.4 944.88,568.82 945.78,566.27 C947.9,566.16 950.06,566.09 952.27,566.03z  M952.01 573.46 C952.47,570.84 952.86,568.36 953.21,566 C957.28,565.92 961.59,565.92 965.63,566 C965.96,568.17 966.33,570.42 966.72,572.8 C966.77,573.09 966.83,573.35 966.88,573.63 C964.3,573.57 961.67,573.52 959.01,573.52 C956.64,573.52 954.31,573.54 951.99,573.61 C951.99,573.57 952.01,573.5 952.01,573.46z  M966.57 566.05 C969,566.09 971.36,566.18 973.67,566.31 C974.59,568.89 975.6,571.49 976.69,574.11 C973.78,573.92 970.83,573.76 967.82,573.66 C967.77,573.33 967.71,572.98 967.64,572.65 C967.25,570.33 966.9,568.12 966.57,566.05z  M966.42 565.11 C966.15,563.29 965.89,561.54 965.67,559.88 C967.64,559.93 969.61,559.99 971.53,560.06 C972.1,561.83 972.69,563.6 973.32,565.37 C971.05,565.26 968.73,565.17 966.42,565.11z  M971.62 557.22 C973.46,557.04 975.23,556.84 976.93,556.63 C977.33,557.59 977.74,558.55 978.16,559.49 C976.21,559.36 974.22,559.25 972.23,559.16 C972.01,558.51 971.82,557.85 971.62,557.22z  M971.34 556.28 C968.97,548.41 967.27,540.89 966,533.87 C967.03,533.91 968.03,533.98 969.02,534.04 C969.56,535.92 970.13,537.78 970.7,539.62 C972.41,545.06 974.35,550.42 976.54,555.71 C974.85,555.93 973.13,556.12 971.34,556.28z  M965.83 532.93 C965,528.16 964.34,523.64 963.82,519.4 C964.25,519.37 964.67,519.35 965.1,519.31 C966.22,523.92 967.44,528.56 968.73,533.08 C967.79,533.02 966.81,532.97 965.83,532.93z  M963.68 518.48 C963.22,514.7 962.87,511.16 962.55,507.88 C963.25,511.33 964.03,514.85 964.89,518.41 C964.49,518.43 964.1,518.46 963.68,518.48z  M962.77 518.52 C962.35,518.54 961.96,518.54 961.54,518.57 C961.28,514.74 961.04,510.7 960.82,506.5 C961.04,506.52 961.26,506.52 961.48,506.52 C961.83,510.17 962.24,514.19 962.77,518.52z  M961.74 532.8 C960.21,532.78 958.66,532.8 957.15,532.82 C957.54,528.58 957.93,524.12 958.28,519.51 C958.28,519.51 960.67,519.51 960.67,519.51 C961.02,524.38 961.39,528.86 961.74,532.8z  M955.44 518.48 C954.98,518.46 954.55,518.43 954.11,518.41 C955.01,514.43 955.84,510.43 956.54,506.54 C956.54,506.54 956.69,506.54 956.69,506.54 C956.34,510.17 955.95,514.15 955.44,518.48z  M955.33 519.4 C954.83,523.64 954.2,528.16 953.37,532.93 C952.38,532.97 951.4,533.02 950.44,533.08 C951.66,528.64 952.84,523.99 953.91,519.31 C954.37,519.35 954.85,519.37 955.33,519.4z  M953.21 533.87 C951.99,540.89 950.33,548.41 948.03,556.28 C946.2,556.12 944.42,555.93 942.72,555.71 C944.82,550.59 946.7,545.37 948.36,540.1 C948.97,538.15 949.56,536.12 950.15,534.04 C951.16,533.98 952.19,533.91 953.21,533.87z  M947.75 557.22 C947.55,557.87 947.35,558.53 947.14,559.21 C945.1,559.29 943.09,559.4 941.1,559.53 C941.52,558.57 941.93,557.61 942.35,556.63 C944.07,556.87 945.89,557.06 947.75,557.22z  M946.85 560.12 C946.3,561.87 945.71,563.62 945.1,565.39 C942.78,565.5 940.49,565.65 938.22,565.83 C939.07,564.08 939.9,562.29 940.69,560.49 C942.72,560.34 944.77,560.23 946.85,560.12z  M944.77 566.31 C943.88,568.87 942.89,571.47 941.82,574.09 C939.05,574.27 936.31,574.51 933.67,574.77 C935.09,572.15 936.47,569.48 937.78,566.77 C940.03,566.59 942.37,566.44 944.77,566.31z  M940.82 578.86 C941.39,577.57 941.93,576.26 942.48,574.97 C945.21,574.79 948.03,574.66 950.87,574.57 C950.04,579.32 949.12,584.08 948.12,588.8 C944.01,588.63 940.12,588.39 936.47,588.06 C938,585.04 939.44,581.98 940.82,578.86z  M951.84 574.55 C956.84,574.42 962.04,574.42 967.03,574.57 C967.88,579.34 968.8,584.08 969.83,588.83 C966.44,588.93 962.92,589 959.27,589 C955.75,589 952.34,588.96 949.06,588.83 C950.06,584.08 951,579.32 951.84,574.55z  M967.99 574.6 C971.07,574.7 974.11,574.86 977.08,575.08 C977.43,575.91 977.81,576.76 978.18,577.59 C979.71,581.11 981.37,584.56 983.12,587.97 C979.27,588.32 975.14,588.61 970.77,588.78 C969.76,584.08 968.82,579.34 967.99,574.6z  M977.72 574.2 C976.63,571.56 975.62,568.96 974.68,566.35 C977.04,566.48 979.34,566.66 981.54,566.83 C982.9,569.59 984.3,572.28 985.74,574.92 C983.14,574.64 980.45,574.4 977.72,574.2z  M974.33 565.43 C973.7,563.64 973.11,561.87 972.54,560.1 C974.57,560.19 976.58,560.3 978.57,560.43 C979.38,562.27 980.23,564.1 981.11,565.89 C978.88,565.72 976.63,565.57 974.33,565.43z  M977.87 556.49 C980.65,556.1 983.25,555.6 985.61,555.05 C986.81,556.84 988.06,558.66 989.35,560.47 C986.07,560.12 982.68,559.79 979.21,559.55 C978.75,558.55 978.31,557.52 977.87,556.49z  M977.5 555.55 C975.29,550.24 973.3,544.82 971.6,539.33 C971.05,537.63 970.53,535.88 970.02,534.13 C971.42,534.24 972.8,534.37 974.16,534.52 C977.11,540.8 980.69,547.44 985.04,554.18 C982.72,554.7 980.19,555.18 977.5,555.55z  M969.74 533.15 C968.41,528.58 967.18,523.9 966.04,519.24 C966.64,519.2 967.23,519.13 967.79,519.09 C969.39,523.55 971.31,528.4 973.67,533.5 C972.38,533.37 971.07,533.26 969.74,533.15z  M964.89 506.67 C975.62,507.35 982.51,510.02 982.51,512.53 C982.51,514.76 977.11,517.12 968.43,518.11 C966.96,513.89 965.78,510.04 964.89,506.67z  M967.49 518.22 C966.94,518.26 966.39,518.3 965.83,518.35 C964.86,514.37 963.99,510.39 963.22,506.56 C963.47,506.59 963.68,506.59 963.9,506.61 C964.82,510.02 966,513.91 967.49,518.22z  M963.05 505.65 C962.44,502.61 961.91,499.68 961.45,496.88 C961.37,496.05 961.3,495.24 961.21,494.45 C961.43,495.63 961.65,496.81 961.89,497.97 C962.28,500.03 962.87,502.63 963.66,505.67 C963.47,505.67 963.25,505.65 963.05,505.65z  M961.37 505.3 C961.37,505.38 961.39,505.49 961.39,505.58 C961.39,505.58 960.78,505.58 960.78,505.58 C960.62,502.48 960.49,499.28 960.38,496.05 C960.43,496.36 960.49,496.66 960.54,496.97 C960.62,497.8 960.71,498.65 960.8,499.53 C960.97,501.36 961.17,503.29 961.37,505.3z  M959.84 472.75 C968.25,472.79 974.09,474.95 974.09,476.88 C974.09,478.76 968.49,480.86 960.38,481.01 C960.12,478.25 959.95,475.5 959.84,472.75z  M958.24 505.58 C958.24,505.58 957.72,505.58 957.72,505.58 C958.09,501.67 958.37,497.71 958.59,493.75 C958.66,493.4 958.7,493.05 958.74,492.7 C958.63,497.05 958.46,501.36 958.24,505.58z  M957.67 493.69 C957.17,497.45 956.54,501.49 955.77,505.67 C955.44,505.67 955.14,505.69 954.83,505.71 C955.64,502.59 956.23,499.94 956.64,497.84 C957.06,495.74 957.45,493.6 957.78,491.48 C957.76,492.2 957.72,492.95 957.67,493.69z  M955.6 506.59 C954.87,510.46 954.07,514.41 953.17,518.35 C952.43,518.28 951.7,518.22 951.03,518.15 C952.51,513.91 953.67,510.02 954.57,506.63 C954.92,506.63 955.25,506.61 955.6,506.59z  M952.97 519.24 C951.88,523.97 950.7,528.67 949.45,533.15 C947.83,533.28 946.26,533.41 944.75,533.58 C947.14,528.42 949.1,523.53 950.7,519.02 C951.44,519.11 952.21,519.18 952.97,519.24z  M949.17 534.13 C948.62,536.08 948.05,537.98 947.46,539.84 C945.8,545.15 943.9,550.42 941.76,555.58 C938.81,555.14 936.01,554.61 933.49,554 C937.8,547.36 941.34,540.82 944.27,534.61 C945.87,534.41 947.48,534.26 949.17,534.13z  M941.39 556.49 C940.95,557.54 940.51,558.57 940.05,559.62 C936.23,559.9 932.53,560.25 928.95,560.67 C930.32,558.75 931.66,556.8 932.93,554.88 C935.51,555.51 938.33,556.06 941.39,556.49z  M939.64 560.56 C938.83,562.37 938,564.15 937.14,565.92 C932.42,566.33 927.9,566.83 923.74,567.49 C925.32,565.54 926.8,563.6 928.23,561.67 C931.9,561.22 935.7,560.84 939.64,560.56z  M936.71 566.86 C935.37,569.59 933.98,572.26 932.53,574.9 C926.21,575.58 920.25,576.5 914.82,577.63 C916.86,575.51 918.83,573.35 920.73,571.12 C921.45,570.27 922.17,569.41 922.87,568.56 C927,567.88 931.61,567.29 936.71,566.86z  M920.03 570.51 C917.82,573.09 915.55,575.56 913.19,577.98 C909.71,578.73 906.45,579.58 903.46,580.5 C902.01,579.51 901.25,578.49 901.25,577.48 C901.25,574.33 908.7,571.05 921.47,568.8 C920.99,569.37 920.51,569.94 920.03,570.51z  M903.15 581.44 C904.29,582.2 905.73,582.9 907.46,583.56 C902.41,588.21 897.05,592.54 891.43,596.5 C888.57,595.28 886.1,593.94 884.07,592.56 C886.52,588.32 893.34,584.48 903.15,581.44z  M908.42 583.93 C912.68,585.44 918.34,586.68 924.88,587.65 C924.12,588.78 923.35,589.92 922.56,591.03 C919.72,595.14 916.7,599.12 913.54,602.95 C905.29,601.33 898.15,599.28 892.44,596.94 C898.06,592.94 903.39,588.61 908.42,583.93z  M923.33 591.58 C924.2,590.33 925.06,589.07 925.89,587.78 C928.79,588.19 931.85,588.54 935.02,588.85 C932.16,594.34 929.01,599.67 925.54,604.92 C921.71,604.41 918.04,603.82 914.56,603.15 C917.65,599.41 920.57,595.54 923.33,591.58z  M936.01 588.93 C939.86,589.29 943.86,589.53 947.92,589.7 C946.7,595.38 945.34,601.05 943.88,606.64 C937.84,606.29 932.03,605.75 926.56,605.05 C930.02,599.78 933.17,594.44 936.01,588.93z  M948.86 589.74 C955.88,590.01 963.01,590.01 970.02,589.72 C971.25,595.45 972.62,601.11 974.11,606.73 C969.52,606.97 964.82,607.08 960.01,607.08 C954.81,607.08 949.74,606.95 944.82,606.69 C946.28,601.09 947.64,595.43 948.86,589.74z  M970.96 589.68 C975.27,589.5 979.51,589.22 983.58,588.83 C986.48,594.4 989.7,599.82 993.2,605.09 C987.47,605.81 981.39,606.36 975.05,606.69 C973.56,601.07 972.21,595.41 970.96,589.68z  M984.58 588.74 C987.64,588.43 990.62,588.08 993.41,587.67 C994.18,588.83 994.94,589.96 995.73,591.08 C998.64,595.25 1001.72,599.32 1004.98,603.23 C1001.57,603.89 997.96,604.46 994.22,604.94 C990.73,599.69 987.49,594.29 984.58,588.74z  M996.5 590.55 C995.8,589.55 995.12,588.54 994.44,587.51 C1000.56,586.57 1005.94,585.39 1010.01,583.95 C1015.19,588.78 1020.7,593.26 1026.51,597.35 C1020.87,599.58 1013.94,601.51 1006.01,603.04 C1002.66,599.04 999.49,594.86 996.5,590.55z  M1010.97 583.6 C1012.65,582.97 1014.09,582.27 1015.21,581.55 C1025.57,584.8 1032.52,588.96 1034.43,593.53 C1032.46,594.73 1030.14,595.87 1027.54,596.94 C1021.7,592.87 1016.17,588.41 1010.97,583.6z  M1014.9 580.61 C1011.95,579.69 1008.74,578.84 1005.31,578.07 C1002.97,575.69 1000.69,573.2 998.51,570.66 C997.98,570.03 997.44,569.39 996.93,568.78 C1009.77,571.03 1017.29,574.31 1017.29,577.48 C1017.29,578.53 1016.46,579.58 1014.9,580.61z  M997.81 571.25 C999.69,573.48 1001.66,575.62 1003.67,577.72 C998.51,576.65 992.87,575.73 986.88,575.05 C985.39,572.39 983.99,569.68 982.64,566.94 C987.34,567.36 991.67,567.91 995.53,568.54 C996.28,569.43 997.02,570.35 997.81,571.25z  M982.18 565.98 C981.3,564.19 980.45,562.35 979.62,560.52 C983.21,560.76 986.68,561.09 990.07,561.46 C991.51,563.47 993.04,565.48 994.66,567.47 C990.77,566.88 986.57,566.38 982.18,565.98z  M986 553.94 C981.72,547.33 978.18,540.82 975.25,534.63 C989.76,536.43 1000.26,540.56 1000.26,545.26 C1000.26,548.67 994.68,551.82 986,553.94z  M998.42 540.69 C994.25,537.43 985.68,534.85 974.75,533.61 C972.34,528.42 970.37,523.51 968.76,518.98 C976.87,518 983.4,515.75 983.42,512.55 C988.78,525.21 994.77,535.22 998.42,540.69z  M975.53 482.8 C975.62,483.41 975.69,484.16 975.79,484.99 C976.21,488.77 976.87,494.48 978.55,499.61 C979.82,503.48 981.22,507.18 982.66,510.7 C980.3,508.01 972.82,506.26 964.65,505.73 C963.82,502.59 963.22,499.9 962.79,497.8 C961.76,492.57 960.97,487.26 960.45,481.93 C967.14,481.8 973.91,480.27 974.9,477.55 C975.07,479.26 975.29,480.99 975.53,482.8z  M974.72 475.81 C973.22,473.25 966.37,471.85 959.81,471.81 C959.81,471.7 959.81,471.61 959.79,471.5 C959.79,471.5 959.81,471.5 959.81,471.5 C965.63,471.5 971.73,470.43 974.16,468.4 C974.29,470.84 974.46,473.29 974.72,475.81z  M959.81 462.3 C968.36,462.3 974.31,464.48 974.31,466.43 C974.31,466.65 974.24,466.87 974.09,467.08 C974.09,467.08 974.09,467.11 974.09,467.11 C972.91,468.85 967.38,470.56 959.81,470.56 C959.81,470.56 959.77,470.56 959.77,470.56 C959.75,469.42 959.73,468.29 959.73,467.15 C959.73,467.15 959.73,467.02 959.73,467.02 C959.73,467.02 958.81,467.02 958.81,467.02 C958.79,468.2 958.79,469.38 958.74,470.56 C950.79,470.38 945.3,468.31 945.3,466.43 C945.3,464.48 951.27,462.3 959.81,462.3z  M945.52 468.44 C947.83,470.32 953.3,471.37 958.72,471.48 C958.72,471.48 958.72,471.81 958.72,471.81 C953.13,471.89 947.42,472.96 945.06,474.89 C945.28,472.7 945.41,470.58 945.52,468.44z  M944.91 476.64 C945.32,474.8 950.83,472.88 958.68,472.75 C958.57,475.5 958.39,478.25 958.15,480.99 C950.31,480.79 944.93,478.76 944.88,476.9 C944.88,476.81 944.88,476.72 944.91,476.64z  M941.1 499.96 C942.78,494.83 943.44,489.12 943.88,485.34 C943.97,484.48 944.05,483.74 944.14,483.13 C944.34,481.56 944.53,480.03 944.71,478.54 C946.7,480.59 952.36,481.75 958.07,481.93 C957.54,487.22 956.78,492.46 955.73,497.67 C955.31,499.81 954.7,502.54 953.85,505.78 C946.92,506.26 940.58,507.66 937.54,509.73 C938.78,506.61 939.99,503.35 941.1,499.96z  M953.61 506.7 C952.69,510.04 951.53,513.87 950.06,518.04 C941.74,517.01 936.58,514.72 936.58,512.53 C936.58,510.06 943.2,507.44 953.61,506.7z  M935.92 513.65 C937.19,516.18 942.85,518.02 949.76,518.92 C948.12,523.48 946.13,528.47 943.66,533.72 C934.11,534.87 926.41,537.06 922.04,539.84 C925.65,534.28 931,525.08 935.92,513.65z  M919.28 543.86 C919.61,543.42 919.98,542.9 920.4,542.28 C923.63,538.96 932.18,536.16 943.18,534.74 C940.27,540.84 936.77,547.27 932.53,553.76 C924.27,551.64 918.98,548.58 918.98,545.26 C918.98,544.78 919.09,544.32 919.28,543.86z  M906.74 557.61 C912.7,552.23 916.33,547.64 917.89,545.7 C917.95,545.61 917.99,545.52 918.06,545.45 C918.24,549.15 923.55,552.41 931.99,554.64 C930.61,556.69 929.19,558.77 927.68,560.82 C913.54,562.59 901.38,565.48 892.51,569.11 C896.75,566.14 901.62,562.18 906.74,557.61z  M877.73 583.47 C877.73,579.43 881.27,575.62 887.52,572.28 C887.52,572.28 888.4,571.82 888.4,571.82 C897.14,567.42 910.67,563.88 926.96,561.83 C925.49,563.79 923.96,565.74 922.37,567.71 C909.38,569.85 900.31,573.19 900.31,577.48 C900.31,578.68 901.03,579.8 902.34,580.85 C892.75,583.93 885.99,587.8 883.37,592.06 C879.72,589.39 877.73,586.49 877.73,583.47z  M905.93 611.54 C891.83,607.63 883.06,602.14 883.06,596.08 C883.06,595.12 883.28,594.18 883.72,593.26 C885.66,594.58 888,595.84 890.69,597.02 C888.85,598.31 887,599.54 885.12,600.74 C885.12,600.74 885.62,601.53 885.62,601.53 C887.67,600.22 889.69,598.86 891.67,597.46 C897.42,599.89 904.64,602.01 912.9,603.69 C910.65,606.38 908.33,609 905.93,611.54z  M918.78 614.42 C914.54,613.68 910.56,612.81 906.96,611.82 C909.34,609.27 911.68,606.62 913.95,603.91 C917.45,604.59 921.14,605.2 924.99,605.72 C923.02,608.65 920.95,611.56 918.78,614.42z  M919.81 614.6 C921.97,611.71 924.05,608.81 926,605.88 C931.59,606.62 937.49,607.17 943.64,607.54 C942.78,610.75 941.89,613.94 940.97,617.11 C933.41,616.59 926.28,615.74 919.81,614.6z  M959.01 617.73 C953.13,617.73 947.42,617.53 941.91,617.18 C942.85,614.01 943.72,610.8 944.58,607.61 C949.58,607.87 954.74,608.02 960.01,608.02 C964.89,608.02 969.7,607.89 974.35,607.65 C975.2,610.82 976.08,613.99 977,617.11 C971.23,617.51 965.21,617.73 959.01,617.73z  M977.96 617.05 C977.04,613.92 976.14,610.77 975.29,607.61 C981.74,607.26 987.93,606.67 993.76,605.9 C995.69,608.76 997.68,611.58 999.78,614.34 C993.13,615.54 985.79,616.46 977.96,617.05z  M1000.8 614.14 C998.7,611.41 996.72,608.61 994.79,605.77 C998.55,605.27 1002.16,604.65 1005.61,604 C1007.76,606.56 1009.99,609.07 1012.26,611.5 C1008.76,612.48 1004.91,613.38 1000.8,614.14z  M1013.26 611.21 C1010.99,608.81 1008.78,606.34 1006.64,603.78 C1014.62,602.18 1021.62,600.19 1027.28,597.9 C1029.03,599.12 1030.8,600.3 1032.59,601.44 C1029.24,605.18 1022.47,608.54 1013.26,611.21z  M1033.2 600.72 C1031.54,599.67 1029.9,598.6 1028.3,597.48 C1030.69,596.46 1032.83,595.41 1034.69,594.29 C1034.86,594.88 1034.95,595.47 1034.95,596.08 C1034.95,597.68 1034.36,599.23 1033.2,600.72z  M1035.19 593.07 C1033.07,588.43 1026.18,584.26 1016.04,580.98 C1017.44,579.89 1018.2,578.73 1018.2,577.48 C1018.2,573.17 1009.09,569.83 996.04,567.69 C994.38,565.68 992.82,563.64 991.32,561.61 C1021.2,565.15 1042.3,573.61 1042.3,583.47 C1042.3,586.88 1039.76,590.12 1035.19,593.07z "/></g><g id="_R_G_L_0_G_L_1_G" transform=" translate(960, 620)"><path id="_R_G_L_0_G_L_1_G_D_0_P_0" fill="#eb0035" fill-opacity="1" fill-rule="nonzero" d=" M1043.21 583.47 C1043.21,579.08 1039.32,574.97 1032.48,571.4 C1027.39,568.41 1020.74,563.03 1013.55,556.58 C1007.65,551.27 1004.06,546.72 1002.51,544.78 C1002.31,544.51 1002.16,544.32 1002.03,544.16 C999.43,541 987.23,523 979.45,499.33 C977.78,494.28 977.13,488.62 976.71,484.88 C976.63,484.05 976.54,483.3 976.45,482.67 C975.71,477.18 975.27,472.31 975.03,467.35 C975.16,467.06 975.25,466.76 975.25,466.43 C975.25,463.15 967.29,461.36 959.81,461.36 C952.34,461.36 944.38,463.15 944.38,466.43 C944.38,466.78 944.47,467.13 944.64,467.43 C944.51,470.43 944.29,473.4 943.99,476.48 C943.97,476.61 943.94,476.72 943.94,476.86 C943.75,478.84 943.51,480.88 943.22,483.02 C943.13,483.63 943.05,484.38 942.96,485.23 C942.52,488.97 941.89,494.63 940.23,499.66 C933.71,519.46 924.12,535.27 919.63,541.78 C919.15,542.28 918.78,542.81 918.52,543.36 C918.15,543.84 917.84,544.23 917.62,544.51 C917.51,544.65 917.34,544.86 917.14,545.1 C915.61,547.05 912.03,551.6 906.1,556.91 C898.91,563.36 892.22,568.65 887.13,571.62 C880.55,575.14 876.79,579.16 876.79,583.47 C876.79,586.75 879,589.9 882.97,592.76 C882.43,593.83 882.14,594.95 882.14,596.08 C882.14,602.45 891.15,608.2 905.6,612.3 C905.6,612.3 906.08,612.74 906.08,612.74 C906.15,612.68 906.23,612.59 906.32,612.5 C910.02,613.53 914.06,614.45 918.39,615.23 C918.39,615.23 918.98,615.69 918.98,615.69 C919.07,615.58 919.13,615.5 919.22,615.39 C930.83,617.46 944.45,618.64 959.01,618.64 C979.97,618.64 999.01,616.17 1012.89,612.17 C1012.89,612.17 1012.98,612.26 1012.98,612.26 C1012.98,612.26 1013.18,612.09 1013.18,612.09 C1027.19,608 1035.89,602.34 1035.89,596.08 C1035.89,595.32 1035.76,594.55 1035.5,593.79 C1040.46,590.64 1043.21,587.14 1043.21,583.47z  M1001.33 544.76 C1001.44,544.91 1001.59,545.1 1001.79,545.35 C1003.34,547.31 1006.97,551.9 1012.94,557.26 C1018.29,562.09 1023.45,566.2 1027.85,569.24 C1018.58,565.41 1005.66,562.37 990.59,560.63 C989.2,558.68 987.86,556.73 986.57,554.81 C995.56,552.54 1001.18,549.13 1001.18,545.26 C1001.18,545 1001.15,544.76 1001.11,544.49 C1001.18,544.6 1001.26,544.69 1001.33,544.76z  M959.51 497.82 C959.62,500.44 959.73,503.04 959.84,505.56 C959.62,505.58 959.4,505.58 959.18,505.56 C959.31,503.02 959.42,500.42 959.51,497.82z  M959.14 506.5 C959.14,506.5 959.88,506.5 959.88,506.5 C960.1,510.7 960.34,514.76 960.6,518.57 C959.86,518.59 959.11,518.59 958.35,518.57 C958.66,514.65 958.92,510.63 959.14,506.5z  M1009.2 583.21 C1005.31,584.52 1000.15,585.72 993.87,586.68 C991.62,583.23 989.46,579.67 987.4,576.02 C993.63,576.74 999.45,577.68 1004.72,578.81 C1006.18,580.3 1007.67,581.77 1009.2,583.21z  M1006.4 579.18 C1009.09,579.8 1011.6,580.45 1013.99,581.17 C1012.94,581.74 1011.67,582.31 1010.18,582.86 C1008.89,581.66 1007.65,580.43 1006.4,579.18z  M992.87 586.84 C990.14,587.23 987.23,587.58 984.12,587.89 C982.31,584.39 980.6,580.83 979.03,577.22 C978.72,576.54 978.42,575.84 978.11,575.14 C980.91,575.34 983.62,575.6 986.27,575.88 C988.36,579.64 990.57,583.29 992.87,586.84z  M913.78 578.73 C919.33,577.55 925.45,576.58 932.01,575.86 C929.93,579.62 927.72,583.27 925.43,586.79 C918.76,585.81 913.27,584.56 909.23,583.16 C910.78,581.72 912.29,580.24 913.78,578.73z  M908.24 582.81 C906.71,582.25 905.42,581.68 904.38,581.07 C906.8,580.37 909.38,579.69 912.11,579.08 C910.85,580.34 909.56,581.59 908.24,582.81z  M933.14 575.73 C935.83,575.47 938.61,575.23 941.43,575.03 C940.97,576.19 940.47,577.33 939.96,578.49 C938.54,581.72 937.06,584.87 935.46,587.97 C932.27,587.69 929.25,587.34 926.43,586.95 C928.77,583.32 931.02,579.58 933.14,575.73z  M957.63 506.56 C957.63,506.56 957.63,506.52 957.63,506.52 C957.83,506.52 958,506.52 958.2,506.5 C957.98,510.63 957.72,514.65 957.43,518.57 C957.08,518.54 956.73,518.54 956.38,518.52 C956.89,514.19 957.28,510.17 957.63,506.56z  M956.71 505.62 C956.75,505.36 956.8,505.12 956.84,504.86 C956.82,505.12 956.8,505.36 956.78,505.62 C956.78,505.62 956.71,505.62 956.71,505.62z  M964.73 559.86 C964.95,561.52 965.21,563.27 965.48,565.09 C963.42,565.04 961.34,565.02 959.27,565.02 C957.3,565.02 955.33,565.04 953.37,565.09 C953.63,563.27 953.87,561.54 954.09,559.88 C957.61,559.82 961.21,559.82 964.73,559.86z  M954.22 558.96 C954.28,558.51 954.35,558.07 954.39,557.63 C957.67,557.74 961.15,557.74 964.43,557.63 C964.49,558.07 964.54,558.51 964.6,558.94 C961.17,558.88 957.65,558.9 954.22,558.96z  M965.37 557.61 C967.18,557.52 968.95,557.41 970.68,557.28 C970.85,557.89 971.05,558.51 971.25,559.12 C969.37,559.05 967.47,558.99 965.54,558.96 C965.48,558.51 965.43,558.05 965.37,557.61z  M965.24 556.67 C964.71,552.52 964.32,548.93 963.97,545.89 C963.66,543.09 963.22,538.94 962.77,533.76 C963.53,533.78 964.3,533.8 965.04,533.82 C966.33,540.89 968.03,548.45 970.4,556.36 C968.71,556.49 966.98,556.6 965.24,556.67z  M962.68 532.82 C962.31,528.86 961.96,524.38 961.61,519.48 C962.02,519.48 962.46,519.46 962.87,519.44 C963.4,523.66 964.03,528.16 964.89,532.88 C964.14,532.86 963.42,532.84 962.68,532.82z  M963.05 546 C963.38,549.02 963.77,552.58 964.32,556.71 C961.08,556.82 957.74,556.8 954.52,556.69 C955.03,552.73 955.4,549.37 955.7,546.64 C956.14,542.66 956.6,538.33 957.04,533.74 C958.63,533.72 960.23,533.72 961.83,533.74 C962.28,538.96 962.74,543.18 963.05,546z  M956.21 532.84 C955.57,532.84 954.94,532.86 954.33,532.88 C955.14,528.14 955.75,523.64 956.27,519.44 C956.62,519.46 956.99,519.46 957.37,519.48 C956.99,524.12 956.6,528.58 956.21,532.84z  M956.12 533.76 C955.66,538.31 955.2,542.59 954.76,546.53 C954.48,549.28 954.09,552.67 953.58,556.65 C952.01,556.58 950.48,556.49 948.97,556.36 C951.27,548.43 952.93,540.86 954.15,533.82 C954.81,533.8 955.46,533.78 956.12,533.76z  M953.47 557.59 C953.41,558.05 953.34,558.51 953.28,558.99 C951.55,559.03 949.82,559.07 948.14,559.16 C948.32,558.53 948.51,557.92 948.69,557.3 C950.24,557.41 951.84,557.52 953.47,557.59z  M953.15 559.9 C952.93,561.57 952.69,563.29 952.43,565.11 C950.31,565.15 948.21,565.24 946.11,565.33 C946.72,563.58 947.29,561.83 947.83,560.08 C949.58,560.01 951.38,559.95 953.15,559.9z  M952.27 566.03 C951.92,568.32 951.53,570.75 951.09,573.28 C951.09,573.41 951.07,573.52 951.05,573.63 C948.27,573.72 945.54,573.85 942.85,574.03 C943.92,571.4 944.88,568.82 945.78,566.27 C947.9,566.16 950.06,566.09 952.27,566.03z  M952.01 573.46 C952.47,570.84 952.86,568.36 953.21,566 C957.28,565.92 961.59,565.92 965.63,566 C965.96,568.17 966.33,570.42 966.72,572.8 C966.77,573.09 966.83,573.35 966.88,573.63 C964.3,573.57 961.67,573.52 959.01,573.52 C956.64,573.52 954.31,573.54 951.99,573.61 C951.99,573.57 952.01,573.5 952.01,573.46z  M966.57 566.05 C969,566.09 971.36,566.18 973.67,566.31 C974.59,568.89 975.6,571.49 976.69,574.11 C973.78,573.92 970.83,573.76 967.82,573.66 C967.77,573.33 967.71,572.98 967.64,572.65 C967.25,570.33 966.9,568.12 966.57,566.05z  M966.42 565.11 C966.15,563.29 965.89,561.54 965.67,559.88 C967.64,559.93 969.61,559.99 971.53,560.06 C972.1,561.83 972.69,563.6 973.32,565.37 C971.05,565.26 968.73,565.17 966.42,565.11z  M971.62 557.22 C973.46,557.04 975.23,556.84 976.93,556.63 C977.33,557.59 977.74,558.55 978.16,559.49 C976.21,559.36 974.22,559.25 972.23,559.16 C972.01,558.51 971.82,557.85 971.62,557.22z  M971.34 556.28 C968.97,548.41 967.27,540.89 966,533.87 C967.03,533.91 968.03,533.98 969.02,534.04 C969.56,535.92 970.13,537.78 970.7,539.62 C972.41,545.06 974.35,550.42 976.54,555.71 C974.85,555.93 973.13,556.12 971.34,556.28z  M965.83 532.93 C965,528.16 964.34,523.64 963.82,519.4 C964.25,519.37 964.67,519.35 965.1,519.31 C966.22,523.92 967.44,528.56 968.73,533.08 C967.79,533.02 966.81,532.97 965.83,532.93z  M963.68 518.48 C963.22,514.7 962.87,511.16 962.55,507.88 C963.25,511.33 964.03,514.85 964.89,518.41 C964.49,518.43 964.1,518.46 963.68,518.48z  M962.77 518.52 C962.35,518.54 961.96,518.54 961.54,518.57 C961.28,514.74 961.04,510.7 960.82,506.5 C961.04,506.52 961.26,506.52 961.48,506.52 C961.83,510.17 962.24,514.19 962.77,518.52z  M961.74 532.8 C960.21,532.78 958.66,532.8 957.15,532.82 C957.54,528.58 957.93,524.12 958.28,519.51 C958.28,519.51 960.67,519.51 960.67,519.51 C961.02,524.38 961.39,528.86 961.74,532.8z  M955.44 518.48 C954.98,518.46 954.55,518.43 954.11,518.41 C955.01,514.43 955.84,510.43 956.54,506.54 C956.54,506.54 956.69,506.54 956.69,506.54 C956.34,510.17 955.95,514.15 955.44,518.48z  M955.33 519.4 C954.83,523.64 954.2,528.16 953.37,532.93 C952.38,532.97 951.4,533.02 950.44,533.08 C951.66,528.64 952.84,523.99 953.91,519.31 C954.37,519.35 954.85,519.37 955.33,519.4z  M953.21 533.87 C951.99,540.89 950.33,548.41 948.03,556.28 C946.2,556.12 944.42,555.93 942.72,555.71 C944.82,550.59 946.7,545.37 948.36,540.1 C948.97,538.15 949.56,536.12 950.15,534.04 C951.16,533.98 952.19,533.91 953.21,533.87z  M947.75 557.22 C947.55,557.87 947.35,558.53 947.14,559.21 C945.1,559.29 943.09,559.4 941.1,559.53 C941.52,558.57 941.93,557.61 942.35,556.63 C944.07,556.87 945.89,557.06 947.75,557.22z  M946.85 560.12 C946.3,561.87 945.71,563.62 945.1,565.39 C942.78,565.5 940.49,565.65 938.22,565.83 C939.07,564.08 939.9,562.29 940.69,560.49 C942.72,560.34 944.77,560.23 946.85,560.12z  M944.77 566.31 C943.88,568.87 942.89,571.47 941.82,574.09 C939.05,574.27 936.31,574.51 933.67,574.77 C935.09,572.15 936.47,569.48 937.78,566.77 C940.03,566.59 942.37,566.44 944.77,566.31z  M940.82 578.86 C941.39,577.57 941.93,576.26 942.48,574.97 C945.21,574.79 948.03,574.66 950.87,574.57 C950.04,579.32 949.12,584.08 948.12,588.8 C944.01,588.63 940.12,588.39 936.47,588.06 C938,585.04 939.44,581.98 940.82,578.86z  M951.84 574.55 C956.84,574.42 962.04,574.42 967.03,574.57 C967.88,579.34 968.8,584.08 969.83,588.83 C966.44,588.93 962.92,589 959.27,589 C955.75,589 952.34,588.96 949.06,588.83 C950.06,584.08 951,579.32 951.84,574.55z  M967.99 574.6 C971.07,574.7 974.11,574.86 977.08,575.08 C977.43,575.91 977.81,576.76 978.18,577.59 C979.71,581.11 981.37,584.56 983.12,587.97 C979.27,588.32 975.14,588.61 970.77,588.78 C969.76,584.08 968.82,579.34 967.99,574.6z  M977.72 574.2 C976.63,571.56 975.62,568.96 974.68,566.35 C977.04,566.48 979.34,566.66 981.54,566.83 C982.9,569.59 984.3,572.28 985.74,574.92 C983.14,574.64 980.45,574.4 977.72,574.2z  M974.33 565.43 C973.7,563.64 973.11,561.87 972.54,560.1 C974.57,560.19 976.58,560.3 978.57,560.43 C979.38,562.27 980.23,564.1 981.11,565.89 C978.88,565.72 976.63,565.57 974.33,565.43z  M977.87 556.49 C980.65,556.1 983.25,555.6 985.61,555.05 C986.81,556.84 988.06,558.66 989.35,560.47 C986.07,560.12 982.68,559.79 979.21,559.55 C978.75,558.55 978.31,557.52 977.87,556.49z  M977.5 555.55 C975.29,550.24 973.3,544.82 971.6,539.33 C971.05,537.63 970.53,535.88 970.02,534.13 C971.42,534.24 972.8,534.37 974.16,534.52 C977.11,540.8 980.69,547.44 985.04,554.18 C982.72,554.7 980.19,555.18 977.5,555.55z  M969.74 533.15 C968.41,528.58 967.18,523.9 966.04,519.24 C966.64,519.2 967.23,519.13 967.79,519.09 C969.39,523.55 971.31,528.4 973.67,533.5 C972.38,533.37 971.07,533.26 969.74,533.15z  M964.89 506.67 C975.62,507.35 982.51,510.02 982.51,512.53 C982.51,514.76 977.11,517.12 968.43,518.11 C966.96,513.89 965.78,510.04 964.89,506.67z  M967.49 518.22 C966.94,518.26 966.39,518.3 965.83,518.35 C964.86,514.37 963.99,510.39 963.22,506.56 C963.47,506.59 963.68,506.59 963.9,506.61 C964.82,510.02 966,513.91 967.49,518.22z  M963.05 505.65 C962.44,502.61 961.91,499.68 961.45,496.88 C961.37,496.05 961.3,495.24 961.21,494.45 C961.43,495.63 961.65,496.81 961.89,497.97 C962.28,500.03 962.87,502.63 963.66,505.67 C963.47,505.67 963.25,505.65 963.05,505.65z  M961.37 505.3 C961.37,505.38 961.39,505.49 961.39,505.58 C961.39,505.58 960.78,505.58 960.78,505.58 C960.62,502.48 960.49,499.28 960.38,496.05 C960.43,496.36 960.49,496.66 960.54,496.97 C960.62,497.8 960.71,498.65 960.8,499.53 C960.97,501.36 961.17,503.29 961.37,505.3z  M959.84 472.75 C968.25,472.79 974.09,474.95 974.09,476.88 C974.09,478.76 968.49,480.86 960.38,481.01 C960.12,478.25 959.95,475.5 959.84,472.75z  M958.24 505.58 C958.24,505.58 957.72,505.58 957.72,505.58 C958.09,501.67 958.37,497.71 958.59,493.75 C958.66,493.4 958.7,493.05 958.74,492.7 C958.63,497.05 958.46,501.36 958.24,505.58z  M957.67 493.69 C957.17,497.45 956.54,501.49 955.77,505.67 C955.44,505.67 955.14,505.69 954.83,505.71 C955.64,502.59 956.23,499.94 956.64,497.84 C957.06,495.74 957.45,493.6 957.78,491.48 C957.76,492.2 957.72,492.95 957.67,493.69z  M955.6 506.59 C954.87,510.46 954.07,514.41 953.17,518.35 C952.43,518.28 951.7,518.22 951.03,518.15 C952.51,513.91 953.67,510.02 954.57,506.63 C954.92,506.63 955.25,506.61 955.6,506.59z  M952.97 519.24 C951.88,523.97 950.7,528.67 949.45,533.15 C947.83,533.28 946.26,533.41 944.75,533.58 C947.14,528.42 949.1,523.53 950.7,519.02 C951.44,519.11 952.21,519.18 952.97,519.24z  M949.17 534.13 C948.62,536.08 948.05,537.98 947.46,539.84 C945.8,545.15 943.9,550.42 941.76,555.58 C938.81,555.14 936.01,554.61 933.49,554 C937.8,547.36 941.34,540.82 944.27,534.61 C945.87,534.41 947.48,534.26 949.17,534.13z  M941.39 556.49 C940.95,557.54 940.51,558.57 940.05,559.62 C936.23,559.9 932.53,560.25 928.95,560.67 C930.32,558.75 931.66,556.8 932.93,554.88 C935.51,555.51 938.33,556.06 941.39,556.49z  M939.64 560.56 C938.83,562.37 938,564.15 937.14,565.92 C932.42,566.33 927.9,566.83 923.74,567.49 C925.32,565.54 926.8,563.6 928.23,561.67 C931.9,561.22 935.7,560.84 939.64,560.56z  M936.71 566.86 C935.37,569.59 933.98,572.26 932.53,574.9 C926.21,575.58 920.25,576.5 914.82,577.63 C916.86,575.51 918.83,573.35 920.73,571.12 C921.45,570.27 922.17,569.41 922.87,568.56 C927,567.88 931.61,567.29 936.71,566.86z  M920.03 570.51 C917.82,573.09 915.55,575.56 913.19,577.98 C909.71,578.73 906.45,579.58 903.46,580.5 C902.01,579.51 901.25,578.49 901.25,577.48 C901.25,574.33 908.7,571.05 921.47,568.8 C920.99,569.37 920.51,569.94 920.03,570.51z  M903.15 581.44 C904.29,582.2 905.73,582.9 907.46,583.56 C902.41,588.21 897.05,592.54 891.43,596.5 C888.57,595.28 886.1,593.94 884.07,592.56 C886.52,588.32 893.34,584.48 903.15,581.44z  M908.42 583.93 C912.68,585.44 918.34,586.68 924.88,587.65 C924.12,588.78 923.35,589.92 922.56,591.03 C919.72,595.14 916.7,599.12 913.54,602.95 C905.29,601.33 898.15,599.28 892.44,596.94 C898.06,592.94 903.39,588.61 908.42,583.93z  M923.33 591.58 C924.2,590.33 925.06,589.07 925.89,587.78 C928.79,588.19 931.85,588.54 935.02,588.85 C932.16,594.34 929.01,599.67 925.54,604.92 C921.71,604.41 918.04,603.82 914.56,603.15 C917.65,599.41 920.57,595.54 923.33,591.58z  M936.01 588.93 C939.86,589.29 943.86,589.53 947.92,589.7 C946.7,595.38 945.34,601.05 943.88,606.64 C937.84,606.29 932.03,605.75 926.56,605.05 C930.02,599.78 933.17,594.44 936.01,588.93z  M948.86 589.74 C955.88,590.01 963.01,590.01 970.02,589.72 C971.25,595.45 972.62,601.11 974.11,606.73 C969.52,606.97 964.82,607.08 960.01,607.08 C954.81,607.08 949.74,606.95 944.82,606.69 C946.28,601.09 947.64,595.43 948.86,589.74z  M970.96 589.68 C975.27,589.5 979.51,589.22 983.58,588.83 C986.48,594.4 989.7,599.82 993.2,605.09 C987.47,605.81 981.39,606.36 975.05,606.69 C973.56,601.07 972.21,595.41 970.96,589.68z  M984.58 588.74 C987.64,588.43 990.62,588.08 993.41,587.67 C994.18,588.83 994.94,589.96 995.73,591.08 C998.64,595.25 1001.72,599.32 1004.98,603.23 C1001.57,603.89 997.96,604.46 994.22,604.94 C990.73,599.69 987.49,594.29 984.58,588.74z  M996.5 590.55 C995.8,589.55 995.12,588.54 994.44,587.51 C1000.56,586.57 1005.94,585.39 1010.01,583.95 C1015.19,588.78 1020.7,593.26 1026.51,597.35 C1020.87,599.58 1013.94,601.51 1006.01,603.04 C1002.66,599.04 999.49,594.86 996.5,590.55z  M1010.97 583.6 C1012.65,582.97 1014.09,582.27 1015.21,581.55 C1025.57,584.8 1032.52,588.96 1034.43,593.53 C1032.46,594.73 1030.14,595.87 1027.54,596.94 C1021.7,592.87 1016.17,588.41 1010.97,583.6z  M1014.9 580.61 C1011.95,579.69 1008.74,578.84 1005.31,578.07 C1002.97,575.69 1000.69,573.2 998.51,570.66 C997.98,570.03 997.44,569.39 996.93,568.78 C1009.77,571.03 1017.29,574.31 1017.29,577.48 C1017.29,578.53 1016.46,579.58 1014.9,580.61z  M997.81 571.25 C999.69,573.48 1001.66,575.62 1003.67,577.72 C998.51,576.65 992.87,575.73 986.88,575.05 C985.39,572.39 983.99,569.68 982.64,566.94 C987.34,567.36 991.67,567.91 995.53,568.54 C996.28,569.43 997.02,570.35 997.81,571.25z  M982.18 565.98 C981.3,564.19 980.45,562.35 979.62,560.52 C983.21,560.76 986.68,561.09 990.07,561.46 C991.51,563.47 993.04,565.48 994.66,567.47 C990.77,566.88 986.57,566.38 982.18,565.98z  M986 553.94 C981.72,547.33 978.18,540.82 975.25,534.63 C989.76,536.43 1000.26,540.56 1000.26,545.26 C1000.26,548.67 994.68,551.82 986,553.94z  M998.42 540.69 C994.25,537.43 985.68,534.85 974.75,533.61 C972.34,528.42 970.37,523.51 968.76,518.98 C976.87,518 983.4,515.75 983.42,512.55 C988.78,525.21 994.77,535.22 998.42,540.69z  M975.53 482.8 C975.62,483.41 975.69,484.16 975.79,484.99 C976.21,488.77 976.87,494.48 978.55,499.61 C979.82,503.48 981.22,507.18 982.66,510.7 C980.3,508.01 972.82,506.26 964.65,505.73 C963.82,502.59 963.22,499.9 962.79,497.8 C961.76,492.57 960.97,487.26 960.45,481.93 C967.14,481.8 973.91,480.27 974.9,477.55 C975.07,479.26 975.29,480.99 975.53,482.8z  M974.72 475.81 C973.22,473.25 966.37,471.85 959.81,471.81 C959.81,471.7 959.81,471.61 959.79,471.5 C959.79,471.5 959.81,471.5 959.81,471.5 C965.63,471.5 971.73,470.43 974.16,468.4 C974.29,470.84 974.46,473.29 974.72,475.81z  M959.81 462.3 C968.36,462.3 974.31,464.48 974.31,466.43 C974.31,466.65 974.24,466.87 974.09,467.08 C974.09,467.08 974.09,467.11 974.09,467.11 C972.91,468.85 967.38,470.56 959.81,470.56 C959.81,470.56 959.77,470.56 959.77,470.56 C959.75,469.42 959.73,468.29 959.73,467.15 C959.73,467.15 959.73,467.02 959.73,467.02 C959.73,467.02 958.81,467.02 958.81,467.02 C958.79,468.2 958.79,469.38 958.74,470.56 C950.79,470.38 945.3,468.31 945.3,466.43 C945.3,464.48 951.27,462.3 959.81,462.3z  M945.52 468.44 C947.83,470.32 953.3,471.37 958.72,471.48 C958.72,471.48 958.72,471.81 958.72,471.81 C953.13,471.89 947.42,472.96 945.06,474.89 C945.28,472.7 945.41,470.58 945.52,468.44z  M944.91 476.64 C945.32,474.8 950.83,472.88 958.68,472.75 C958.57,475.5 958.39,478.25 958.15,480.99 C950.31,480.79 944.93,478.76 944.88,476.9 C944.88,476.81 944.88,476.72 944.91,476.64z  M941.1 499.96 C942.78,494.83 943.44,489.12 943.88,485.34 C943.97,484.48 944.05,483.74 944.14,483.13 C944.34,481.56 944.53,480.03 944.71,478.54 C946.7,480.59 952.36,481.75 958.07,481.93 C957.54,487.22 956.78,492.46 955.73,497.67 C955.31,499.81 954.7,502.54 953.85,505.78 C946.92,506.26 940.58,507.66 937.54,509.73 C938.78,506.61 939.99,503.35 941.1,499.96z  M953.61 506.7 C952.69,510.04 951.53,513.87 950.06,518.04 C941.74,517.01 936.58,514.72 936.58,512.53 C936.58,510.06 943.2,507.44 953.61,506.7z  M935.92 513.65 C937.19,516.18 942.85,518.02 949.76,518.92 C948.12,523.48 946.13,528.47 943.66,533.72 C934.11,534.87 926.41,537.06 922.04,539.84 C925.65,534.28 931,525.08 935.92,513.65z  M919.28 543.86 C919.61,543.42 919.98,542.9 920.4,542.28 C923.63,538.96 932.18,536.16 943.18,534.74 C940.27,540.84 936.77,547.27 932.53,553.76 C924.27,551.64 918.98,548.58 918.98,545.26 C918.98,544.78 919.09,544.32 919.28,543.86z  M906.74 557.61 C912.7,552.23 916.33,547.64 917.89,545.7 C917.95,545.61 917.99,545.52 918.06,545.45 C918.24,549.15 923.55,552.41 931.99,554.64 C930.61,556.69 929.19,558.77 927.68,560.82 C913.54,562.59 901.38,565.48 892.51,569.11 C896.75,566.14 901.62,562.18 906.74,557.61z  M877.73 583.47 C877.73,579.43 881.27,575.62 887.52,572.28 C887.52,572.28 888.4,571.82 888.4,571.82 C897.14,567.42 910.67,563.88 926.96,561.83 C925.49,563.79 923.96,565.74 922.37,567.71 C909.38,569.85 900.31,573.19 900.31,577.48 C900.31,578.68 901.03,579.8 902.34,580.85 C892.75,583.93 885.99,587.8 883.37,592.06 C879.72,589.39 877.73,586.49 877.73,583.47z  M905.93 611.54 C891.83,607.63 883.06,602.14 883.06,596.08 C883.06,595.12 883.28,594.18 883.72,593.26 C885.66,594.58 888,595.84 890.69,597.02 C888.85,598.31 887,599.54 885.12,600.74 C885.12,600.74 885.62,601.53 885.62,601.53 C887.67,600.22 889.69,598.86 891.67,597.46 C897.42,599.89 904.64,602.01 912.9,603.69 C910.65,606.38 908.33,609 905.93,611.54z  M918.78 614.42 C914.54,613.68 910.56,612.81 906.96,611.82 C909.34,609.27 911.68,606.62 913.95,603.91 C917.45,604.59 921.14,605.2 924.99,605.72 C923.02,608.65 920.95,611.56 918.78,614.42z  M919.81 614.6 C921.97,611.71 924.05,608.81 926,605.88 C931.59,606.62 937.49,607.17 943.64,607.54 C942.78,610.75 941.89,613.94 940.97,617.11 C933.41,616.59 926.28,615.74 919.81,614.6z  M959.01 617.73 C953.13,617.73 947.42,617.53 941.91,617.18 C942.85,614.01 943.72,610.8 944.58,607.61 C949.58,607.87 954.74,608.02 960.01,608.02 C964.89,608.02 969.7,607.89 974.35,607.65 C975.2,610.82 976.08,613.99 977,617.11 C971.23,617.51 965.21,617.73 959.01,617.73z  M977.96 617.05 C977.04,613.92 976.14,610.77 975.29,607.61 C981.74,607.26 987.93,606.67 993.76,605.9 C995.69,608.76 997.68,611.58 999.78,614.34 C993.13,615.54 985.79,616.46 977.96,617.05z  M1000.8 614.14 C998.7,611.41 996.72,608.61 994.79,605.77 C998.55,605.27 1002.16,604.65 1005.61,604 C1007.76,606.56 1009.99,609.07 1012.26,611.5 C1008.76,612.48 1004.91,613.38 1000.8,614.14z  M1013.26 611.21 C1010.99,608.81 1008.78,606.34 1006.64,603.78 C1014.62,602.18 1021.62,600.19 1027.28,597.9 C1029.03,599.12 1030.8,600.3 1032.59,601.44 C1029.24,605.18 1022.47,608.54 1013.26,611.21z  M1033.2 600.72 C1031.54,599.67 1029.9,598.6 1028.3,597.48 C1030.69,596.46 1032.83,595.41 1034.69,594.29 C1034.86,594.88 1034.95,595.47 1034.95,596.08 C1034.95,597.68 1034.36,599.23 1033.2,600.72z  M1035.19 593.07 C1033.07,588.43 1026.18,584.26 1016.04,580.98 C1017.44,579.89 1018.2,578.73 1018.2,577.48 C1018.2,573.17 1009.09,569.83 996.04,567.69 C994.38,565.68 992.82,563.64 991.32,561.61 C1021.2,565.15 1042.3,573.61 1042.3,583.47 C1042.3,586.88 1039.76,590.12 1035.19,593.07z "/></g><g id="_R_G_L_0_G_L_0_G" transform=" translate(960, 917)"><path id="_R_G_L_0_G_L_0_G_D_0_P_0" fill="#eb0035" fill-opacity="1" fill-rule="nonzero" d=" M1043.21 583.47 C1043.21,579.08 1039.32,574.97 1032.48,571.4 C1027.39,568.41 1020.74,563.03 1013.55,556.58 C1007.65,551.27 1004.06,546.72 1002.51,544.78 C1002.31,544.51 1002.16,544.32 1002.03,544.16 C999.43,541 987.23,523 979.45,499.33 C977.78,494.28 977.13,488.62 976.71,484.88 C976.63,484.05 976.54,483.3 976.45,482.67 C975.71,477.18 975.27,472.31 975.03,467.35 C975.16,467.06 975.25,466.76 975.25,466.43 C975.25,463.15 967.29,461.36 959.81,461.36 C952.34,461.36 944.38,463.15 944.38,466.43 C944.38,466.78 944.47,467.13 944.64,467.43 C944.51,470.43 944.29,473.4 943.99,476.48 C943.97,476.61 943.94,476.72 943.94,476.86 C943.75,478.84 943.51,480.88 943.22,483.02 C943.13,483.63 943.05,484.38 942.96,485.23 C942.52,488.97 941.89,494.63 940.23,499.66 C933.71,519.46 924.12,535.27 919.63,541.78 C919.15,542.28 918.78,542.81 918.52,543.36 C918.15,543.84 917.84,544.23 917.62,544.51 C917.51,544.65 917.34,544.86 917.14,545.1 C915.61,547.05 912.03,551.6 906.1,556.91 C898.91,563.36 892.22,568.65 887.13,571.62 C880.55,575.14 876.79,579.16 876.79,583.47 C876.79,586.75 879,589.9 882.97,592.76 C882.43,593.83 882.14,594.95 882.14,596.08 C882.14,602.45 891.15,608.2 905.6,612.3 C905.6,612.3 906.08,612.74 906.08,612.74 C906.15,612.68 906.23,612.59 906.32,612.5 C910.02,613.53 914.06,614.45 918.39,615.23 C918.39,615.23 918.98,615.69 918.98,615.69 C919.07,615.58 919.13,615.5 919.22,615.39 C930.83,617.46 944.45,618.64 959.01,618.64 C979.97,618.64 999.01,616.17 1012.89,612.17 C1012.89,612.17 1012.98,612.26 1012.98,612.26 C1012.98,612.26 1013.18,612.09 1013.18,612.09 C1027.19,608 1035.89,602.34 1035.89,596.08 C1035.89,595.32 1035.76,594.55 1035.5,593.79 C1040.46,590.64 1043.21,587.14 1043.21,583.47z  M1001.33 544.76 C1001.44,544.91 1001.59,545.1 1001.79,545.35 C1003.34,547.31 1006.97,551.9 1012.94,557.26 C1018.29,562.09 1023.45,566.2 1027.85,569.24 C1018.58,565.41 1005.66,562.37 990.59,560.63 C989.2,558.68 987.86,556.73 986.57,554.81 C995.56,552.54 1001.18,549.13 1001.18,545.26 C1001.18,545 1001.15,544.76 1001.11,544.49 C1001.18,544.6 1001.26,544.69 1001.33,544.76z  M959.51 497.82 C959.62,500.44 959.73,503.04 959.84,505.56 C959.62,505.58 959.4,505.58 959.18,505.56 C959.31,503.02 959.42,500.42 959.51,497.82z  M959.14 506.5 C959.14,506.5 959.88,506.5 959.88,506.5 C960.1,510.7 960.34,514.76 960.6,518.57 C959.86,518.59 959.11,518.59 958.35,518.57 C958.66,514.65 958.92,510.63 959.14,506.5z  M1009.2 583.21 C1005.31,584.52 1000.15,585.72 993.87,586.68 C991.62,583.23 989.46,579.67 987.4,576.02 C993.63,576.74 999.45,577.68 1004.72,578.81 C1006.18,580.3 1007.67,581.77 1009.2,583.21z  M1006.4 579.18 C1009.09,579.8 1011.6,580.45 1013.99,581.17 C1012.94,581.74 1011.67,582.31 1010.18,582.86 C1008.89,581.66 1007.65,580.43 1006.4,579.18z  M992.87 586.84 C990.14,587.23 987.23,587.58 984.12,587.89 C982.31,584.39 980.6,580.83 979.03,577.22 C978.72,576.54 978.42,575.84 978.11,575.14 C980.91,575.34 983.62,575.6 986.27,575.88 C988.36,579.64 990.57,583.29 992.87,586.84z  M913.78 578.73 C919.33,577.55 925.45,576.58 932.01,575.86 C929.93,579.62 927.72,583.27 925.43,586.79 C918.76,585.81 913.27,584.56 909.23,583.16 C910.78,581.72 912.29,580.24 913.78,578.73z  M908.24 582.81 C906.71,582.25 905.42,581.68 904.38,581.07 C906.8,580.37 909.38,579.69 912.11,579.08 C910.85,580.34 909.56,581.59 908.24,582.81z  M933.14 575.73 C935.83,575.47 938.61,575.23 941.43,575.03 C940.97,576.19 940.47,577.33 939.96,578.49 C938.54,581.72 937.06,584.87 935.46,587.97 C932.27,587.69 929.25,587.34 926.43,586.95 C928.77,583.32 931.02,579.58 933.14,575.73z  M957.63 506.56 C957.63,506.56 957.63,506.52 957.63,506.52 C957.83,506.52 958,506.52 958.2,506.5 C957.98,510.63 957.72,514.65 957.43,518.57 C957.08,518.54 956.73,518.54 956.38,518.52 C956.89,514.19 957.28,510.17 957.63,506.56z  M956.71 505.62 C956.75,505.36 956.8,505.12 956.84,504.86 C956.82,505.12 956.8,505.36 956.78,505.62 C956.78,505.62 956.71,505.62 956.71,505.62z  M964.73 559.86 C964.95,561.52 965.21,563.27 965.48,565.09 C963.42,565.04 961.34,565.02 959.27,565.02 C957.3,565.02 955.33,565.04 953.37,565.09 C953.63,563.27 953.87,561.54 954.09,559.88 C957.61,559.82 961.21,559.82 964.73,559.86z  M954.22 558.96 C954.28,558.51 954.35,558.07 954.39,557.63 C957.67,557.74 961.15,557.74 964.43,557.63 C964.49,558.07 964.54,558.51 964.6,558.94 C961.17,558.88 957.65,558.9 954.22,558.96z  M965.37 557.61 C967.18,557.52 968.95,557.41 970.68,557.28 C970.85,557.89 971.05,558.51 971.25,559.12 C969.37,559.05 967.47,558.99 965.54,558.96 C965.48,558.51 965.43,558.05 965.37,557.61z  M965.24 556.67 C964.71,552.52 964.32,548.93 963.97,545.89 C963.66,543.09 963.22,538.94 962.77,533.76 C963.53,533.78 964.3,533.8 965.04,533.82 C966.33,540.89 968.03,548.45 970.4,556.36 C968.71,556.49 966.98,556.6 965.24,556.67z  M962.68 532.82 C962.31,528.86 961.96,524.38 961.61,519.48 C962.02,519.48 962.46,519.46 962.87,519.44 C963.4,523.66 964.03,528.16 964.89,532.88 C964.14,532.86 963.42,532.84 962.68,532.82z  M963.05 546 C963.38,549.02 963.77,552.58 964.32,556.71 C961.08,556.82 957.74,556.8 954.52,556.69 C955.03,552.73 955.4,549.37 955.7,546.64 C956.14,542.66 956.6,538.33 957.04,533.74 C958.63,533.72 960.23,533.72 961.83,533.74 C962.28,538.96 962.74,543.18 963.05,546z  M956.21 532.84 C955.57,532.84 954.94,532.86 954.33,532.88 C955.14,528.14 955.75,523.64 956.27,519.44 C956.62,519.46 956.99,519.46 957.37,519.48 C956.99,524.12 956.6,528.58 956.21,532.84z  M956.12 533.76 C955.66,538.31 955.2,542.59 954.76,546.53 C954.48,549.28 954.09,552.67 953.58,556.65 C952.01,556.58 950.48,556.49 948.97,556.36 C951.27,548.43 952.93,540.86 954.15,533.82 C954.81,533.8 955.46,533.78 956.12,533.76z  M953.47 557.59 C953.41,558.05 953.34,558.51 953.28,558.99 C951.55,559.03 949.82,559.07 948.14,559.16 C948.32,558.53 948.51,557.92 948.69,557.3 C950.24,557.41 951.84,557.52 953.47,557.59z  M953.15 559.9 C952.93,561.57 952.69,563.29 952.43,565.11 C950.31,565.15 948.21,565.24 946.11,565.33 C946.72,563.58 947.29,561.83 947.83,560.08 C949.58,560.01 951.38,559.95 953.15,559.9z  M952.27 566.03 C951.92,568.32 951.53,570.75 951.09,573.28 C951.09,573.41 951.07,573.52 951.05,573.63 C948.27,573.72 945.54,573.85 942.85,574.03 C943.92,571.4 944.88,568.82 945.78,566.27 C947.9,566.16 950.06,566.09 952.27,566.03z  M952.01 573.46 C952.47,570.84 952.86,568.36 953.21,566 C957.28,565.92 961.59,565.92 965.63,566 C965.96,568.17 966.33,570.42 966.72,572.8 C966.77,573.09 966.83,573.35 966.88,573.63 C964.3,573.57 961.67,573.52 959.01,573.52 C956.64,573.52 954.31,573.54 951.99,573.61 C951.99,573.57 952.01,573.5 952.01,573.46z  M966.57 566.05 C969,566.09 971.36,566.18 973.67,566.31 C974.59,568.89 975.6,571.49 976.69,574.11 C973.78,573.92 970.83,573.76 967.82,573.66 C967.77,573.33 967.71,572.98 967.64,572.65 C967.25,570.33 966.9,568.12 966.57,566.05z  M966.42 565.11 C966.15,563.29 965.89,561.54 965.67,559.88 C967.64,559.93 969.61,559.99 971.53,560.06 C972.1,561.83 972.69,563.6 973.32,565.37 C971.05,565.26 968.73,565.17 966.42,565.11z  M971.62 557.22 C973.46,557.04 975.23,556.84 976.93,556.63 C977.33,557.59 977.74,558.55 978.16,559.49 C976.21,559.36 974.22,559.25 972.23,559.16 C972.01,558.51 971.82,557.85 971.62,557.22z  M971.34 556.28 C968.97,548.41 967.27,540.89 966,533.87 C967.03,533.91 968.03,533.98 969.02,534.04 C969.56,535.92 970.13,537.78 970.7,539.62 C972.41,545.06 974.35,550.42 976.54,555.71 C974.85,555.93 973.13,556.12 971.34,556.28z  M965.83 532.93 C965,528.16 964.34,523.64 963.82,519.4 C964.25,519.37 964.67,519.35 965.1,519.31 C966.22,523.92 967.44,528.56 968.73,533.08 C967.79,533.02 966.81,532.97 965.83,532.93z  M963.68 518.48 C963.22,514.7 962.87,511.16 962.55,507.88 C963.25,511.33 964.03,514.85 964.89,518.41 C964.49,518.43 964.1,518.46 963.68,518.48z  M962.77 518.52 C962.35,518.54 961.96,518.54 961.54,518.57 C961.28,514.74 961.04,510.7 960.82,506.5 C961.04,506.52 961.26,506.52 961.48,506.52 C961.83,510.17 962.24,514.19 962.77,518.52z  M961.74 532.8 C960.21,532.78 958.66,532.8 957.15,532.82 C957.54,528.58 957.93,524.12 958.28,519.51 C958.28,519.51 960.67,519.51 960.67,519.51 C961.02,524.38 961.39,528.86 961.74,532.8z  M955.44 518.48 C954.98,518.46 954.55,518.43 954.11,518.41 C955.01,514.43 955.84,510.43 956.54,506.54 C956.54,506.54 956.69,506.54 956.69,506.54 C956.34,510.17 955.95,514.15 955.44,518.48z  M955.33 519.4 C954.83,523.64 954.2,528.16 953.37,532.93 C952.38,532.97 951.4,533.02 950.44,533.08 C951.66,528.64 952.84,523.99 953.91,519.31 C954.37,519.35 954.85,519.37 955.33,519.4z  M953.21 533.87 C951.99,540.89 950.33,548.41 948.03,556.28 C946.2,556.12 944.42,555.93 942.72,555.71 C944.82,550.59 946.7,545.37 948.36,540.1 C948.97,538.15 949.56,536.12 950.15,534.04 C951.16,533.98 952.19,533.91 953.21,533.87z  M947.75 557.22 C947.55,557.87 947.35,558.53 947.14,559.21 C945.1,559.29 943.09,559.4 941.1,559.53 C941.52,558.57 941.93,557.61 942.35,556.63 C944.07,556.87 945.89,557.06 947.75,557.22z  M946.85 560.12 C946.3,561.87 945.71,563.62 945.1,565.39 C942.78,565.5 940.49,565.65 938.22,565.83 C939.07,564.08 939.9,562.29 940.69,560.49 C942.72,560.34 944.77,560.23 946.85,560.12z  M944.77 566.31 C943.88,568.87 942.89,571.47 941.82,574.09 C939.05,574.27 936.31,574.51 933.67,574.77 C935.09,572.15 936.47,569.48 937.78,566.77 C940.03,566.59 942.37,566.44 944.77,566.31z  M940.82 578.86 C941.39,577.57 941.93,576.26 942.48,574.97 C945.21,574.79 948.03,574.66 950.87,574.57 C950.04,579.32 949.12,584.08 948.12,588.8 C944.01,588.63 940.12,588.39 936.47,588.06 C938,585.04 939.44,581.98 940.82,578.86z  M951.84 574.55 C956.84,574.42 962.04,574.42 967.03,574.57 C967.88,579.34 968.8,584.08 969.83,588.83 C966.44,588.93 962.92,589 959.27,589 C955.75,589 952.34,588.96 949.06,588.83 C950.06,584.08 951,579.32 951.84,574.55z  M967.99 574.6 C971.07,574.7 974.11,574.86 977.08,575.08 C977.43,575.91 977.81,576.76 978.18,577.59 C979.71,581.11 981.37,584.56 983.12,587.97 C979.27,588.32 975.14,588.61 970.77,588.78 C969.76,584.08 968.82,579.34 967.99,574.6z  M977.72 574.2 C976.63,571.56 975.62,568.96 974.68,566.35 C977.04,566.48 979.34,566.66 981.54,566.83 C982.9,569.59 984.3,572.28 985.74,574.92 C983.14,574.64 980.45,574.4 977.72,574.2z  M974.33 565.43 C973.7,563.64 973.11,561.87 972.54,560.1 C974.57,560.19 976.58,560.3 978.57,560.43 C979.38,562.27 980.23,564.1 981.11,565.89 C978.88,565.72 976.63,565.57 974.33,565.43z  M977.87 556.49 C980.65,556.1 983.25,555.6 985.61,555.05 C986.81,556.84 988.06,558.66 989.35,560.47 C986.07,560.12 982.68,559.79 979.21,559.55 C978.75,558.55 978.31,557.52 977.87,556.49z  M977.5 555.55 C975.29,550.24 973.3,544.82 971.6,539.33 C971.05,537.63 970.53,535.88 970.02,534.13 C971.42,534.24 972.8,534.37 974.16,534.52 C977.11,540.8 980.69,547.44 985.04,554.18 C982.72,554.7 980.19,555.18 977.5,555.55z  M969.74 533.15 C968.41,528.58 967.18,523.9 966.04,519.24 C966.64,519.2 967.23,519.13 967.79,519.09 C969.39,523.55 971.31,528.4 973.67,533.5 C972.38,533.37 971.07,533.26 969.74,533.15z  M964.89 506.67 C975.62,507.35 982.51,510.02 982.51,512.53 C982.51,514.76 977.11,517.12 968.43,518.11 C966.96,513.89 965.78,510.04 964.89,506.67z  M967.49 518.22 C966.94,518.26 966.39,518.3 965.83,518.35 C964.86,514.37 963.99,510.39 963.22,506.56 C963.47,506.59 963.68,506.59 963.9,506.61 C964.82,510.02 966,513.91 967.49,518.22z  M963.05 505.65 C962.44,502.61 961.91,499.68 961.45,496.88 C961.37,496.05 961.3,495.24 961.21,494.45 C961.43,495.63 961.65,496.81 961.89,497.97 C962.28,500.03 962.87,502.63 963.66,505.67 C963.47,505.67 963.25,505.65 963.05,505.65z  M961.37 505.3 C961.37,505.38 961.39,505.49 961.39,505.58 C961.39,505.58 960.78,505.58 960.78,505.58 C960.62,502.48 960.49,499.28 960.38,496.05 C960.43,496.36 960.49,496.66 960.54,496.97 C960.62,497.8 960.71,498.65 960.8,499.53 C960.97,501.36 961.17,503.29 961.37,505.3z  M959.84 472.75 C968.25,472.79 974.09,474.95 974.09,476.88 C974.09,478.76 968.49,480.86 960.38,481.01 C960.12,478.25 959.95,475.5 959.84,472.75z  M958.24 505.58 C958.24,505.58 957.72,505.58 957.72,505.58 C958.09,501.67 958.37,497.71 958.59,493.75 C958.66,493.4 958.7,493.05 958.74,492.7 C958.63,497.05 958.46,501.36 958.24,505.58z  M957.67 493.69 C957.17,497.45 956.54,501.49 955.77,505.67 C955.44,505.67 955.14,505.69 954.83,505.71 C955.64,502.59 956.23,499.94 956.64,497.84 C957.06,495.74 957.45,493.6 957.78,491.48 C957.76,492.2 957.72,492.95 957.67,493.69z  M955.6 506.59 C954.87,510.46 954.07,514.41 953.17,518.35 C952.43,518.28 951.7,518.22 951.03,518.15 C952.51,513.91 953.67,510.02 954.57,506.63 C954.92,506.63 955.25,506.61 955.6,506.59z  M952.97 519.24 C951.88,523.97 950.7,528.67 949.45,533.15 C947.83,533.28 946.26,533.41 944.75,533.58 C947.14,528.42 949.1,523.53 950.7,519.02 C951.44,519.11 952.21,519.18 952.97,519.24z  M949.17 534.13 C948.62,536.08 948.05,537.98 947.46,539.84 C945.8,545.15 943.9,550.42 941.76,555.58 C938.81,555.14 936.01,554.61 933.49,554 C937.8,547.36 941.34,540.82 944.27,534.61 C945.87,534.41 947.48,534.26 949.17,534.13z  M941.39 556.49 C940.95,557.54 940.51,558.57 940.05,559.62 C936.23,559.9 932.53,560.25 928.95,560.67 C930.32,558.75 931.66,556.8 932.93,554.88 C935.51,555.51 938.33,556.06 941.39,556.49z  M939.64 560.56 C938.83,562.37 938,564.15 937.14,565.92 C932.42,566.33 927.9,566.83 923.74,567.49 C925.32,565.54 926.8,563.6 928.23,561.67 C931.9,561.22 935.7,560.84 939.64,560.56z  M936.71 566.86 C935.37,569.59 933.98,572.26 932.53,574.9 C926.21,575.58 920.25,576.5 914.82,577.63 C916.86,575.51 918.83,573.35 920.73,571.12 C921.45,570.27 922.17,569.41 922.87,568.56 C927,567.88 931.61,567.29 936.71,566.86z  M920.03 570.51 C917.82,573.09 915.55,575.56 913.19,577.98 C909.71,578.73 906.45,579.58 903.46,580.5 C902.01,579.51 901.25,578.49 901.25,577.48 C901.25,574.33 908.7,571.05 921.47,568.8 C920.99,569.37 920.51,569.94 920.03,570.51z  M903.15 581.44 C904.29,582.2 905.73,582.9 907.46,583.56 C902.41,588.21 897.05,592.54 891.43,596.5 C888.57,595.28 886.1,593.94 884.07,592.56 C886.52,588.32 893.34,584.48 903.15,581.44z  M908.42 583.93 C912.68,585.44 918.34,586.68 924.88,587.65 C924.12,588.78 923.35,589.92 922.56,591.03 C919.72,595.14 916.7,599.12 913.54,602.95 C905.29,601.33 898.15,599.28 892.44,596.94 C898.06,592.94 903.39,588.61 908.42,583.93z  M923.33 591.58 C924.2,590.33 925.06,589.07 925.89,587.78 C928.79,588.19 931.85,588.54 935.02,588.85 C932.16,594.34 929.01,599.67 925.54,604.92 C921.71,604.41 918.04,603.82 914.56,603.15 C917.65,599.41 920.57,595.54 923.33,591.58z  M936.01 588.93 C939.86,589.29 943.86,589.53 947.92,589.7 C946.7,595.38 945.34,601.05 943.88,606.64 C937.84,606.29 932.03,605.75 926.56,605.05 C930.02,599.78 933.17,594.44 936.01,588.93z  M948.86 589.74 C955.88,590.01 963.01,590.01 970.02,589.72 C971.25,595.45 972.62,601.11 974.11,606.73 C969.52,606.97 964.82,607.08 960.01,607.08 C954.81,607.08 949.74,606.95 944.82,606.69 C946.28,601.09 947.64,595.43 948.86,589.74z  M970.96 589.68 C975.27,589.5 979.51,589.22 983.58,588.83 C986.48,594.4 989.7,599.82 993.2,605.09 C987.47,605.81 981.39,606.36 975.05,606.69 C973.56,601.07 972.21,595.41 970.96,589.68z  M984.58 588.74 C987.64,588.43 990.62,588.08 993.41,587.67 C994.18,588.83 994.94,589.96 995.73,591.08 C998.64,595.25 1001.72,599.32 1004.98,603.23 C1001.57,603.89 997.96,604.46 994.22,604.94 C990.73,599.69 987.49,594.29 984.58,588.74z  M996.5 590.55 C995.8,589.55 995.12,588.54 994.44,587.51 C1000.56,586.57 1005.94,585.39 1010.01,583.95 C1015.19,588.78 1020.7,593.26 1026.51,597.35 C1020.87,599.58 1013.94,601.51 1006.01,603.04 C1002.66,599.04 999.49,594.86 996.5,590.55z  M1010.97 583.6 C1012.65,582.97 1014.09,582.27 1015.21,581.55 C1025.57,584.8 1032.52,588.96 1034.43,593.53 C1032.46,594.73 1030.14,595.87 1027.54,596.94 C1021.7,592.87 1016.17,588.41 1010.97,583.6z  M1014.9 580.61 C1011.95,579.69 1008.74,578.84 1005.31,578.07 C1002.97,575.69 1000.69,573.2 998.51,570.66 C997.98,570.03 997.44,569.39 996.93,568.78 C1009.77,571.03 1017.29,574.31 1017.29,577.48 C1017.29,578.53 1016.46,579.58 1014.9,580.61z  M997.81 571.25 C999.69,573.48 1001.66,575.62 1003.67,577.72 C998.51,576.65 992.87,575.73 986.88,575.05 C985.39,572.39 983.99,569.68 982.64,566.94 C987.34,567.36 991.67,567.91 995.53,568.54 C996.28,569.43 997.02,570.35 997.81,571.25z  M982.18 565.98 C981.3,564.19 980.45,562.35 979.62,560.52 C983.21,560.76 986.68,561.09 990.07,561.46 C991.51,563.47 993.04,565.48 994.66,567.47 C990.77,566.88 986.57,566.38 982.18,565.98z  M986 553.94 C981.72,547.33 978.18,540.82 975.25,534.63 C989.76,536.43 1000.26,540.56 1000.26,545.26 C1000.26,548.67 994.68,551.82 986,553.94z  M998.42 540.69 C994.25,537.43 985.68,534.85 974.75,533.61 C972.34,528.42 970.37,523.51 968.76,518.98 C976.87,518 983.4,515.75 983.42,512.55 C988.78,525.21 994.77,535.22 998.42,540.69z  M975.53 482.8 C975.62,483.41 975.69,484.16 975.79,484.99 C976.21,488.77 976.87,494.48 978.55,499.61 C979.82,503.48 981.22,507.18 982.66,510.7 C980.3,508.01 972.82,506.26 964.65,505.73 C963.82,502.59 963.22,499.9 962.79,497.8 C961.76,492.57 960.97,487.26 960.45,481.93 C967.14,481.8 973.91,480.27 974.9,477.55 C975.07,479.26 975.29,480.99 975.53,482.8z  M974.72 475.81 C973.22,473.25 966.37,471.85 959.81,471.81 C959.81,471.7 959.81,471.61 959.79,471.5 C959.79,471.5 959.81,471.5 959.81,471.5 C965.63,471.5 971.73,470.43 974.16,468.4 C974.29,470.84 974.46,473.29 974.72,475.81z  M959.81 462.3 C968.36,462.3 974.31,464.48 974.31,466.43 C974.31,466.65 974.24,466.87 974.09,467.08 C974.09,467.08 974.09,467.11 974.09,467.11 C972.91,468.85 967.38,470.56 959.81,470.56 C959.81,470.56 959.77,470.56 959.77,470.56 C959.75,469.42 959.73,468.29 959.73,467.15 C959.73,467.15 959.73,467.02 959.73,467.02 C959.73,467.02 958.81,467.02 958.81,467.02 C958.79,468.2 958.79,469.38 958.74,470.56 C950.79,470.38 945.3,468.31 945.3,466.43 C945.3,464.48 951.27,462.3 959.81,462.3z  M945.52 468.44 C947.83,470.32 953.3,471.37 958.72,471.48 C958.72,471.48 958.72,471.81 958.72,471.81 C953.13,471.89 947.42,472.96 945.06,474.89 C945.28,472.7 945.41,470.58 945.52,468.44z  M944.91 476.64 C945.32,474.8 950.83,472.88 958.68,472.75 C958.57,475.5 958.39,478.25 958.15,480.99 C950.31,480.79 944.93,478.76 944.88,476.9 C944.88,476.81 944.88,476.72 944.91,476.64z  M941.1 499.96 C942.78,494.83 943.44,489.12 943.88,485.34 C943.97,484.48 944.05,483.74 944.14,483.13 C944.34,481.56 944.53,480.03 944.71,478.54 C946.7,480.59 952.36,481.75 958.07,481.93 C957.54,487.22 956.78,492.46 955.73,497.67 C955.31,499.81 954.7,502.54 953.85,505.78 C946.92,506.26 940.58,507.66 937.54,509.73 C938.78,506.61 939.99,503.35 941.1,499.96z  M953.61 506.7 C952.69,510.04 951.53,513.87 950.06,518.04 C941.74,517.01 936.58,514.72 936.58,512.53 C936.58,510.06 943.2,507.44 953.61,506.7z  M935.92 513.65 C937.19,516.18 942.85,518.02 949.76,518.92 C948.12,523.48 946.13,528.47 943.66,533.72 C934.11,534.87 926.41,537.06 922.04,539.84 C925.65,534.28 931,525.08 935.92,513.65z  M919.28 543.86 C919.61,543.42 919.98,542.9 920.4,542.28 C923.63,538.96 932.18,536.16 943.18,534.74 C940.27,540.84 936.77,547.27 932.53,553.76 C924.27,551.64 918.98,548.58 918.98,545.26 C918.98,544.78 919.09,544.32 919.28,543.86z  M906.74 557.61 C912.7,552.23 916.33,547.64 917.89,545.7 C917.95,545.61 917.99,545.52 918.06,545.45 C918.24,549.15 923.55,552.41 931.99,554.64 C930.61,556.69 929.19,558.77 927.68,560.82 C913.54,562.59 901.38,565.48 892.51,569.11 C896.75,566.14 901.62,562.18 906.74,557.61z  M877.73 583.47 C877.73,579.43 881.27,575.62 887.52,572.28 C887.52,572.28 888.4,571.82 888.4,571.82 C897.14,567.42 910.67,563.88 926.96,561.83 C925.49,563.79 923.96,565.74 922.37,567.71 C909.38,569.85 900.31,573.19 900.31,577.48 C900.31,578.68 901.03,579.8 902.34,580.85 C892.75,583.93 885.99,587.8 883.37,592.06 C879.72,589.39 877.73,586.49 877.73,583.47z  M905.93 611.54 C891.83,607.63 883.06,602.14 883.06,596.08 C883.06,595.12 883.28,594.18 883.72,593.26 C885.66,594.58 888,595.84 890.69,597.02 C888.85,598.31 887,599.54 885.12,600.74 C885.12,600.74 885.62,601.53 885.62,601.53 C887.67,600.22 889.69,598.86 891.67,597.46 C897.42,599.89 904.64,602.01 912.9,603.69 C910.65,606.38 908.33,609 905.93,611.54z  M918.78 614.42 C914.54,613.68 910.56,612.81 906.96,611.82 C909.34,609.27 911.68,606.62 913.95,603.91 C917.45,604.59 921.14,605.2 924.99,605.72 C923.02,608.65 920.95,611.56 918.78,614.42z  M919.81 614.6 C921.97,611.71 924.05,608.81 926,605.88 C931.59,606.62 937.49,607.17 943.64,607.54 C942.78,610.75 941.89,613.94 940.97,617.11 C933.41,616.59 926.28,615.74 919.81,614.6z  M959.01 617.73 C953.13,617.73 947.42,617.53 941.91,617.18 C942.85,614.01 943.72,610.8 944.58,607.61 C949.58,607.87 954.74,608.02 960.01,608.02 C964.89,608.02 969.7,607.89 974.35,607.65 C975.2,610.82 976.08,613.99 977,617.11 C971.23,617.51 965.21,617.73 959.01,617.73z  M977.96 617.05 C977.04,613.92 976.14,610.77 975.29,607.61 C981.74,607.26 987.93,606.67 993.76,605.9 C995.69,608.76 997.68,611.58 999.78,614.34 C993.13,615.54 985.79,616.46 977.96,617.05z  M1000.8 614.14 C998.7,611.41 996.72,608.61 994.79,605.77 C998.55,605.27 1002.16,604.65 1005.61,604 C1007.76,606.56 1009.99,609.07 1012.26,611.5 C1008.76,612.48 1004.91,613.38 1000.8,614.14z  M1013.26 611.21 C1010.99,608.81 1008.78,606.34 1006.64,603.78 C1014.62,602.18 1021.62,600.19 1027.28,597.9 C1029.03,599.12 1030.8,600.3 1032.59,601.44 C1029.24,605.18 1022.47,608.54 1013.26,611.21z  M1033.2 600.72 C1031.54,599.67 1029.9,598.6 1028.3,597.48 C1030.69,596.46 1032.83,595.41 1034.69,594.29 C1034.86,594.88 1034.95,595.47 1034.95,596.08 C1034.95,597.68 1034.36,599.23 1033.2,600.72z  M1035.19 593.07 C1033.07,588.43 1026.18,584.26 1016.04,580.98 C1017.44,579.89 1018.2,578.73 1018.2,577.48 C1018.2,573.17 1009.09,569.83 996.04,567.69 C994.38,565.68 992.82,563.64 991.32,561.61 C1021.2,565.15 1042.3,573.61 1042.3,583.47 C1042.3,586.88 1039.76,590.12 1035.19,593.07z "/></g></g></g><g id="time_group"/></svg>