<svg xmlns="http://www.w3.org/2000/svg" xmlns:xlink="http://www.w3.org/1999/xlink" preserveAspectRatio="xMidYMid meet" width="390" height="850" viewBox="0 0 390 850" style="width:100%;height:100%"><defs><animate repeatCount="indefinite" dur="3.375s" begin="0s" xlink:href="#_R_G_L_0_G_L_2_G" fill="freeze" attributeName="opacity" from="0" to="1" keyTimes="0;0.382716;0.4322917;1" values="0;0;1;1" keySplines="0.167 0.167 0.833 0.833;0.167 0.167 0.833 0.833;0 0 0 0" calcMode="spline"/><animateTransform repeatCount="indefinite" dur="3.375s" begin="0s" xlink:href="#_R_G_L_0_G_L_2_G" fill="freeze" attributeName="transform" from="1 0" to="1 0" type="scale" additive="sum" keyTimes="0;0.382716;0.4444444;0.5061852;0.5925926;0.691358;1" values="1 0;1 0;1 1.27089;1 1;1 1;1 0;1 0" keySplines="0.167 0 0.667 1;0.167 0 0.667 1;0.333 0 0.667 1;0.333 0 0.667 1;0.333 0 0.667 1;0 0 0 0" calcMode="spline"/><animateTransform repeatCount="indefinite" dur="3.375s" begin="0s" xlink:href="#_R_G_L_0_G_L_2_G" fill="freeze" attributeName="transform" from="-960 -607" to="-960 -607" type="translate" additive="sum" keyTimes="0;1" values="-960 -607;-960 -607" keySplines="0 0 1 1" calcMode="spline"/><animate repeatCount="indefinite" dur="3.375s" begin="0s" xlink:href="#_R_G_L_0_G_L_1_G" fill="freeze" attributeName="opacity" from="0" to="1" keyTimes="0;0.1851852;0.2465278;1" values="0;0;1;1" keySplines="0.167 0.167 0.833 0.833;0.167 0.167 0.833 0.833;0 0 0 0" calcMode="spline"/><animateTransform repeatCount="indefinite" dur="3.375s" begin="0s" xlink:href="#_R_G_L_0_G_L_1_G" fill="freeze" attributeName="transform" from="1 0.00012" to="1 0" type="scale" additive="sum" keyTimes="0;0.1851852;0.2469136;0.308642;0.691358;0.7777778;1" values="1 0.00012;1 0.00012;1 1.27089;1 1;1 1;1 0;1 0" keySplines="0.167 0 0.667 1;0.167 0 0.667 1;0.333 0 0.667 1;0.333 0 0.667 1;0.333 0 0.667 1;0 0 0 0" calcMode="spline"/><animateTransform repeatCount="indefinite" dur="3.375s" begin="0s" xlink:href="#_R_G_L_0_G_L_1_G" fill="freeze" attributeName="transform" from="-960 -607" to="-960 -607" type="translate" additive="sum" keyTimes="0;1" values="-960 -607;-960 -607" keySplines="0 0 1 1" calcMode="spline"/><animate repeatCount="indefinite" dur="3.375s" begin="0s" xlink:href="#_R_G_L_0_G_L_0_G" fill="freeze" attributeName="opacity" from="0" to="1" keyTimes="0;0.0613426;1" values="0;1;1" keySplines="0.167 0.167 0.833 0.833;0 0 0 0" calcMode="spline"/><animateTransform repeatCount="indefinite" dur="3.375s" begin="0s" xlink:href="#_R_G_L_0_G_L_0_G" fill="freeze" attributeName="transform" from="1 0.00012" to="1 0" type="scale" additive="sum" keyTimes="0;0.0617284;0.1234568;0.7777778;0.8641975;1" values="1 0.00012;1 1.27089;1 1;1 1;1 0;1 0" keySplines="0.167 0 0.667 1;0.333 0 0.667 1;0.333 0 0.667 1;0.333 0 0.667 1;0 0 0 0" calcMode="spline"/><animateTransform repeatCount="indefinite" dur="3.375s" begin="0s" xlink:href="#_R_G_L_0_G_L_0_G" fill="freeze" attributeName="transform" from="-960 -607" to="-960 -607" type="translate" additive="sum" keyTimes="0;1" values="-960 -607;-960 -607" keySplines="0 0 1 1" calcMode="spline"/><animate attributeType="XML" attributeName="opacity" dur="3s" from="0" to="1" xlink:href="#time_group"/></defs><g id="_R_G"><g id="_R_G_L_0_G" transform=" translate(195, 425) translate(-960, -540)"><g id="_R_G_L_0_G_L_2_G" transform=" translate(960, 329)"><path id="_R_G_L_0_G_L_2_G_D_0_P_0" fill="#eb0035" fill-opacity="1" fill-rule="nonzero" d=" M1034.91 593.09 C1034.91,593.09 1001.97,559.17 1001.97,559.17 C1001.97,559.17 1000.93,560.18 1000.93,560.18 C1000.93,560.18 1033.25,593.45 1033.25,593.45 C1009.83,581.24 974.45,551.28 968.32,480.67 C968.43,478.66 968.59,476.76 968.74,475.09 C968.8,474.42 968.85,473.79 968.9,473.2 C969.27,473.13 969.61,473.04 969.93,472.93 C969.93,472.93 969.93,474.66 969.93,474.66 C969.93,474.66 973.39,474.66 973.39,474.66 C973.39,474.66 980.2,516.41 980.2,516.41 C979.97,516.52 979.75,516.64 979.54,516.8 C977.95,518.01 977.63,520.28 978.83,521.87 C980.04,523.47 982.31,523.78 983.9,522.58 C985.5,521.38 985.81,519.11 984.61,517.51 C983.88,516.54 982.74,516.04 981.61,516.08 C981.61,516.08 974.86,474.66 974.86,474.66 C974.86,474.66 978.38,474.66 978.38,474.66 C978.38,474.66 978.38,466.21 978.38,466.21 C978.38,466.21 969.93,466.21 969.93,466.21 C969.93,466.21 969.93,468.16 969.93,468.16 C969.93,468.16 950.91,466.52 950.91,466.52 C950.91,466.52 950.91,462.52 950.91,462.52 C950.91,462.52 942.47,462.52 942.47,462.52 C942.47,462.52 942.47,470.97 942.47,470.97 C942.47,470.97 944.28,470.97 944.28,470.97 C944.28,470.97 933.5,516.09 933.5,516.09 C932.48,516.06 931.46,516.43 930.72,517.24 C929.36,518.71 929.46,521 930.93,522.35 C932.4,523.71 934.69,523.61 936.04,522.14 C937.4,520.67 937.3,518.38 935.83,517.03 C935.55,516.77 935.23,516.58 934.9,516.43 C934.9,516.43 945,474.16 945,474.16 C944.51,487.76 943.44,509.32 935.64,532.02 C926.32,559.17 909.84,580.07 886.63,594.23 C886.63,594.23 915.71,560.24 915.71,560.24 C917.11,561.01 918.9,560.8 920.06,559.59 C921.45,558.15 921.41,555.86 919.97,554.47 C918.53,553.09 916.24,553.13 914.85,554.57 C913.58,555.88 913.52,557.9 914.61,559.29 C914.61,559.29 884.88,594.05 884.88,594.05 C884.88,594.05 877.84,594.05 877.84,594.05 C877.84,594.05 877.84,602.5 877.84,602.5 C877.84,602.5 886.28,602.5 886.28,602.5 C886.28,602.5 886.28,601.42 886.28,601.42 C889.23,603.73 891.94,606.19 894.19,608.59 C894.19,608.59 893.35,608.59 893.35,608.59 C893.35,608.59 893.35,617.04 893.35,617.04 C893.35,617.04 901.8,617.04 901.8,617.04 C901.8,617.04 901.8,612.1 901.8,612.1 C901.8,612.1 902.12,611.87 902.12,611.87 C907.04,608.65 911.7,605.15 916.09,601.36 C916.09,601.36 936.18,586.25 936.18,586.25 C936.82,586.82 937.65,587.17 938.57,587.17 C940.57,587.17 942.19,585.55 942.19,583.55 C942.19,581.55 940.57,579.93 938.57,579.93 C936.57,579.93 934.95,581.55 934.95,583.55 C934.95,584.11 935.09,584.63 935.31,585.1 C935.31,585.1 925.17,592.72 925.17,592.72 C939.45,577.77 950.28,559.26 957.54,537.37 C957.54,537.37 957.54,564.47 957.54,564.47 C955.86,564.81 954.61,566.31 954.64,568.09 C954.69,570.09 956.34,571.67 958.34,571.63 C960.34,571.59 961.92,569.93 961.88,567.94 C961.85,566.21 960.61,564.8 958.99,564.47 C958.99,564.47 958.99,537.32 958.99,537.32 C966.61,559.6 977.56,577.9 991.74,592.04 C991.74,592.04 981.89,585.38 981.89,585.38 C982.09,584.9 982.2,584.37 982.17,583.81 C982.07,581.82 980.37,580.28 978.38,580.38 C976.38,580.48 974.84,582.18 974.94,584.18 C975.04,586.17 976.74,587.71 978.74,587.61 C979.66,587.56 980.47,587.17 981.08,586.57 C981.08,586.57 999.38,598.95 999.38,598.95 C1005.1,603.7 1011.26,607.88 1017.87,611.46 C1017.87,611.46 1018.81,612.09 1018.81,612.09 C1018.81,612.09 1018.81,617.48 1018.81,617.48 C1018.81,617.48 1027.26,617.48 1027.26,617.48 C1027.26,617.48 1027.26,609.03 1027.26,609.03 C1027.26,609.03 1026.2,609.03 1026.2,609.03 C1028.36,606.11 1030.98,603.2 1033.72,600.68 C1033.72,600.68 1033.72,601.54 1033.72,601.54 C1033.72,601.54 1042.17,601.54 1042.17,601.54 C1042.17,601.54 1042.17,593.09 1042.17,593.09 C1042.17,593.09 1034.91,593.09 1034.91,593.09z  M1023.83 609.03 C1023.83,609.03 1018.81,609.03 1018.81,609.03 C1018.81,609.03 1018.81,609.76 1018.81,609.76 C1016.73,608.64 1014.69,607.46 1012.7,606.21 C1012.7,606.21 1005.73,601.5 1005.73,601.5 C985.25,586.42 970.08,564.32 960.44,535.57 C960.44,535.57 962.49,535.57 962.49,535.57 C962.49,535.57 962.49,527.12 962.49,527.12 C962.49,527.12 954.04,527.12 954.04,527.12 C954.04,527.12 954.04,535.57 954.04,535.57 C954.04,535.57 956.1,535.57 956.1,535.57 C945.64,567.87 927.4,592.79 901.8,609.76 C901.8,609.76 901.8,608.59 901.8,608.59 C901.8,608.59 896.81,608.59 896.81,608.59 C894.01,605.38 890.36,602.04 886.28,598.98 C886.28,598.98 886.28,596.66 886.28,596.66 C910.59,582.26 927.81,560.75 937.47,532.65 C945.71,508.64 946.52,485.95 946.99,472.4 C947.01,471.9 947.03,471.44 947.05,470.97 C947.05,470.97 950.91,470.97 950.91,470.97 C950.91,470.97 950.91,468.46 950.91,468.46 C950.91,468.46 969.93,470.09 969.93,470.09 C969.93,470.09 969.93,470.87 969.93,470.87 C969.37,471.12 968.68,471.31 967.88,471.41 C967.88,471.41 967.09,471.51 967.09,471.51 C967.09,471.51 967.04,472.3 967.04,472.3 C966.98,473.09 966.9,473.97 966.82,474.92 C966.67,476.63 966.5,478.56 966.4,480.64 C966.4,480.64 966.39,480.7 966.39,480.7 C966.39,480.7 966.4,480.77 966.4,480.77 C967.66,495.4 971.19,517.35 980.8,538.8 C992.53,565 1010.33,584.16 1033.72,595.84 C1033.72,595.84 1033.72,598.11 1033.72,598.11 C1030.06,601.27 1026.54,605.17 1023.83,609.03z "/><path id="_R_G_L_0_G_L_2_G_D_1_P_0" fill="#eb0035" fill-opacity="1" fill-rule="nonzero" d=" M1001.58 559.55 C1002.94,558.09 1002.86,555.8 1001.4,554.43 C999.93,553.07 997.65,553.15 996.28,554.61 C994.92,556.08 995,558.37 996.46,559.73 C997.93,561.09 1000.21,561.01 1001.58,559.55z "/></g><g id="_R_G_L_0_G_L_1_G" transform=" translate(960, 620)"><path id="_R_G_L_0_G_L_1_G_D_0_P_0" fill="#eb0035" fill-opacity="1" fill-rule="nonzero" d=" M1034.91 593.09 C1034.91,593.09 1001.97,559.17 1001.97,559.17 C1001.97,559.17 1000.93,560.18 1000.93,560.18 C1000.93,560.18 1033.25,593.45 1033.25,593.45 C1009.83,581.24 974.45,551.28 968.32,480.67 C968.43,478.66 968.59,476.76 968.74,475.09 C968.8,474.42 968.85,473.79 968.9,473.2 C969.27,473.13 969.61,473.04 969.93,472.93 C969.93,472.93 969.93,474.66 969.93,474.66 C969.93,474.66 973.39,474.66 973.39,474.66 C973.39,474.66 980.2,516.41 980.2,516.41 C979.97,516.52 979.75,516.64 979.54,516.8 C977.95,518.01 977.63,520.28 978.83,521.87 C980.04,523.47 982.31,523.78 983.9,522.58 C985.5,521.38 985.81,519.11 984.61,517.51 C983.88,516.54 982.74,516.04 981.61,516.08 C981.61,516.08 974.86,474.66 974.86,474.66 C974.86,474.66 978.38,474.66 978.38,474.66 C978.38,474.66 978.38,466.21 978.38,466.21 C978.38,466.21 969.93,466.21 969.93,466.21 C969.93,466.21 969.93,468.16 969.93,468.16 C969.93,468.16 950.91,466.52 950.91,466.52 C950.91,466.52 950.91,462.52 950.91,462.52 C950.91,462.52 942.47,462.52 942.47,462.52 C942.47,462.52 942.47,470.97 942.47,470.97 C942.47,470.97 944.28,470.97 944.28,470.97 C944.28,470.97 933.5,516.09 933.5,516.09 C932.48,516.06 931.46,516.43 930.72,517.24 C929.36,518.71 929.46,521 930.93,522.35 C932.4,523.71 934.69,523.61 936.04,522.14 C937.4,520.67 937.3,518.38 935.83,517.03 C935.55,516.77 935.23,516.58 934.9,516.43 C934.9,516.43 945,474.16 945,474.16 C944.51,487.76 943.44,509.32 935.64,532.02 C926.32,559.17 909.84,580.07 886.63,594.23 C886.63,594.23 915.71,560.24 915.71,560.24 C917.11,561.01 918.9,560.8 920.06,559.59 C921.45,558.15 921.41,555.86 919.97,554.47 C918.53,553.09 916.24,553.13 914.85,554.57 C913.58,555.88 913.52,557.9 914.61,559.29 C914.61,559.29 884.88,594.05 884.88,594.05 C884.88,594.05 877.84,594.05 877.84,594.05 C877.84,594.05 877.84,602.5 877.84,602.5 C877.84,602.5 886.28,602.5 886.28,602.5 C886.28,602.5 886.28,601.42 886.28,601.42 C889.23,603.73 891.94,606.19 894.19,608.59 C894.19,608.59 893.35,608.59 893.35,608.59 C893.35,608.59 893.35,617.04 893.35,617.04 C893.35,617.04 901.8,617.04 901.8,617.04 C901.8,617.04 901.8,612.1 901.8,612.1 C901.8,612.1 902.12,611.87 902.12,611.87 C907.04,608.65 911.7,605.15 916.09,601.36 C916.09,601.36 936.18,586.25 936.18,586.25 C936.82,586.82 937.65,587.17 938.57,587.17 C940.57,587.17 942.19,585.55 942.19,583.55 C942.19,581.55 940.57,579.93 938.57,579.93 C936.57,579.93 934.95,581.55 934.95,583.55 C934.95,584.11 935.09,584.63 935.31,585.1 C935.31,585.1 925.17,592.72 925.17,592.72 C939.45,577.77 950.28,559.26 957.54,537.37 C957.54,537.37 957.54,564.47 957.54,564.47 C955.86,564.81 954.61,566.31 954.64,568.09 C954.69,570.09 956.34,571.67 958.34,571.63 C960.34,571.59 961.92,569.93 961.88,567.94 C961.85,566.21 960.61,564.8 958.99,564.47 C958.99,564.47 958.99,537.32 958.99,537.32 C966.61,559.6 977.56,577.9 991.74,592.04 C991.74,592.04 981.89,585.38 981.89,585.38 C982.09,584.9 982.2,584.37 982.17,583.81 C982.07,581.82 980.37,580.28 978.38,580.38 C976.38,580.48 974.84,582.18 974.94,584.18 C975.04,586.17 976.74,587.71 978.74,587.61 C979.66,587.56 980.47,587.17 981.08,586.57 C981.08,586.57 999.38,598.95 999.38,598.95 C1005.1,603.7 1011.26,607.88 1017.87,611.46 C1017.87,611.46 1018.81,612.09 1018.81,612.09 C1018.81,612.09 1018.81,617.48 1018.81,617.48 C1018.81,617.48 1027.26,617.48 1027.26,617.48 C1027.26,617.48 1027.26,609.03 1027.26,609.03 C1027.26,609.03 1026.2,609.03 1026.2,609.03 C1028.36,606.11 1030.98,603.2 1033.72,600.68 C1033.72,600.68 1033.72,601.54 1033.72,601.54 C1033.72,601.54 1042.17,601.54 1042.17,601.54 C1042.17,601.54 1042.17,593.09 1042.17,593.09 C1042.17,593.09 1034.91,593.09 1034.91,593.09z  M1023.83 609.03 C1023.83,609.03 1018.81,609.03 1018.81,609.03 C1018.81,609.03 1018.81,609.76 1018.81,609.76 C1016.73,608.64 1014.69,607.46 1012.7,606.21 C1012.7,606.21 1005.73,601.5 1005.73,601.5 C985.25,586.42 970.08,564.32 960.44,535.57 C960.44,535.57 962.49,535.57 962.49,535.57 C962.49,535.57 962.49,527.12 962.49,527.12 C962.49,527.12 954.04,527.12 954.04,527.12 C954.04,527.12 954.04,535.57 954.04,535.57 C954.04,535.57 956.1,535.57 956.1,535.57 C945.64,567.87 927.4,592.79 901.8,609.76 C901.8,609.76 901.8,608.59 901.8,608.59 C901.8,608.59 896.81,608.59 896.81,608.59 C894.01,605.38 890.36,602.04 886.28,598.98 C886.28,598.98 886.28,596.66 886.28,596.66 C910.59,582.26 927.81,560.75 937.47,532.65 C945.71,508.64 946.52,485.95 946.99,472.4 C947.01,471.9 947.03,471.44 947.05,470.97 C947.05,470.97 950.91,470.97 950.91,470.97 C950.91,470.97 950.91,468.46 950.91,468.46 C950.91,468.46 969.93,470.09 969.93,470.09 C969.93,470.09 969.93,470.87 969.93,470.87 C969.37,471.12 968.68,471.31 967.88,471.41 C967.88,471.41 967.09,471.51 967.09,471.51 C967.09,471.51 967.04,472.3 967.04,472.3 C966.98,473.09 966.9,473.97 966.82,474.92 C966.67,476.63 966.5,478.56 966.4,480.64 C966.4,480.64 966.39,480.7 966.39,480.7 C966.39,480.7 966.4,480.77 966.4,480.77 C967.66,495.4 971.19,517.35 980.8,538.8 C992.53,565 1010.33,584.16 1033.72,595.84 C1033.72,595.84 1033.72,598.11 1033.72,598.11 C1030.06,601.27 1026.54,605.17 1023.83,609.03z "/><path id="_R_G_L_0_G_L_1_G_D_1_P_0" fill="#eb0035" fill-opacity="1" fill-rule="nonzero" d=" M1001.58 559.55 C1002.94,558.09 1002.86,555.8 1001.4,554.43 C999.93,553.07 997.65,553.15 996.28,554.61 C994.92,556.08 995,558.37 996.46,559.73 C997.93,561.09 1000.21,561.01 1001.58,559.55z "/></g><g id="_R_G_L_0_G_L_0_G" transform=" translate(960, 917)"><path id="_R_G_L_0_G_L_0_G_D_0_P_0" fill="#eb0035" fill-opacity="1" fill-rule="nonzero" d=" M1034.91 593.09 C1034.91,593.09 1001.97,559.17 1001.97,559.17 C1001.97,559.17 1000.93,560.18 1000.93,560.18 C1000.93,560.18 1033.25,593.45 1033.25,593.45 C1009.83,581.24 974.45,551.28 968.32,480.67 C968.43,478.66 968.59,476.76 968.74,475.09 C968.8,474.42 968.85,473.79 968.9,473.2 C969.27,473.13 969.61,473.04 969.93,472.93 C969.93,472.93 969.93,474.66 969.93,474.66 C969.93,474.66 973.39,474.66 973.39,474.66 C973.39,474.66 980.2,516.41 980.2,516.41 C979.97,516.52 979.75,516.64 979.54,516.8 C977.95,518.01 977.63,520.28 978.83,521.87 C980.04,523.47 982.31,523.78 983.9,522.58 C985.5,521.38 985.81,519.11 984.61,517.51 C983.88,516.54 982.74,516.04 981.61,516.08 C981.61,516.08 974.86,474.66 974.86,474.66 C974.86,474.66 978.38,474.66 978.38,474.66 C978.38,474.66 978.38,466.21 978.38,466.21 C978.38,466.21 969.93,466.21 969.93,466.21 C969.93,466.21 969.93,468.16 969.93,468.16 C969.93,468.16 950.91,466.52 950.91,466.52 C950.91,466.52 950.91,462.52 950.91,462.52 C950.91,462.52 942.47,462.52 942.47,462.52 C942.47,462.52 942.47,470.97 942.47,470.97 C942.47,470.97 944.28,470.97 944.28,470.97 C944.28,470.97 933.5,516.09 933.5,516.09 C932.48,516.06 931.46,516.43 930.72,517.24 C929.36,518.71 929.46,521 930.93,522.35 C932.4,523.71 934.69,523.61 936.04,522.14 C937.4,520.67 937.3,518.38 935.83,517.03 C935.55,516.77 935.23,516.58 934.9,516.43 C934.9,516.43 945,474.16 945,474.16 C944.51,487.76 943.44,509.32 935.64,532.02 C926.32,559.17 909.84,580.07 886.63,594.23 C886.63,594.23 915.71,560.24 915.71,560.24 C917.11,561.01 918.9,560.8 920.06,559.59 C921.45,558.15 921.41,555.86 919.97,554.47 C918.53,553.09 916.24,553.13 914.85,554.57 C913.58,555.88 913.52,557.9 914.61,559.29 C914.61,559.29 884.88,594.05 884.88,594.05 C884.88,594.05 877.84,594.05 877.84,594.05 C877.84,594.05 877.84,602.5 877.84,602.5 C877.84,602.5 886.28,602.5 886.28,602.5 C886.28,602.5 886.28,601.42 886.28,601.42 C889.23,603.73 891.94,606.19 894.19,608.59 C894.19,608.59 893.35,608.59 893.35,608.59 C893.35,608.59 893.35,617.04 893.35,617.04 C893.35,617.04 901.8,617.04 901.8,617.04 C901.8,617.04 901.8,612.1 901.8,612.1 C901.8,612.1 902.12,611.87 902.12,611.87 C907.04,608.65 911.7,605.15 916.09,601.36 C916.09,601.36 936.18,586.25 936.18,586.25 C936.82,586.82 937.65,587.17 938.57,587.17 C940.57,587.17 942.19,585.55 942.19,583.55 C942.19,581.55 940.57,579.93 938.57,579.93 C936.57,579.93 934.95,581.55 934.95,583.55 C934.95,584.11 935.09,584.63 935.31,585.1 C935.31,585.1 925.17,592.72 925.17,592.72 C939.45,577.77 950.28,559.26 957.54,537.37 C957.54,537.37 957.54,564.47 957.54,564.47 C955.86,564.81 954.61,566.31 954.64,568.09 C954.69,570.09 956.34,571.67 958.34,571.63 C960.34,571.59 961.92,569.93 961.88,567.94 C961.85,566.21 960.61,564.8 958.99,564.47 C958.99,564.47 958.99,537.32 958.99,537.32 C966.61,559.6 977.56,577.9 991.74,592.04 C991.74,592.04 981.89,585.38 981.89,585.38 C982.09,584.9 982.2,584.37 982.17,583.81 C982.07,581.82 980.37,580.28 978.38,580.38 C976.38,580.48 974.84,582.18 974.94,584.18 C975.04,586.17 976.74,587.71 978.74,587.61 C979.66,587.56 980.47,587.17 981.08,586.57 C981.08,586.57 999.38,598.95 999.38,598.95 C1005.1,603.7 1011.26,607.88 1017.87,611.46 C1017.87,611.46 1018.81,612.09 1018.81,612.09 C1018.81,612.09 1018.81,617.48 1018.81,617.48 C1018.81,617.48 1027.26,617.48 1027.26,617.48 C1027.26,617.48 1027.26,609.03 1027.26,609.03 C1027.26,609.03 1026.2,609.03 1026.2,609.03 C1028.36,606.11 1030.98,603.2 1033.72,600.68 C1033.72,600.68 1033.72,601.54 1033.72,601.54 C1033.72,601.54 1042.17,601.54 1042.17,601.54 C1042.17,601.54 1042.17,593.09 1042.17,593.09 C1042.17,593.09 1034.91,593.09 1034.91,593.09z  M1023.83 609.03 C1023.83,609.03 1018.81,609.03 1018.81,609.03 C1018.81,609.03 1018.81,609.76 1018.81,609.76 C1016.73,608.64 1014.69,607.46 1012.7,606.21 C1012.7,606.21 1005.73,601.5 1005.73,601.5 C985.25,586.42 970.08,564.32 960.44,535.57 C960.44,535.57 962.49,535.57 962.49,535.57 C962.49,535.57 962.49,527.12 962.49,527.12 C962.49,527.12 954.04,527.12 954.04,527.12 C954.04,527.12 954.04,535.57 954.04,535.57 C954.04,535.57 956.1,535.57 956.1,535.57 C945.64,567.87 927.4,592.79 901.8,609.76 C901.8,609.76 901.8,608.59 901.8,608.59 C901.8,608.59 896.81,608.59 896.81,608.59 C894.01,605.38 890.36,602.04 886.28,598.98 C886.28,598.98 886.28,596.66 886.28,596.66 C910.59,582.26 927.81,560.75 937.47,532.65 C945.71,508.64 946.52,485.95 946.99,472.4 C947.01,471.9 947.03,471.44 947.05,470.97 C947.05,470.97 950.91,470.97 950.91,470.97 C950.91,470.97 950.91,468.46 950.91,468.46 C950.91,468.46 969.93,470.09 969.93,470.09 C969.93,470.09 969.93,470.87 969.93,470.87 C969.37,471.12 968.68,471.31 967.88,471.41 C967.88,471.41 967.09,471.51 967.09,471.51 C967.09,471.51 967.04,472.3 967.04,472.3 C966.98,473.09 966.9,473.97 966.82,474.92 C966.67,476.63 966.5,478.56 966.4,480.64 C966.4,480.64 966.39,480.7 966.39,480.7 C966.39,480.7 966.4,480.77 966.4,480.77 C967.66,495.4 971.19,517.35 980.8,538.8 C992.53,565 1010.33,584.16 1033.72,595.84 C1033.72,595.84 1033.72,598.11 1033.72,598.11 C1030.06,601.27 1026.54,605.17 1023.83,609.03z "/><path id="_R_G_L_0_G_L_0_G_D_1_P_0" fill="#eb0035" fill-opacity="1" fill-rule="nonzero" d=" M1001.58 559.55 C1002.94,558.09 1002.86,555.8 1001.4,554.43 C999.93,553.07 997.65,553.15 996.28,554.61 C994.92,556.08 995,558.37 996.46,559.73 C997.93,561.09 1000.21,561.01 1001.58,559.55z "/></g></g></g><g id="time_group"/></svg>