<svg xmlns="http://www.w3.org/2000/svg" xmlns:xlink="http://www.w3.org/1999/xlink" preserveAspectRatio="xMidYMid meet" width="390" height="850" viewBox="0 0 390 850" style="width:100%;height:100%"><defs><animate repeatCount="indefinite" dur="3.375s" begin="0s" xlink:href="#_R_G_L_0_G_L_2_G" fill="freeze" attributeName="opacity" from="0" to="1" keyTimes="0;0.382716;0.4322917;1" values="0;0;1;1" keySplines="0.167 0.167 0.833 0.833;0.167 0.167 0.833 0.833;0 0 0 0" calcMode="spline"/><animateTransform repeatCount="indefinite" dur="3.375s" begin="0s" xlink:href="#_R_G_L_0_G_L_2_G" fill="freeze" attributeName="transform" from="1 0" to="1 0" type="scale" additive="sum" keyTimes="0;0.382716;0.4444444;0.5061852;0.5925926;0.691358;0.7777778;1" values="1 0;1 0;1 1.27089;1 1;1 1;1 0;1 0;1 0" keySplines="0.167 0 0.667 1;0.167 0 0.667 1;0.333 0 0.667 1;0.333 0 0.667 1;0.333 0 0.667 1;0.167 0 0.667 1;0 0 0 0" calcMode="spline"/><animateTransform repeatCount="indefinite" dur="3.375s" begin="0s" xlink:href="#_R_G_L_0_G_L_2_G" fill="freeze" attributeName="transform" from="-960 -611.25" to="-960 -611.25" type="translate" additive="sum" keyTimes="0;1" values="-960 -611.25;-960 -611.25" keySplines="0 0 1 1" calcMode="spline"/><animate repeatCount="indefinite" dur="3.375s" begin="0s" xlink:href="#_R_G_L_0_G_L_1_G" fill="freeze" attributeName="opacity" from="0" to="1" keyTimes="0;0.1851852;0.2465278;1" values="0;0;1;1" keySplines="0.167 0.167 0.833 0.833;0.167 0.167 0.833 0.833;0 0 0 0" calcMode="spline"/><animateTransform repeatCount="indefinite" dur="3.375s" begin="0s" xlink:href="#_R_G_L_0_G_L_1_G" fill="freeze" attributeName="transform" from="1 0.00012" to="1 0" type="scale" additive="sum" keyTimes="0;0.1851852;0.2469136;0.308642;0.691358;0.7777778;1" values="1 0.00012;1 0.00012;1 1.27089;1 1;1 1;1 0;1 0" keySplines="0.167 0 0.667 1;0.167 0 0.667 1;0.333 0 0.667 1;0.333 0 0.667 1;0.333 0 0.667 1;0 0 0 0" calcMode="spline"/><animateTransform repeatCount="indefinite" dur="3.375s" begin="0s" xlink:href="#_R_G_L_0_G_L_1_G" fill="freeze" attributeName="transform" from="-960 -611.25" to="-960 -611.25" type="translate" additive="sum" keyTimes="0;1" values="-960 -611.25;-960 -611.25" keySplines="0 0 1 1" calcMode="spline"/><animate repeatCount="indefinite" dur="3.375s" begin="0s" xlink:href="#_R_G_L_0_G_L_0_G" fill="freeze" attributeName="opacity" from="0" to="1" keyTimes="0;0.0613426;1" values="0;1;1" keySplines="0.167 0.167 0.833 0.833;0 0 0 0" calcMode="spline"/><animateTransform repeatCount="indefinite" dur="3.375s" begin="0s" xlink:href="#_R_G_L_0_G_L_0_G" fill="freeze" attributeName="transform" from="1 0.00012" to="1 0" type="scale" additive="sum" keyTimes="0;0.0617284;0.1234568;0.7777778;0.8641975;1" values="1 0.00012;1 1.27089;1 1;1 1;1 0;1 0" keySplines="0.167 0 0.667 1;0.333 0 0.667 1;0.333 0 0.667 1;0.333 0 0.667 1;0 0 0 0" calcMode="spline"/><animateTransform repeatCount="indefinite" dur="3.375s" begin="0s" xlink:href="#_R_G_L_0_G_L_0_G" fill="freeze" attributeName="transform" from="-960 -607" to="-960 -607" type="translate" additive="sum" keyTimes="0;1" values="-960 -607;-960 -607" keySplines="0 0 1 1" calcMode="spline"/><animate attributeType="XML" attributeName="opacity" dur="3s" from="0" to="1" xlink:href="#time_group"/></defs><g id="_R_G"><g id="_R_G_L_0_G" transform=" translate(195, 425) translate(-960, -540)"><g id="_R_G_L_0_G_L_2_G" transform=" translate(960, 329)"><path id="_R_G_L_0_G_L_2_G_D_0_P_0" fill="#eb0035" fill-opacity="1" fill-rule="nonzero" d=" M972.51 466.28 C972.51,467.9 970.73,469.04 968.12,469.36 C967.96,471.64 967.64,474.56 967.47,477.82 C969.75,504.14 980.31,568.66 1038.49,595.48 C1032.32,600.03 1026.63,606.69 1023.54,612.06 C986.33,593.85 967.64,560.21 958.21,529.98 C949.6,558.75 932.53,590.6 897.91,612.06 C894.5,607.02 888.16,601.17 881.5,596.62 C947.16,560.21 944.88,485.62 946.02,464 C946.02,464 972.51,466.28 972.51,466.28z "/></g><g id="_R_G_L_0_G_L_1_G" transform=" translate(956, 630)"><path id="_R_G_L_0_G_L_1_G_D_0_P_0" fill="#eb0035" fill-opacity="1" fill-rule="nonzero" d=" M972.51 466.28 C972.51,467.9 970.73,469.04 968.12,469.36 C967.96,471.64 967.64,474.56 967.47,477.82 C969.75,504.14 980.31,568.66 1038.49,595.48 C1032.32,600.03 1026.63,606.69 1023.54,612.06 C986.33,593.85 967.64,560.21 958.21,529.98 C949.6,558.75 932.53,590.6 897.91,612.06 C894.5,607.02 888.16,601.17 881.5,596.62 C947.16,560.21 944.88,485.62 946.02,464 C946.02,464 972.51,466.28 972.51,466.28z "/></g><g id="_R_G_L_0_G_L_0_G" transform=" translate(960, 917)"><path id="_R_G_L_0_G_L_0_G_D_0_P_0" fill="#eb0035" fill-opacity="1" fill-rule="nonzero" d=" M972.51 466.28 C972.51,467.9 970.73,469.04 968.12,469.36 C967.96,471.64 967.64,474.56 967.47,477.82 C969.75,504.14 980.31,568.66 1038.49,595.48 C1032.32,600.03 1026.63,606.69 1023.54,612.06 C986.33,593.85 967.64,560.21 958.21,529.98 C949.6,558.75 932.53,590.6 897.91,612.06 C894.5,607.02 888.16,601.17 881.5,596.62 C947.16,560.21 944.88,485.62 946.02,464 C946.02,464 972.51,466.28 972.51,466.28z "/></g></g></g><g id="time_group"/></svg>