<svg width="169" height="157" viewBox="0 0 169 157" fill="none" xmlns="http://www.w3.org/2000/svg">
<path d="M152.54 154L142.275 146.819C121.192 132.092 101.494 112.141 84.0738 94.4687C64.7799 114.033 45.7841 132.737 25.6383 146.819L15.3737 154L14.9478 153.377L25.2124 146.196C45.4859 132.028 64.6095 113.13 84.0525 93.4152C101.579 111.195 121.427 131.361 142.658 146.196L152.923 153.377L152.497 154H152.54ZM157.289 148.948C131.691 133.017 103.006 107.82 84.0951 84.622C65.1845 107.82 36.4991 133.038 10.9016 148.948L10.497 148.303C36.1158 132.372 64.8438 107.089 83.7118 83.8911L83.4349 4H84.1803L84.4572 83.8696C103.325 107.067 132.032 132.35 157.672 148.303L157.267 148.948H157.289ZM162.144 143.293C137.952 129.383 110.608 106.272 89.0357 81.4617L88.9505 81.3542V81.2037L88.8441 4H89.5894L89.6533 81.0532C111.183 105.756 138.399 128.76 162.485 142.627L162.101 143.293H162.144ZM6.32304 143.293L5.93973 142.627C30.0252 128.781 57.2412 105.756 78.7712 81.0532L78.835 4H79.5804L79.5165 81.3542L79.4313 81.4617C57.8374 106.272 30.4937 129.383 6.30172 143.293H6.32304ZM165.679 138.069L163.528 136.844C137.846 122.074 114.463 102.703 94.0616 79.2472L93.9764 79.1397V78.9893L93.9125 6.6229H94.4236C98.8318 6.34341 100.599 5.50494 100.791 4.81697C100.812 4.70947 100.834 4.36549 100.834 4.086H101.579C101.579 4.23649 101.579 4.75247 101.515 5.01046C101.174 6.30042 98.8744 7.09589 94.6578 7.37538L94.7217 78.8388C115.059 102.165 138.335 121.472 163.912 136.177L166.062 137.403L165.7 138.069H165.679ZM2.38331 138.026L2 137.36L4.74717 135.769C30.8558 120.762 54.1533 101.606 74.0009 78.8388L74.0435 4H74.7889L74.725 79.1182L74.6398 79.2257C54.7283 102.101 31.3242 121.364 5.10916 136.435L2.36206 138.026H2.38331Z" fill="#EA0029"/>
</svg>
