<svg width="169" height="157" viewBox="0 0 169 157" fill="none" xmlns="http://www.w3.org/2000/svg">
<path fill-rule="evenodd" clip-rule="evenodd" d="M113.31 120.32C113.76 120.62 114.22 120.93 114.67 121.23H115.12V120.78C112.85 118.05 110.57 115.33 108.3 112.6C108.75 112.75 109.21 112.9 109.66 113.05C111.39 114.96 110.77 114.77 112.39 113.05C113.15 113.2 113.9 113.35 114.66 113.5C113.52 114.51 114.4 114.09 112.84 113.95C112.99 114.4 113.14 114.86 113.29 115.31C113.15 116.91 114.62 118.39 116.93 118.95H117.38C119.52 115.6 118.14 113.76 119.2 110.31C118.1 109.47 118.32 109.84 116.02 109.86C116.13 107.54 116.43 109.44 116.47 107.59C116.97 106.49 112.53 102.1 110.11 102.14V98.96C109.81 98.81 109.5 98.66 109.2 98.51H107.84C108.29 99.72 108.75 100.93 109.2 102.15C106.47 99.88 103.75 97.6 101.02 95.33C100.87 95.48 100.72 95.63 100.57 95.78C106.17 101.54 111.78 107.29 117.39 113.05V113.5C111.54 111.36 104.16 96.35 99.66 97.14C99.09 95.73 99.74 93.42 98.3 90.78C99.81 91.99 101.33 93.2 102.84 94.42C101.98 92.06 100.6 90.74 98.75 89.42C98.9 87.6 99.05 85.78 99.2 83.97C101.78 86.24 104.35 88.52 106.93 90.79C107.65 90.28 106.86 90.33 108.29 90.34C107.99 89.73 107.68 89.13 107.38 88.52V88.07H107.83C108.28 88.22 108.74 88.37 109.19 88.52C111.26 91.59 109.74 90 110.55 92.16C109.94 91.86 109.34 91.55 108.73 91.25C109.92 95.99 117.4 101.33 121 103.98V103.53L120.55 103.08C116.61 97.48 112.67 91.87 108.73 86.26C106.61 81.56 104.49 76.87 102.37 72.17C102.07 71.72 101.76 71.26 101.46 70.81C99.79 70.96 98.13 71.11 96.46 71.26H96.01V70.81C96.16 70.36 96.31 69.9 96.46 69.45C97.97 69.6 99.49 69.75 101 69.9V69.45C99.88 67.61 99.11 67.45 96.46 67.18C98.19 60.38 95.19 54.92 93.73 45.36C92.38 45.96 92.71 45.63 91.91 46.72C91.61 45.96 91.3 45.21 91 44.45C92.54 43.38 91.47 43.8 93.27 43.54C92.91 42.63 92.39 41.51 91.79 40.36H91C90.95 39.77 90.89 39.17 90.84 38.58C90.28 37.58 89.71 36.63 89.18 35.82C92.03 32.71 90.08 21.18 90.09 14C92.62 13.56 93.49 13.19 94.18 10.82H91.45V13.09C90.5 11.85 91.1 12.85 91 10.82C88.74 11.92 88.64 11.3 89.18 15.36C88.88 15.51 88.57 15.66 88.27 15.81C88.12 14.45 87.97 13.08 87.82 11.72C84.53 9.62 75.85 8.77 72.37 11.27C71.66 9.06 71.62 9.7 69.64 9C70.52 17.25 69.46 25.15 70.09 34.45C70.39 34.6 70.7 34.75 71 34.9V33.99C72 32.6 71.49 30.12 71.45 26.26C72.36 26.41 73.27 26.56 74.18 26.71C74.97 28.3 74.74 28.28 74.63 30.8H75.08C75.54 27.61 75.68 26.91 77.81 26.71C75.9 24.95 75.15 25.64 75.08 21.71C73.99 21.03 74.56 21.44 74.17 22.62L73.72 20.35C73.57 21.56 73.42 22.77 73.27 23.99C72.97 24.14 72.66 24.29 72.36 24.44H71.91C71.49 20.83 72.07 17.47 75.09 15.8C75.24 15.04 75.39 14.28 75.54 13.53C75.69 14.59 75.84 15.65 75.99 16.71C76.29 15.2 76.6 13.68 76.9 12.17C77.66 12.62 78.42 13.08 79.17 13.53C78.52 15.34 78.24 14.93 77.35 16.26C78.81 16.9 78.24 16.72 79.17 17.62C79.32 16.71 79.47 15.8 79.62 14.89C79.92 14.74 80.23 14.59 80.53 14.44C80.59 18.21 80.53 17.6 79.17 19.89V20.34C79.93 19.89 80.69 19.43 81.44 18.98C82.35 19.43 83.26 19.89 84.17 20.34C83.04 23.66 82.85 23.88 83.72 27.16C82.3 26.95 83.21 26.46 82.36 27.61C80.24 26.4 78.12 25.19 76 23.97C77.49 25.96 79.47 27.48 82.36 28.06V28.51C78.52 28.08 78.29 29.65 77.82 33.51C80.28 32.7 78.96 35.51 78.73 37.6C79.03 37.15 79.34 36.69 79.64 36.24C79.49 38.06 79.34 39.88 79.19 41.69C80.1 42.14 81.01 42.6 81.92 43.05V41.23C83.22 42.91 82.98 47.25 82.83 50.32C80.5 47.88 80.24 50.84 77.38 48.05C77.23 48.5 77.08 48.96 76.93 49.41C77.08 50.32 77.23 51.23 77.38 52.14L77.83 49.87C78.82 50.81 78.71 50.48 79.19 52.14C81.55 51.2 80.84 51.6 82.37 50.78L83.28 51.69C83.13 52.75 82.98 53.81 82.83 54.87C81.28 53.92 81.18 54.17 80.56 52.14C79.53 53.45 79.52 55.94 79.65 58.5C80.1 57.74 80.56 56.98 81.01 56.23C81.63 57.44 81.06 56.51 82.37 56.23C82.8 61.3 82.06 60.5 83.28 64.41C81.41 64.41 82.65 63.83 81.46 64.86C80.46 65.91 81.44 67.23 81.91 69.4C81.15 69.25 80.4 69.1 79.64 68.95C78.67 67.06 77.66 65.5 74.64 64.41C74.34 62.9 74.03 61.38 73.73 59.87V58.96C72.29 60.47 72.75 59.95 72.82 62.6H72.37C71.76 62.3 71.16 61.99 70.55 61.69C70.85 58.56 70.8 59.08 71 55.78C70.39 56.39 69.79 56.99 69.18 57.6H68.73C69.28 55.46 71.39 55.04 71.91 53.51C72.25 52.53 71.01 41.9 71.91 37.15C71.61 37.6 71.3 38.06 71 38.51V36.69C70.7 36.39 70.39 36.08 70.09 35.78C68.59 43.24 68.04 44.56 65.55 52.6V54.42H66C66.15 53.36 66.3 52.3 66.45 51.24H66.9C66.83 55.68 65.9 54.09 65.08 56.69C66.69 57.04 66.39 57.01 67.35 57.6V58.05C66.45 58.15 67.14 58.63 66.44 58.05C64.13 58.86 66.61 58.89 64.17 58.96C64.02 60.32 63.87 61.69 63.72 63.05C64.17 62.6 64.63 62.14 65.08 61.69V63.51C65.53 63.21 65.99 62.9 66.44 62.6C66.89 62.75 67.35 62.9 67.8 63.05C67.83 66.71 64.91 67.38 64.62 64.87H62.8C62.35 66.38 61.89 67.9 61.44 69.41C62.2 69.71 62.95 70.02 63.71 70.32V71.68C61.79 71.22 62.19 71.16 60.98 70.32C60.43 73.85 60.64 73.68 61.43 76.68L59.61 74.86C56 92.76 42.51 100.1 37.34 115.76C37.95 115.31 38.55 114.85 39.16 114.4C37.94 117.04 38.92 116.17 36.89 116.22C37.06 119.04 35.18 120.72 35.07 123.95L33.71 122.59C31.39 124.91 31.59 124.58 31.44 128.5C28.5 125.41 26.24 127.77 26.9 132.14C25.71 131.07 25.49 131 25.08 128.96C23.4 130.6 23.36 131.35 21.9 128.96C21.75 129.57 21.6 130.17 21.45 130.78C20.39 130.17 19.33 129.57 18.27 128.96C15.85 130.63 13.42 132.29 11 133.96C15.29 138.61 21.5 144.21 26.45 148.05C50.39 135.26 72.38 106.68 79.63 77.6V77.15C78.19 77.21 79.35 76.66 78.27 77.6C75.72 75.75 74.77 73.31 73.27 69.87C73.42 69.42 73.57 68.96 73.72 68.51C77.8 69.19 78.82 71.82 81.9 71.69C85.63 85.35 92.2 99.4 100.08 109.41C103.62 113.91 110.19 116.32 112.35 122.14C112.96 122.29 113.56 122.44 114.17 122.59C113.87 121.83 113.56 121.07 113.26 120.32H113.31ZM74.68 25.79C75.09 26.6 75.12 25.91 74.68 26.7V25.79ZM36.96 119.41L37.87 120.32C37.57 120.62 37.26 120.93 36.96 121.23V119.41ZM38.32 124.86C37.35 123.61 38.05 124.77 37.87 123.04C38.32 123.34 38.78 123.65 39.23 123.95L38.32 124.86ZM51.95 93.95L52.86 94.4C52.56 94.85 52.25 95.31 51.95 95.76H51.5C51.65 95.15 51.8 94.55 51.95 93.94V93.95ZM52.4 114.86H51.04C51.19 114.56 51.34 114.25 51.49 113.95C51.79 114.25 52.1 114.56 52.4 114.86ZM50.13 102.13C50.51 103.4 50.37 102.91 49.68 103.95C49.83 103.34 49.98 102.74 50.13 102.13ZM41.04 109.4V111.67C40.74 111.82 40.43 111.97 40.13 112.12C40.43 111.21 40.74 110.3 41.04 109.39V109.4ZM40.59 127.58C40.74 127.28 40.89 126.97 41.04 126.67C41.19 126.97 41.34 127.28 41.49 127.58H40.58H40.59ZM41.95 114.85V112.12C43.21 113.26 43.18 113.72 45.13 114.39C43.91 116.7 45.14 115.03 41.95 114.84V114.85ZM45.59 110.31C46.04 111.22 46.5 112.13 46.95 113.04V114.4C46.65 114.25 46.34 114.1 46.04 113.95C45.89 112.74 45.74 111.53 45.59 110.31ZM46.95 118.95C47.25 119.4 47.56 119.86 47.86 120.31C47.56 120.46 47.25 120.61 46.95 120.76V118.94V118.95ZM47.86 125.31C48.01 125.01 48.16 124.7 48.31 124.4H48.76C48.46 124.7 48.15 125.01 47.85 125.31H47.86ZM48.31 105.31C47.7 105.46 47.1 105.61 46.49 105.76C46.79 104.7 47.1 103.64 47.4 102.58C47.85 102.73 48.31 102.88 48.76 103.03C48.61 103.79 48.46 104.54 48.31 105.3V105.31ZM49.22 107.58C50.3 108.53 49.43 107.53 49.67 108.94H51.03C50.58 109.24 50.12 109.55 49.67 109.85H49.22V107.58ZM49.67 118.94C49.82 118.49 49.97 118.03 50.12 117.58C50.88 117.73 51.63 117.88 52.39 118.03V118.48H50.57C50.27 118.63 49.96 118.78 49.66 118.93L49.67 118.94ZM52.85 123.48H52.4V120.75C52.7 121.2 53.01 121.66 53.31 122.11C53.16 122.56 53.01 123.02 52.86 123.47L52.85 123.48ZM53.76 117.12C52.8 115.55 53.83 113.68 54.21 110.76C55.07 112.91 54.12 114.77 53.76 117.12ZM56.49 92.58C56.34 92.73 56.19 92.88 56.04 93.03C55.74 92.58 55.43 92.12 55.13 91.67C55.58 91.82 56.04 91.97 56.49 92.12V92.57V92.58ZM57.85 84.4C58.3 84.7 58.76 85.01 59.21 85.31C57.62 84.92 58.61 85.85 57.85 84.4ZM65.58 68.95C66.57 69.77 66.48 69.8 66.94 71.22C65.32 70 65.87 70.72 65.58 68.95ZM71.94 65.31C72.09 65.76 72.24 66.22 72.39 66.67C71.19 67.13 72.02 66.44 71.48 67.58C70.87 67.43 70.27 67.28 69.66 67.13C69.36 66.07 69.05 65.01 68.75 63.95C69.81 64.4 70.87 64.86 71.93 65.31H71.94ZM69.21 59.86H68.76V58.04C68.91 58.65 69.06 59.25 69.21 59.86ZM69.21 41.68C70.41 42.97 69.89 44.21 69.66 46.68C69.51 46.98 69.36 47.29 69.21 47.59C68.76 47.74 68.3 47.89 67.85 48.04C68.35 45.21 69.1 45.15 69.21 41.68ZM69.66 76.22C69.36 75.16 69.05 74.1 68.75 73.04C69.54 74.03 69.56 74.26 69.66 76.22ZM71.02 78.49C70.57 78.04 70.11 77.58 69.66 77.13C71.02 76.54 70.21 77.15 71.02 76.22V78.49ZM70.57 69.4H71.93C70.81 69.8 71.21 70.6 70.57 69.4ZM73.75 75.31C74.51 75.76 75.26 76.22 76.02 76.67C75.72 77.73 75.41 78.79 75.11 79.85C72.35 79.64 74.12 78.9 72.38 80.3H71.93C72.54 78.63 73.14 76.97 73.75 75.3V75.31ZM81.48 33.04C81.78 33.49 82.09 33.95 82.39 34.4C81.48 33.95 80.57 33.49 79.66 33.04H81.48ZM81.48 36.68L81.93 36.23C82.23 36.68 82.54 37.14 82.84 37.59C82.39 37.29 81.93 36.98 81.48 36.68ZM83.3 31.23L82.85 30.78C83 30.33 83.15 29.87 83.3 29.42C83.45 30.03 83.6 30.63 83.75 31.24H83.3V31.23ZM87.84 17.6C88.33 18.96 87.9 19.72 86.93 20.78H86.48C86.93 19.72 87.39 18.66 87.84 17.6ZM81.93 18.51H81.48C82.02 17.04 82.11 17.27 82.84 16.24C83.29 16.39 83.75 16.54 84.2 16.69C83.4 18.55 83.49 17.56 81.93 18.51ZM88.75 59.87C88.3 59.26 87.84 58.66 87.39 58.05C87.84 58.2 88.3 58.35 88.75 58.5V59.86V59.87ZM87.39 44.42C86.94 44.57 86.48 44.72 86.03 44.87C86.57 43.3 86.54 43.71 86.48 42.14C87.09 42.44 87.69 42.75 88.3 43.05C88.45 43.5 88.6 43.96 88.75 44.41H87.39V44.42ZM88.75 28.06H87.39C87.54 27 87.69 25.94 87.84 24.88L88.75 25.79V28.06ZM91.02 59.42C90.72 59.12 90.41 58.81 90.11 58.51C91.47 57.92 90.66 58.53 91.47 57.6C91.85 58.87 91.71 58.38 91.02 59.42ZM90.11 52.6C90.94 53.32 91.01 53.77 91.47 54.87C90.28 53.96 90.56 54.37 90.11 52.6ZM89.66 43.51C90.11 44.27 90.57 45.03 91.02 45.78V46.23C90.72 46.38 90.41 46.53 90.11 46.68C89.34 45.12 89.55 45.62 89.66 43.5V43.51ZM90.57 48.05C91.55 49.34 91.3 49.39 91.02 51.23H90.57C90.27 50.62 89.96 50.02 89.66 49.41C90.58 48.59 90 49.42 90.57 48.05ZM90.12 67.59V66.23C90.73 66.38 91.33 66.53 91.94 66.68C91.33 66.98 90.73 67.29 90.12 67.59ZM93.76 50.32H92.4C92.55 49.56 92.7 48.8 92.85 48.05C93.15 48.35 93.46 48.66 93.76 48.96V50.32ZM95.58 86.23C95.13 85.93 94.67 85.62 94.22 85.32C94.52 83.81 94.83 82.29 95.13 80.78C96.38 82.4 96.79 81.69 97.86 83.51C95.82 83.28 95.8 83.52 95.59 86.24L95.58 86.23ZM77.86 17.15C77.71 17.6 77.56 18.06 77.41 18.51C77.56 18.96 77.71 19.42 77.86 19.87C78.16 20.02 78.47 20.17 78.77 20.32C78.47 19.26 78.16 18.2 77.86 17.14V17.15ZM76.04 18.06C75.77 19.6 75.68 19.15 76.49 20.33C76.9 18.96 76.8 19.13 76.04 18.06ZM68.77 24.42C68.47 29.12 68.16 33.81 67.86 38.51C68.16 38.36 68.47 38.21 68.77 38.06V24.43V24.42ZM91.95 40.33C91.83 37.89 92.4 37.47 90.59 35.33C90.69 36.4 90.78 37.47 90.88 38.55C91.21 39.14 91.53 39.74 91.84 40.33H91.96H91.95ZM78.32 39.88C77.71 39.27 77.11 38.67 76.5 38.06C76.2 38.51 75.89 38.97 75.59 39.42C76.04 39.57 76.5 39.72 76.95 39.87H78.31L78.32 39.88ZM80.59 45.33C81.35 45.96 81.39 46.37 81.95 47.15C82.1 46.7 82.25 46.24 82.4 45.79C81.49 44.73 80.58 43.67 79.67 42.61C79.1 43.97 78.86 44.43 79.67 46.25C79.97 46.7 80.28 47.16 80.58 47.61V45.34L80.59 45.33ZM73.32 48.51C73.17 49.72 73.02 50.93 72.87 52.15C73.17 51.54 73.48 50.94 73.78 50.33L75.14 51.69V52.6C75.75 51.24 76.35 49.87 76.96 48.51C76.51 48.21 76.05 47.9 75.6 47.6C74.69 48.53 75.15 48.25 73.33 48.51H73.32ZM78.32 52.15V53.51H79.23C78.64 52.15 79.25 52.96 78.32 52.15ZM71.96 57.6C72.57 57.9 73.17 58.21 73.78 58.51C73.71 56.51 73.84 56.27 72.87 55.33C72.57 56.09 72.26 56.84 71.96 57.6ZM76.05 70.78C77.13 73.66 77.39 74.12 80.14 75.32H80.59C79.91 72.57 78.01 71.85 76.05 70.78ZM128.32 112.14C126.35 109.87 124.38 107.59 122.41 105.32C122.25 107.59 126.06 110.75 128.32 112.14ZM118.78 107.14C118.63 107.75 118.48 108.35 118.33 108.96C118.78 109.11 119.24 109.26 119.69 109.41H120.14C119.63 107.77 119.78 108.07 118.78 107.14ZM133.32 118.05V117.14H134.68C132.86 115.63 131.04 114.11 129.23 112.6C129.99 114.11 130.75 115.63 131.5 117.14C132.11 117.44 132.71 117.75 133.32 118.05ZM127.87 120.78C130.21 121.4 130.18 122.12 131.96 123.05C131.79 121.78 131.62 122.46 132.87 122.14C132.32 120.79 132.43 121.21 132.42 119.87C131.54 118.78 132.15 119.12 130.6 118.51V117.6C130.3 118.51 129.99 119.42 129.69 120.33H129.24C128.79 118.97 128.33 117.6 127.88 116.24C127.09 118.57 127.48 118.46 127.88 120.78H127.87ZM107.42 118.51C107.57 118.36 107.72 118.21 107.87 118.06C107.57 117.76 107.26 117.45 106.96 117.15C107.11 117.6 107.26 118.06 107.41 118.51H107.42ZM149.23 137.6V135.33C146.51 135.39 145.01 130.97 143.78 128.06C142.79 127.82 143.48 127.7 142.87 128.51C141.88 127.57 141.99 127.9 141.51 126.24C143.75 125.84 141.68 125.52 143.33 124.88C142.09 124.88 142.52 124.25 141.97 125.79C139.76 125.27 139.79 125.14 138.79 123.52C139.7 123.22 140.61 122.91 141.52 122.61V122.16C138.94 120.61 137.63 118.41 134.25 117.62C134.18 119.76 136.08 121.51 137.89 123.07C136.34 123.69 137.42 123.45 137.44 124.89C135.07 124.3 134.64 124.13 132.44 124.89C130.54 123.98 130.54 123.5 129.26 122.16H128.81C129.3 124.53 130.66 126.06 131.99 126.7C132.44 127 132.9 127.31 133.35 127.61C132.74 126.85 132.14 126.09 131.53 125.34C132.74 125.95 133.95 126.55 135.17 127.16C135.74 128.31 137.12 128.34 135.62 128.98C135.77 129.43 135.92 129.89 136.07 130.34C134.69 129.46 135.44 130.32 135.16 128.98C134.86 128.68 134.55 128.37 134.25 128.07C133.82 132.02 131.81 133.99 128.34 134.89C129.79 139.17 131.38 140.17 135.16 142.16C135.31 141.71 135.46 141.25 135.61 140.8C133.16 139.99 133.96 139.6 133.34 138.07C137.52 138.92 138.48 144.08 142.43 145.8C142.73 146.1 143.04 146.41 143.34 146.71C143.79 146.26 144.25 145.8 144.7 145.35C141.59 141.85 137.82 137.28 136.06 132.62C138.16 134.27 138.52 134.18 141.06 133.07L141.51 133.52C140.45 134.13 139.39 134.73 138.33 135.34C139.73 136.15 140.16 137.68 141.06 139.43H141.51C141.96 139.28 142.42 139.13 142.87 138.98C142.42 137.92 141.96 136.86 141.51 135.8C144 137.96 145.62 141.79 148.78 139.44C146.96 137.02 145.14 134.59 143.33 132.17C145.55 134.09 146.43 136.15 149.24 137.62L149.23 137.6ZM136.96 135.78C135.9 135.48 134.84 135.17 133.78 134.87C133.93 134.57 134.08 134.26 134.23 133.96C135.14 134.57 136.05 135.17 136.96 135.78ZM136.51 125.78H139.24C139.39 126.84 139.54 127.9 139.69 128.96C137.44 127.59 137.93 127.94 136.51 125.78ZM122.88 121.69C121.37 120.78 119.85 119.87 118.34 118.96L117.43 119.87C118.34 120.17 119.25 120.48 120.16 120.78C119.71 121.23 119.25 121.69 118.8 122.14C120.47 123.06 119.79 122.16 120.16 124.41C123.25 124.35 122.94 125.43 124.7 127.59V128.5C126.08 127.07 125.4 127.02 126.97 126.68C126.67 125.47 126.36 124.26 126.06 123.04C124.26 122.2 124.15 122.92 121.52 122.59C121.37 122.29 121.22 121.98 121.07 121.68C123.34 121.93 123.29 122.58 123.8 119.86C123.19 119.41 122.59 118.95 121.98 118.5C122.28 119.11 122.59 119.71 122.89 120.32V121.68L122.88 121.69ZM26.53 122.6C26.38 122.9 26.23 123.21 26.08 123.51C26.9 122.91 26.34 123.02 26.53 122.6ZM121.06 127.6C121.87 125.33 118.32 124.08 114.7 123.06C116.26 126.46 119.75 128.07 120.15 131.24C120.91 130.94 121.66 130.63 122.42 130.33C121.97 129.42 121.51 128.51 121.06 127.6ZM29.25 124.42V125.78H29.7C29.55 125.33 29.4 124.87 29.25 124.42ZM113.33 124.87C113.94 125.48 114.54 126.08 115.15 126.69C114.4 125 114.97 125.62 113.33 124.87ZM147.87 125.78C147.11 125.48 146.35 125.17 145.6 124.87C145.45 125.32 145.3 125.78 145.15 126.23H146.97C147.27 126.08 147.58 125.93 147.88 125.78H147.87ZM153.78 129.42C153.93 130.18 154.08 130.93 154.23 131.69V132.6H156.05C156.5 131.99 156.96 131.39 157.41 130.78C156.2 130.33 154.99 129.87 153.77 129.42H153.78ZM122.87 129.87C123.02 130.32 123.17 130.78 123.32 131.23C123.93 131.38 124.53 131.53 125.14 131.68C124.31 130.27 124.5 130.49 122.87 129.86V129.87ZM128.78 131.69V131.24C127.87 130.94 126.96 130.63 126.05 130.33C125.75 130.94 125.44 131.54 125.14 132.15C125.44 132.45 125.75 132.76 126.05 133.06C127.09 131.97 126.77 132.05 128.78 131.7V131.69ZM149.69 132.14C149.99 132.29 150.3 132.44 150.6 132.59C150.3 131.98 149.99 131.38 149.69 130.77V132.13V132.14ZM121.51 133.05H122.87C122.42 132.75 121.96 132.44 121.51 132.14V133.05ZM127.87 135.32V133.5H126.05C126.66 134.11 127.26 134.71 127.87 135.32ZM150.14 138.05H149.23C150.04 138.46 149.35 138.49 150.14 138.05ZM144.23 141.23C144.44 142.43 143.93 141.93 145.14 143.05L146.05 142.14C144.99 141.38 143.93 140.63 142.87 139.87L144.23 141.23ZM136.05 143.05L136.96 142.14H136.05V143.05Z" fill="#EA0029"/>
</svg>
