<svg width="169" height="157" viewBox="0 0 169 157" fill="none" xmlns="http://www.w3.org/2000/svg">
<path d="M137.64 143.64L125.78 136.79V132.58L123.91 133.66L112.05 126.81V121.58L110.79 122.31L98.93 115.46V107.3L98.79 107.22L90.02 102.16V90.89L84.7 87.82L79.48 90.84V102.11L70.57 107.26V115.42L58.71 122.27L57.45 121.54V126.76L45.59 133.61L43.72 132.53V136.74L31.86 143.59L20 136.74V123.05L31.86 116.2L33.73 117.32V113.07L45.59 106.22L46.85 106.95V101.72L55.76 96.58V88.42L61.52 85.09V73.82L72.92 67.24L72.82 20.69L84.67 14L96.47 20.72L108.28 27.54V31.98L96.68 38.72L96.65 67.34L107.98 73.88V85.15L113.74 88.48V96.64L122.65 101.78V107L123.91 106.27L135.77 113.12V117.37L137.64 116.25L149.5 123.1V136.79L137.64 143.64ZM137.98 130.14V142.67L148.83 136.4V123.87L137.98 130.14ZM126.46 136.41L137.31 142.68V130.15L133.66 128.04L126.46 132.2V136.41ZM32.2 130.09V142.62L43.05 136.35V132.14L35.85 127.98L32.2 130.09ZM20.68 136.36L31.53 142.63V130.1L20.68 123.83V136.36ZM124.26 120.17V132.7L135.11 126.43V113.9L124.26 120.17ZM112.74 126.44L123.59 132.71V120.19L118.73 117.76L112.74 121.22V126.45V126.44ZM45.94 120.13V132.65L56.79 126.38V121.15L50.8 117.69L45.94 120.12V120.13ZM34.42 126.38L45.27 132.65V120.12L34.42 113.85V126.38ZM134.35 127.66L137.66 129.57L148.51 123.3L137.66 117.04L135.79 118.17V126.83L134.35 127.66ZM21.01 123.23L31.86 129.5L35.17 127.59L33.73 126.76V118.1L31.86 116.97L21.01 123.23ZM99.61 115.07L110.46 121.34V108.81L106.34 106.43L101.88 109L99.6 107.69V115.08L99.61 115.07ZM111.13 108.8V121.33L121.98 115.06V102.53L111.13 108.8ZM47.52 115.01L58.37 121.28V108.75L47.52 102.48V115.01ZM59.04 108.74V121.27L69.89 115V107.61L67.61 108.92L63.15 106.35L59.03 108.73L59.04 108.74ZM119.41 117.32L123.9 119.57L134.76 113.3L123.91 107.03L122.65 107.76V115.45L119.41 117.32ZM34.73 113.24L45.59 119.51L50.08 117.26L46.84 115.39V107.7L45.58 106.97L34.73 113.24ZM107.01 106.03L110.79 108.22L121.64 101.95L113.74 97.39V102.15L107.01 106.04V106.03ZM47.85 101.89L58.7 108.16L62.48 105.97L55.75 102.08V97.32L47.85 101.88V101.89ZM102.22 95.49V108.02L113.07 101.75V89.22L102.22 95.49ZM90.7 101.76L101.55 108.02V95.49L97.89 93.38L96.13 94.4L90.7 91.27V101.77V101.76ZM67.96 95.44V107.97L78.81 101.7V91.2L73.38 94.33L71.62 93.31L67.96 95.42V95.44ZM56.44 101.71L67.29 107.98V95.45L56.44 89.18V101.71ZM98.57 93L101.9 94.92L112.75 88.65L108 85.9V87.55L98.58 92.99L98.57 93ZM56.78 88.6L67.63 94.87L70.96 92.95L61.54 87.51V85.86L56.79 88.61L56.78 88.6ZM85.1 87.26L95.8 93.44V80.91L90.34 77.76L85.09 80.86V87.27L85.1 87.26ZM96.47 80.91V93.44L107.32 87.17V74.64L96.47 80.91ZM62.2 87.12L73.05 93.39V80.86L62.2 74.59V87.12ZM73.72 80.85V93.38L84.42 87.2V80.77L79.09 77.74L73.71 80.84L73.72 80.85ZM91 77.36L96.13 80.32L106.98 74.05L96.66 68.09V74.02L91 77.36ZM62.54 74L73.39 80.27L78.43 77.36L72.95 74.23V68L62.54 74ZM73.62 73.84L84.49 80.04L84.46 67.59L73.59 61.12L73.62 73.84ZM85.13 67.59L85.16 80.03L96 73.64V67.71L95.98 67.69L96.01 67.64V61.28L85.14 67.59H85.13ZM85.1 54.34L85.13 66.81L96 60.5V48.01L85.1 54.34ZM73.59 60.34L84.46 66.81L84.44 54.34L73.57 47.87L73.59 60.34ZM85.07 41.18L85.09 53.57L96 47.24V38.69L92.66 36.77L85.07 41.17V41.18ZM73.56 47.1L84.43 53.57L84.4 41.18L73.54 34.71L73.56 47.1ZM85.05 32.41L85.07 40.41L91.99 36.39L85.05 32.4V32.41ZM73.53 33.94L84.39 40.41L84.37 27.94L73.5 21.47L73.53 33.94ZM96.68 34.66V37.94L107.63 31.59V28.31L96.68 34.66ZM85.05 31.64L96.01 37.94V34.67L85.05 28.37V31.65V31.64ZM85.35 27.77L96.34 34.08L107.28 27.73L96.32 21.4L85.35 27.76V27.77ZM73.84 20.89L84.71 27.36L95.65 21.02L84.68 14.77L73.84 20.89Z" fill="#EA0029"/>
</svg>
